<svg width="669" height="185" viewBox="0 0 669 185" fill="none" xmlns="http://www.w3.org/2000/svg">
<g clip-path="url(#clip0_2_2954)">
<rect x="0.105469" y="0.104248" width="60.4169" height="51.7581" rx="6.81882" fill="#6C5FD4"/>
<g clip-path="url(#clip1_2_2954)">
<path d="M20.0803 20.8666C21.4373 20.8666 22.7388 20.3275 23.6984 19.3679C24.658 18.4083 25.1971 17.1068 25.1971 15.7498M20.0803 20.8666C18.7232 20.8666 17.4217 20.3275 16.4621 19.3679C15.5025 18.4083 14.9634 17.1068 14.9634 15.7498M20.0803 20.8666V25.9834M25.1971 15.7498C25.1971 14.3927 24.658 13.0912 23.6984 12.1316C22.7388 11.172 21.4373 10.6329 20.0803 10.6329M25.1971 15.7498H30.3139M20.0803 10.6329C18.7232 10.6329 17.4217 11.172 16.4621 12.1316C15.5025 13.0912 14.9634 14.3927 14.9634 15.7498M20.0803 10.6329V5.51611M14.9634 15.7498H9.84662M13.2578 8.92733L16.6691 12.3385M23.4915 19.161L26.9027 22.5722M26.9027 8.92733L23.4915 12.3385M16.6691 19.161L13.2578 22.5722M40.5476 25.9834C41.9046 25.9834 43.2061 25.4443 44.1657 24.4847C45.1253 23.5251 45.6644 22.2237 45.6644 20.8666M40.5476 25.9834C39.1905 25.9834 37.889 25.4443 36.9294 24.4847C35.9698 23.5251 35.4307 22.2237 35.4307 20.8666M40.5476 25.9834V31.1002M45.6644 20.8666C45.6644 19.5095 45.1253 18.208 44.1657 17.2484C43.2061 16.2889 41.9046 15.7498 40.5476 15.7498M45.6644 20.8666H50.7812M40.5476 15.7498C39.1905 15.7498 37.889 16.2889 36.9294 17.2484C35.9698 18.208 35.4307 19.5095 35.4307 20.8666M40.5476 15.7498V10.6329M35.4307 20.8666H30.3139M33.7251 14.0442L37.1363 17.4554M43.9588 24.2778L47.37 27.689M47.37 14.0442L43.9588 17.4554M37.1363 24.2778L33.7251 27.689M25.1971 41.3339C26.5542 41.3339 27.8556 40.7948 28.8152 39.8352C29.7748 38.8756 30.3139 37.5741 30.3139 36.2171M25.1971 41.3339C23.84 41.3339 22.5385 40.7948 21.5789 39.8352C20.6194 38.8756 20.0803 37.5741 20.0803 36.2171M25.1971 41.3339V46.4507M30.3139 36.2171C30.3139 34.86 29.7748 33.5585 28.8152 32.5989C27.8556 31.6393 26.5542 31.1002 25.1971 31.1002M30.3139 36.2171H35.4307M25.1971 31.1002C23.84 31.1002 22.5385 31.6393 21.5789 32.5989C20.6194 33.5585 20.0803 34.86 20.0803 36.2171M25.1971 31.1002V25.9834M20.0803 36.2171H14.9634M18.3747 29.3946L21.7859 32.8058M28.6083 39.6283L32.0195 43.0395M32.0195 29.3946L28.6083 32.8058M21.7859 39.6283L18.3747 43.0395" stroke="white" stroke-width="1.70561"/>
</g>
<path d="M110.691 11.8892L102.624 39.1042H97.5727L91.8556 18.5069L85.786 39.1042L80.7738 39.1434L73.0596 11.8892H77.7977L83.4365 34.0528L89.5452 11.8892H94.5575L100.235 33.9353L105.913 11.8892H110.691ZM116.84 14.6694C116.03 14.6694 115.352 14.3953 114.803 13.8471C114.255 13.2989 113.981 12.6201 113.981 11.8108C113.981 11.0016 114.255 10.3228 114.803 9.77461C115.352 9.22639 116.03 8.95228 116.84 8.95228C117.623 8.95228 118.288 9.22639 118.837 9.77461C119.385 10.3228 119.659 11.0016 119.659 11.8108C119.659 12.6201 119.385 13.2989 118.837 13.8471C118.288 14.3953 117.623 14.6694 116.84 14.6694ZM119.032 17.528V39.1042H114.568V17.528H119.032ZM123.601 28.2182C123.601 26.0514 124.045 24.1327 124.933 22.4619C125.846 20.7912 127.073 19.4989 128.613 18.5852C130.18 17.6454 131.916 17.1755 133.821 17.1755C135.231 17.1755 136.615 17.4888 137.972 18.1153C139.356 18.7158 140.452 19.5251 141.262 20.5432V10.127H145.765V39.1042H141.262V35.8541C140.531 36.8983 139.512 37.7598 138.207 38.4386C136.928 39.1173 135.453 39.4567 133.782 39.4567C131.903 39.4567 130.18 38.9868 128.613 38.047C127.073 37.0811 125.846 35.7497 124.933 34.0528C124.045 32.3298 123.601 30.385 123.601 28.2182ZM141.262 28.2965C141.262 26.8085 140.948 25.5163 140.322 24.4198C139.721 23.3234 138.925 22.488 137.933 21.9137C136.941 21.3394 135.871 21.0522 134.722 21.0522C133.573 21.0522 132.503 21.3394 131.511 21.9137C130.519 22.4619 129.71 23.2843 129.083 24.3807C128.483 25.451 128.183 26.7302 128.183 28.2182C128.183 29.7062 128.483 31.0115 129.083 32.1341C129.71 33.2566 130.519 34.1181 131.511 34.7185C132.529 35.2928 133.6 35.58 134.722 35.58C135.871 35.58 136.941 35.2928 137.933 34.7185C138.925 34.1442 139.721 33.3088 140.322 32.2124C140.948 31.0898 141.262 29.7845 141.262 28.2965ZM171.599 27.7875C171.599 28.5967 171.547 29.3277 171.442 29.9803H154.957C155.087 31.7033 155.727 33.0869 156.875 34.1311C158.024 35.1754 159.434 35.6975 161.104 35.6975C163.506 35.6975 165.203 34.6924 166.195 32.6823H171.012C170.359 34.6663 169.171 36.2979 167.448 37.5771C165.751 38.8301 163.637 39.4567 161.104 39.4567C159.042 39.4567 157.189 38.9998 155.544 38.0861C153.925 37.1463 152.646 35.841 151.706 34.1703C150.793 32.4734 150.336 30.5155 150.336 28.2965C150.336 26.0776 150.78 24.1327 151.667 22.4619C152.581 20.7651 153.847 19.4598 155.466 18.5461C157.11 17.6324 158.99 17.1755 161.104 17.1755C163.141 17.1755 164.955 17.6193 166.547 18.5069C168.14 19.3945 169.38 20.6476 170.268 22.2661C171.155 23.8586 171.599 25.699 171.599 27.7875ZM166.939 26.3778C166.913 24.7331 166.326 23.4148 165.177 22.4228C164.028 21.4308 162.606 20.9348 160.909 20.9348C159.368 20.9348 158.05 21.4308 156.954 22.4228C155.857 23.3887 155.205 24.707 154.996 26.3778H166.939ZM200.692 39.1042L194.426 28.2182H191.02V39.1042H186.556V11.8892H195.954C198.042 11.8892 199.804 12.2546 201.24 12.9856C202.702 13.7166 203.785 14.6955 204.49 15.9225C205.221 17.1494 205.587 18.52 205.587 20.0341C205.587 21.8093 205.064 23.4278 204.02 24.8898C203.002 26.3256 201.423 27.3045 199.282 27.8266L206.017 39.1042H200.692ZM191.02 24.6548H195.954C197.624 24.6548 198.877 24.2371 199.713 23.4017C200.574 22.5664 201.005 21.4438 201.005 20.0341C201.005 18.6244 200.587 17.528 199.752 16.7448C198.917 15.9355 197.65 15.5309 195.954 15.5309H191.02V24.6548ZM210.005 28.2182C210.005 26.0514 210.449 24.1327 211.336 22.4619C212.25 20.7912 213.477 19.4989 215.017 18.5852C216.584 17.6454 218.307 17.1755 220.186 17.1755C221.883 17.1755 223.358 17.5149 224.611 18.1937C225.89 18.8463 226.908 19.6686 227.665 20.6606V17.528H232.169V39.1042H227.665V35.8933C226.908 36.9114 225.877 37.7598 224.572 38.4386C223.267 39.1173 221.779 39.4567 220.108 39.4567C218.254 39.4567 216.558 38.9868 215.017 38.047C213.477 37.0811 212.25 35.7497 211.336 34.0528C210.449 32.3298 210.005 30.385 210.005 28.2182ZM227.665 28.2965C227.665 26.8085 227.352 25.5163 226.726 24.4198C226.125 23.3234 225.329 22.488 224.337 21.9137C223.345 21.3394 222.275 21.0522 221.126 21.0522C219.977 21.0522 218.907 21.3394 217.915 21.9137C216.923 22.4619 216.114 23.2843 215.487 24.3807C214.887 25.451 214.587 26.7302 214.587 28.2182C214.587 29.7062 214.887 31.0115 215.487 32.1341C216.114 33.2566 216.923 34.1181 217.915 34.7185C218.933 35.2928 220.003 35.58 221.126 35.58C222.275 35.58 223.345 35.2928 224.337 34.7185C225.329 34.1442 226.125 33.3088 226.726 32.2124C227.352 31.0898 227.665 29.7845 227.665 28.2965ZM249.114 17.1755C250.811 17.1755 252.325 17.528 253.656 18.2328C255.014 18.9377 256.071 19.9819 256.828 21.3655C257.585 22.7491 257.964 24.4198 257.964 26.3778V39.1042H253.539V27.0435C253.539 25.1116 253.056 23.6367 252.09 22.6186C251.124 21.5743 249.806 21.0522 248.135 21.0522C246.464 21.0522 245.133 21.5743 244.141 22.6186C243.175 23.6367 242.692 25.1116 242.692 27.0435V39.1042H238.228V17.528H242.692V19.995C243.423 19.1074 244.35 18.4156 245.472 17.9196C246.621 17.4236 247.835 17.1755 249.114 17.1755ZM272.547 17.1755C274.218 17.1755 275.693 17.5149 276.972 18.1937C278.277 18.8463 279.295 19.6686 280.026 20.6606V17.528H284.529V39.4567C284.529 41.4407 284.112 43.2028 283.276 44.7431C282.441 46.3094 281.227 47.5364 279.634 48.4239C278.068 49.3115 276.189 49.7553 273.996 49.7553C271.072 49.7553 268.644 49.0635 266.712 47.6799C264.78 46.3224 263.684 44.4689 263.423 42.1194H267.848C268.187 43.242 268.905 44.1426 270.001 44.8214C271.124 45.5262 272.455 45.8787 273.996 45.8787C275.797 45.8787 277.246 45.3304 278.342 44.234C279.465 43.1376 280.026 41.5451 280.026 39.4567V35.8541C279.269 36.8722 278.238 37.7337 276.933 38.4386C275.653 39.1173 274.191 39.4567 272.547 39.4567C270.667 39.4567 268.944 38.9868 267.378 38.047C265.838 37.0811 264.611 35.7497 263.697 34.0528C262.809 32.3298 262.366 30.385 262.366 28.2182C262.366 26.0514 262.809 24.1327 263.697 22.4619C264.611 20.7912 265.838 19.4989 267.378 18.5852C268.944 17.6454 270.667 17.1755 272.547 17.1755ZM280.026 28.2965C280.026 26.8085 279.713 25.5163 279.086 24.4198C278.486 23.3234 277.69 22.488 276.698 21.9137C275.706 21.3394 274.635 21.0522 273.487 21.0522C272.338 21.0522 271.268 21.3394 270.276 21.9137C269.284 22.4619 268.474 23.2843 267.848 24.3807C267.247 25.451 266.947 26.7302 266.947 28.2182C266.947 29.7062 267.247 31.0115 267.848 32.1341C268.474 33.2566 269.284 34.1181 270.276 34.7185C271.294 35.2928 272.364 35.58 273.487 35.58C274.635 35.58 275.706 35.2928 276.698 34.7185C277.69 34.1442 278.486 33.3088 279.086 32.2124C279.713 31.0898 280.026 29.7845 280.026 28.2965ZM310.363 27.7875C310.363 28.5967 310.311 29.3277 310.207 29.9803H293.721C293.852 31.7033 294.491 33.0869 295.64 34.1311C296.788 35.1754 298.198 35.6975 299.869 35.6975C302.271 35.6975 303.968 34.6924 304.96 32.6823H309.776C309.123 34.6663 307.936 36.2979 306.213 37.5771C304.516 38.8301 302.401 39.4567 299.869 39.4567C297.807 39.4567 295.953 38.9998 294.308 38.0861C292.69 37.1463 291.411 35.841 290.471 34.1703C289.557 32.4734 289.1 30.5155 289.1 28.2965C289.1 26.0776 289.544 24.1327 290.432 22.4619C291.345 20.7651 292.612 19.4598 294.23 18.5461C295.875 17.6324 297.754 17.1755 299.869 17.1755C301.905 17.1755 303.72 17.6193 305.312 18.5069C306.904 19.3945 308.144 20.6476 309.032 22.2661C309.92 23.8586 310.363 25.699 310.363 27.7875ZM305.704 26.3778C305.677 24.7331 305.09 23.4148 303.941 22.4228C302.793 21.4308 301.37 20.9348 299.673 20.9348C298.133 20.9348 296.815 21.4308 295.718 22.4228C294.622 23.3887 293.969 24.707 293.76 26.3778H305.704ZM334.679 39.4567C332.643 39.4567 330.802 38.9998 329.158 38.0861C327.513 37.1463 326.221 35.841 325.281 34.1703C324.341 32.4734 323.871 30.5155 323.871 28.2965C323.871 26.1037 324.354 24.1588 325.32 22.4619C326.286 20.7651 327.604 19.4598 329.275 18.5461C330.946 17.6324 332.812 17.1755 334.875 17.1755C336.937 17.1755 338.804 17.6324 340.474 18.5461C342.145 19.4598 343.463 20.7651 344.429 22.4619C345.395 24.1588 345.878 26.1037 345.878 28.2965C345.878 30.4894 345.382 32.4343 344.39 34.1311C343.398 35.828 342.041 37.1463 340.318 38.0861C338.621 38.9998 336.741 39.4567 334.679 39.4567ZM334.679 35.58C335.828 35.58 336.898 35.3059 337.89 34.7577C338.908 34.2094 339.73 33.3871 340.357 32.2907C340.983 31.1943 341.297 29.8629 341.297 28.2965C341.297 26.7302 340.996 25.4119 340.396 24.3415C339.796 23.2451 338.999 22.4228 338.007 21.8746C337.015 21.3263 335.945 21.0522 334.796 21.0522C333.648 21.0522 332.577 21.3263 331.585 21.8746C330.62 22.4228 329.849 23.2451 329.275 24.3415C328.701 25.4119 328.414 26.7302 328.414 28.2965C328.414 30.6199 329.001 32.4212 330.176 33.7004C331.377 34.9535 332.878 35.58 334.679 35.58ZM359.533 21.1697H355.538V39.1042H351.035V21.1697H348.49V17.528H351.035V16.0008C351.035 13.5208 351.688 11.7195 352.993 10.5969C354.325 9.44829 356.4 8.87397 359.219 8.87397V12.594C357.862 12.594 356.909 12.8551 356.361 13.3772C355.813 13.8732 355.538 14.7477 355.538 16.0008V17.528H359.533V21.1697ZM383.02 39.3784C381.192 39.3784 379.548 39.0651 378.086 38.4386C376.624 37.7859 375.475 36.8722 374.64 35.6975C373.804 34.5227 373.387 33.1522 373.387 31.5858H378.164C378.268 32.7606 378.725 33.7265 379.535 34.4836C380.37 35.2406 381.532 35.6192 383.02 35.6192C384.56 35.6192 385.761 35.2537 386.622 34.5227C387.484 33.7657 387.914 32.7997 387.914 31.625C387.914 30.7113 387.64 29.9673 387.092 29.393C386.57 28.8186 385.904 28.3748 385.095 28.0616C384.312 27.7483 383.215 27.4089 381.806 27.0435C380.031 26.5736 378.582 26.1037 377.459 25.6338C376.363 25.1378 375.423 24.3807 374.64 23.3626C373.857 22.3445 373.465 20.987 373.465 19.2901C373.465 17.7238 373.857 16.3532 374.64 15.1785C375.423 14.0037 376.519 13.1031 377.929 12.4765C379.339 11.85 380.97 11.5367 382.824 11.5367C385.461 11.5367 387.614 12.2024 389.285 13.5338C390.982 14.8391 391.922 16.6404 392.104 18.9377H387.17C387.092 17.9457 386.622 17.0972 385.761 16.3924C384.899 15.6875 383.764 15.3351 382.354 15.3351C381.075 15.3351 380.031 15.6614 379.221 16.3141C378.412 16.9667 378.007 17.9065 378.007 19.1335C378.007 19.9688 378.255 20.6606 378.751 21.2089C379.274 21.731 379.926 22.1487 380.709 22.4619C381.492 22.7752 382.563 23.1146 383.92 23.48C385.722 23.9761 387.184 24.4721 388.306 24.9681C389.455 25.4641 390.421 26.2342 391.204 27.2784C392.013 28.2965 392.418 29.6671 392.418 31.39C392.418 32.7736 392.039 34.0789 391.282 35.3059C390.551 36.5328 389.468 37.5249 388.032 38.2819C386.622 39.0129 384.951 39.3784 383.02 39.3784ZM417.656 27.7875C417.656 28.5967 417.604 29.3277 417.499 29.9803H401.014C401.144 31.7033 401.784 33.0869 402.932 34.1311C404.081 35.1754 405.491 35.6975 407.161 35.6975C409.563 35.6975 411.26 34.6924 412.252 32.6823H417.068C416.416 34.6663 415.228 36.2979 413.505 37.5771C411.808 38.8301 409.694 39.4567 407.161 39.4567C405.099 39.4567 403.246 38.9998 401.601 38.0861C399.982 37.1463 398.703 35.841 397.763 34.1703C396.85 32.4734 396.393 30.5155 396.393 28.2965C396.393 26.0776 396.837 24.1327 397.724 22.4619C398.638 20.7651 399.904 19.4598 401.523 18.5461C403.167 17.6324 405.047 17.1755 407.161 17.1755C409.198 17.1755 411.012 17.6193 412.604 18.5069C414.197 19.3945 415.437 20.6476 416.324 22.2661C417.212 23.8586 417.656 25.699 417.656 27.7875ZM412.996 26.3778C412.97 24.7331 412.383 23.4148 411.234 22.4228C410.085 21.4308 408.662 20.9348 406.966 20.9348C405.425 20.9348 404.107 21.4308 403.011 22.4228C401.914 23.3887 401.262 24.707 401.053 26.3778H412.996ZM426.709 20.6606C427.361 19.5642 428.223 18.7158 429.293 18.1153C430.39 17.4888 431.682 17.1755 433.17 17.1755V21.7962H432.034C430.285 21.7962 428.954 22.24 428.04 23.1276C427.153 24.0152 426.709 25.5554 426.709 27.7483V39.1042H422.245V17.528H426.709V20.6606ZM445.81 35.1101L451.919 17.528H456.657L448.433 39.1042H443.108L434.924 17.528H439.701L445.81 35.1101ZM462.498 14.6694C461.689 14.6694 461.01 14.3953 460.462 13.8471C459.914 13.2989 459.639 12.6201 459.639 11.8108C459.639 11.0016 459.914 10.3228 460.462 9.77461C461.01 9.22639 461.689 8.95228 462.498 8.95228C463.281 8.95228 463.947 9.22639 464.495 9.77461C465.043 10.3228 465.317 11.0016 465.317 11.8108C465.317 12.6201 465.043 13.2989 464.495 13.8471C463.947 14.3953 463.281 14.6694 462.498 14.6694ZM464.691 17.528V39.1042H460.227V17.528H464.691ZM469.26 28.2965C469.26 26.0776 469.703 24.1327 470.591 22.4619C471.505 20.7651 472.758 19.4598 474.35 18.5461C475.943 17.6324 477.77 17.1755 479.832 17.1755C482.443 17.1755 484.597 17.8021 486.293 19.0551C488.016 20.2821 489.178 22.0442 489.779 24.3415H484.962C484.571 23.2712 483.944 22.4358 483.083 21.8354C482.221 21.235 481.138 20.9348 479.832 20.9348C478.005 20.9348 476.543 21.5874 475.447 22.8927C474.376 24.1718 473.841 25.9731 473.841 28.2965C473.841 30.6199 474.376 32.4343 475.447 33.7395C476.543 35.0448 478.005 35.6975 479.832 35.6975C482.417 35.6975 484.127 34.5619 484.962 32.2907H489.779C489.152 34.4836 487.977 36.2326 486.254 37.5379C484.531 38.8171 482.391 39.4567 479.832 39.4567C477.77 39.4567 475.943 38.9998 474.35 38.0861C472.758 37.1463 471.505 35.841 470.591 34.1703C469.703 32.4734 469.26 30.5155 469.26 28.2965ZM514.198 27.7875C514.198 28.5967 514.146 29.3277 514.042 29.9803H497.556C497.686 31.7033 498.326 33.0869 499.475 34.1311C500.623 35.1754 502.033 35.6975 503.704 35.6975C506.105 35.6975 507.802 34.6924 508.794 32.6823H513.611C512.958 34.6663 511.77 36.2979 510.047 37.5771C508.35 38.8301 506.236 39.4567 503.704 39.4567C501.641 39.4567 499.788 38.9998 498.143 38.0861C496.525 37.1463 495.245 35.841 494.306 34.1703C493.392 32.4734 492.935 30.5155 492.935 28.2965C492.935 26.0776 493.379 24.1327 494.267 22.4619C495.18 20.7651 496.446 19.4598 498.065 18.5461C499.71 17.6324 501.589 17.1755 503.704 17.1755C505.74 17.1755 507.554 17.6193 509.147 18.5069C510.739 19.3945 511.979 20.6476 512.867 22.2661C513.754 23.8586 514.198 25.699 514.198 27.7875ZM509.538 26.3778C509.512 24.7331 508.925 23.4148 507.776 22.4228C506.628 21.4308 505.205 20.9348 503.508 20.9348C501.968 20.9348 500.649 21.4308 499.553 22.4228C498.456 23.3887 497.804 24.707 497.595 26.3778H509.538ZM526.619 39.4567C524.922 39.4567 523.395 39.1565 522.037 38.556C520.706 37.9295 519.648 37.0941 518.865 36.0499C518.082 34.9796 517.664 33.7918 517.612 32.4865H522.233C522.311 33.4002 522.742 34.1703 523.525 34.7968C524.334 35.3973 525.34 35.6975 526.54 35.6975C527.793 35.6975 528.759 35.4625 529.438 34.9926C530.143 34.4966 530.495 33.8701 530.495 33.113C530.495 32.3037 530.104 31.7033 529.321 31.3117C528.564 30.9201 527.35 30.4894 525.679 30.0195C524.06 29.5757 522.742 29.145 521.724 28.7273C520.706 28.3096 519.818 27.67 519.061 26.8085C518.33 25.947 517.965 24.8114 517.965 23.4017C517.965 22.2531 518.304 21.2089 518.983 20.2691C519.662 19.3032 520.627 18.5461 521.881 17.9979C523.16 17.4497 524.622 17.1755 526.266 17.1755C528.72 17.1755 530.691 17.8021 532.179 19.0551C533.693 20.2821 534.503 21.9659 534.607 24.1066H530.143C530.065 23.1407 529.673 22.3706 528.968 21.7962C528.263 21.2219 527.31 20.9348 526.11 20.9348C524.935 20.9348 524.034 21.1567 523.408 21.6004C522.781 22.0442 522.468 22.6316 522.468 23.3626C522.468 23.9369 522.677 24.4198 523.094 24.8114C523.512 25.203 524.021 25.5163 524.622 25.7512C525.222 25.9601 526.11 26.2342 527.284 26.5736C528.851 26.9913 530.13 27.422 531.122 27.8658C532.14 28.2835 533.015 28.91 533.746 29.7454C534.476 30.5808 534.855 31.6903 534.881 33.0739C534.881 34.3008 534.542 35.3973 533.863 36.3632C533.184 37.3291 532.218 38.0861 530.965 38.6343C529.738 39.1826 528.289 39.4567 526.619 39.4567Z" fill="black"/>
<path d="M4.28423 76.5819V87.6833C4.28423 89.2441 4.66183 90.402 5.41703 91.1572C6.189 91.9124 7.25467 92.29 8.61403 92.29C9.9566 92.29 11.0055 91.9124 11.7607 91.1572C12.5327 90.402 12.9187 89.2441 12.9187 87.6833V76.5819H15.2094V87.6582C15.2094 89.1182 14.9157 90.3517 14.3284 91.3586C13.741 92.3488 12.9438 93.0872 11.9369 93.5739C10.9467 94.0606 9.83074 94.3039 8.58886 94.3039C7.34697 94.3039 6.22257 94.0606 5.21564 93.5739C4.22549 93.0872 3.43673 92.3488 2.84935 91.3586C2.27876 90.3517 1.99346 89.1182 1.99346 87.6582V76.5819H4.28423ZM25.7521 80.081C27.4303 80.081 28.7897 80.5929 29.8302 81.6166C30.8707 82.6235 31.3909 84.0836 31.3909 85.9967V94.1277H29.1253V86.324C29.1253 84.9478 28.7813 83.899 28.0932 83.1773C27.4051 82.4389 26.4653 82.0697 25.2738 82.0697C24.0655 82.0697 23.1005 82.4473 22.3789 83.2025C21.674 83.9577 21.3216 85.0569 21.3216 86.5002V94.1277H19.0308V80.3327H21.3216V82.2963C21.7747 81.5914 22.3873 81.046 23.1593 80.66C23.948 80.274 24.8123 80.081 25.7521 80.081ZM37.4236 75.4995V94.1277H35.1329V75.4995H37.4236ZM47.3443 94.3542C46.052 94.3542 44.8773 94.0606 43.82 93.4732C42.7795 92.8858 41.9572 92.0551 41.353 90.981C40.7656 89.8902 40.472 88.6315 40.472 87.205C40.472 85.7953 40.774 84.5535 41.3782 83.4794C41.9991 82.3886 42.8382 81.5578 43.8955 80.9872C44.9528 80.3999 46.1359 80.1062 47.4449 80.1062C48.754 80.1062 49.9371 80.3999 50.9944 80.9872C52.0517 81.5578 52.8824 82.3802 53.4865 83.4542C54.1075 84.5283 54.4179 85.7786 54.4179 87.205C54.4179 88.6315 54.0991 89.8902 53.4614 90.981C52.8404 92.0551 51.9929 92.8858 50.9189 93.4732C49.8448 94.0606 48.6533 94.3542 47.3443 94.3542ZM47.3443 92.3404C48.1666 92.3404 48.9386 92.1474 49.6602 91.7614C50.3818 91.3754 50.9608 90.7964 51.3971 90.0244C51.8503 89.2525 52.0768 88.3127 52.0768 87.205C52.0768 86.0974 51.8587 85.1576 51.4223 84.3856C50.986 83.6137 50.4154 83.0431 49.7105 82.6739C49.0057 82.2879 48.2421 82.0949 47.4198 82.0949C46.5807 82.0949 45.8087 82.2879 45.1038 82.6739C44.4158 83.0431 43.862 83.6137 43.4424 84.3856C43.0228 85.1576 42.8131 86.0974 42.8131 87.205C42.8131 88.3294 43.0145 89.2776 43.4172 90.0496C43.8368 90.8216 44.3906 91.4006 45.0787 91.7866C45.7667 92.1558 46.5219 92.3404 47.3443 92.3404ZM56.574 87.205C56.574 85.7786 56.8593 84.5367 57.4299 83.4794C58.0005 82.4053 58.7892 81.5746 59.7962 80.9872C60.8199 80.3999 61.9862 80.1062 63.2952 80.1062C64.9902 80.1062 66.3832 80.5173 67.474 81.3397C68.5816 82.162 69.3117 83.3032 69.6641 84.7632H67.1971C66.9622 83.9241 66.5006 83.2612 65.8126 82.7745C65.1413 82.2879 64.3022 82.0445 63.2952 82.0445C61.9862 82.0445 60.929 82.4976 60.1234 83.4039C59.3179 84.2933 58.9151 85.5604 58.9151 87.205C58.9151 88.8665 59.3179 90.1503 60.1234 91.0565C60.929 91.9628 61.9862 92.4159 63.2952 92.4159C64.3022 92.4159 65.1413 92.181 65.8126 91.7111C66.4839 91.2412 66.9454 90.5699 67.1971 89.6972H69.6641C69.2949 91.1069 68.5565 92.2397 67.4488 93.0956C66.3412 93.9347 64.9567 94.3542 63.2952 94.3542C61.9862 94.3542 60.8199 94.0606 59.7962 93.4732C58.7892 92.8858 58.0005 92.0551 57.4299 90.981C56.8593 89.907 56.574 88.6483 56.574 87.205ZM80.4237 94.1277L75.0114 88.0358V94.1277H72.7207V75.4995H75.0114V86.4498L80.323 80.3327H83.52L77.0253 87.205L83.5452 94.1277H80.4237ZM91.5314 87.1799C91.5314 85.7702 91.8167 84.5367 92.3873 83.4794C92.9579 82.4053 93.7382 81.5746 94.7284 80.9872C95.7353 80.3999 96.8513 80.1062 98.0764 80.1062C99.2847 80.1062 100.334 80.3663 101.223 80.8866C102.113 81.4068 102.775 82.0613 103.212 82.8501V80.3327H105.528V94.1277H103.212V91.56C102.759 92.3656 102.079 93.0368 101.173 93.5739C100.283 94.0941 99.2428 94.3542 98.0513 94.3542C96.8262 94.3542 95.7185 94.0522 94.7284 93.448C93.7382 92.8438 92.9579 91.9964 92.3873 90.9055C91.8167 89.8147 91.5314 88.5728 91.5314 87.1799ZM103.212 87.205C103.212 86.1645 103.002 85.2583 102.582 84.4863C102.163 83.7143 101.592 83.127 100.871 82.7242C100.166 82.3046 99.3854 82.0949 98.5295 82.0949C97.6737 82.0949 96.8933 82.2963 96.1884 82.699C95.4836 83.1018 94.9214 83.6892 94.5018 84.4612C94.0823 85.2331 93.8725 86.1394 93.8725 87.1799C93.8725 88.2371 94.0823 89.1602 94.5018 89.9489C94.9214 90.7209 95.4836 91.3167 96.1884 91.7362C96.8933 92.139 97.6737 92.3404 98.5295 92.3404C99.3854 92.3404 100.166 92.139 100.871 91.7362C101.592 91.3167 102.163 90.7209 102.582 89.9489C103.002 89.1602 103.212 88.2455 103.212 87.205ZM134.487 80.3327L130.182 94.1277H127.816L124.493 83.1773L121.17 94.1277H118.804L114.474 80.3327H116.815L119.987 91.9124L123.41 80.3327H125.751L129.1 91.9376L132.221 80.3327H134.487ZM142.776 94.3542C141.484 94.3542 140.309 94.0606 139.252 93.4732C138.212 92.8858 137.389 92.0551 136.785 90.981C136.198 89.8902 135.904 88.6315 135.904 87.205C135.904 85.7953 136.206 84.5535 136.81 83.4794C137.431 82.3886 138.27 81.5578 139.328 80.9872C140.385 80.3999 141.568 80.1062 142.877 80.1062C144.186 80.1062 145.369 80.3999 146.427 80.9872C147.484 81.5578 148.315 82.3802 148.919 83.4542C149.54 84.5283 149.85 85.7786 149.85 87.205C149.85 88.6315 149.531 89.8902 148.894 90.981C148.273 92.0551 147.425 92.8858 146.351 93.4732C145.277 94.0606 144.085 94.3542 142.776 94.3542ZM142.776 92.3404C143.599 92.3404 144.371 92.1474 145.092 91.7614C145.814 91.3754 146.393 90.7964 146.829 90.0244C147.282 89.2525 147.509 88.3127 147.509 87.205C147.509 86.0974 147.291 85.1576 146.855 84.3856C146.418 83.6137 145.848 83.0431 145.143 82.6739C144.438 82.2879 143.674 82.0949 142.852 82.0949C142.013 82.0949 141.241 82.2879 140.536 82.6739C139.848 83.0431 139.294 83.6137 138.875 84.3856C138.455 85.1576 138.245 86.0974 138.245 87.205C138.245 88.3294 138.447 89.2776 138.849 90.0496C139.269 90.8216 139.823 91.4006 140.511 91.7866C141.199 92.1558 141.954 92.3404 142.776 92.3404ZM155.153 82.5732C155.556 81.7844 156.126 81.1719 156.865 80.7355C157.62 80.2992 158.534 80.081 159.609 80.081V82.4473H159.004C156.437 82.4473 155.153 83.8402 155.153 86.6261V94.1277H152.862V80.3327H155.153V82.5732ZM164.544 75.4995V94.1277H162.253V75.4995H164.544ZM167.592 87.1799C167.592 85.7702 167.877 84.5367 168.448 83.4794C169.018 82.4053 169.799 81.5746 170.789 80.9872C171.796 80.3999 172.92 80.1062 174.162 80.1062C175.236 80.1062 176.235 80.3579 177.158 80.8614C178.081 81.3481 178.786 81.9942 179.272 82.7997V75.4995H181.588V94.1277H179.272V91.5348C178.819 92.3572 178.148 93.0368 177.259 93.5739C176.369 94.0941 175.329 94.3542 174.137 94.3542C172.912 94.3542 171.796 94.0522 170.789 93.448C169.799 92.8438 169.018 91.9964 168.448 90.9055C167.877 89.8147 167.592 88.5728 167.592 87.1799ZM179.272 87.205C179.272 86.1645 179.063 85.2583 178.643 84.4863C178.223 83.7143 177.653 83.127 176.931 82.7242C176.226 82.3046 175.446 82.0949 174.59 82.0949C173.734 82.0949 172.954 82.2963 172.249 82.699C171.544 83.1018 170.982 83.6892 170.562 84.4612C170.143 85.2331 169.933 86.1394 169.933 87.1799C169.933 88.2371 170.143 89.1602 170.562 89.9489C170.982 90.7209 171.544 91.3167 172.249 91.7362C172.954 92.139 173.734 92.3404 174.59 92.3404C175.446 92.3404 176.226 92.139 176.931 91.7362C177.653 91.3167 178.223 90.7209 178.643 89.9489C179.063 89.1602 179.272 88.2455 179.272 87.205ZM198.187 94.3542C196.895 94.3542 195.72 94.0606 194.663 93.4732C193.622 92.8858 192.8 92.0551 192.196 90.981C191.608 89.8902 191.315 88.6315 191.315 87.205C191.315 85.7953 191.617 84.5535 192.221 83.4794C192.842 82.3886 193.681 81.5578 194.738 80.9872C195.796 80.3999 196.979 80.1062 198.288 80.1062C199.597 80.1062 200.78 80.3999 201.837 80.9872C202.895 81.5578 203.725 82.3802 204.329 83.4542C204.95 84.5283 205.261 85.7786 205.261 87.205C205.261 88.6315 204.942 89.8902 204.304 90.981C203.683 92.0551 202.836 92.8858 201.762 93.4732C200.688 94.0606 199.496 94.3542 198.187 94.3542ZM198.187 92.3404C199.009 92.3404 199.781 92.1474 200.503 91.7614C201.225 91.3754 201.804 90.7964 202.24 90.0244C202.693 89.2525 202.92 88.3127 202.92 87.205C202.92 86.0974 202.702 85.1576 202.265 84.3856C201.829 83.6137 201.258 83.0431 200.553 82.6739C199.849 82.2879 199.085 82.0949 198.263 82.0949C197.424 82.0949 196.652 82.2879 195.947 82.6739C195.259 83.0431 194.705 83.6137 194.285 84.3856C193.866 85.1576 193.656 86.0974 193.656 87.205C193.656 88.3294 193.857 89.2776 194.26 90.0496C194.68 90.8216 195.233 91.4006 195.922 91.7866C196.61 92.1558 197.365 92.3404 198.187 92.3404ZM213.886 82.2207H210.991V94.1277H208.701V82.2207H206.913V80.3327H208.701V79.351C208.701 77.807 209.095 76.6826 209.884 75.9778C210.689 75.2561 211.973 74.8953 213.735 74.8953V76.8085C212.728 76.8085 212.015 77.0099 211.596 77.4126C211.193 77.7986 210.991 78.4447 210.991 79.351V80.3327H213.886V82.2207ZM225.559 82.8752C226.012 82.0865 226.684 81.432 227.573 80.9117C228.479 80.3747 229.528 80.1062 230.72 80.1062C231.945 80.1062 233.053 80.3999 234.043 80.9872C235.05 81.5746 235.838 82.4053 236.409 83.4794C236.98 84.5367 237.265 85.7702 237.265 87.1799C237.265 88.5728 236.98 89.8147 236.409 90.9055C235.838 91.9964 235.05 92.8438 234.043 93.448C233.053 94.0522 231.945 94.3542 230.72 94.3542C229.545 94.3542 228.505 94.0941 227.598 93.5739C226.709 93.0368 226.029 92.3739 225.559 91.5852V100.673H223.269V80.3327H225.559V82.8752ZM234.924 87.1799C234.924 86.1394 234.714 85.2331 234.294 84.4612C233.875 83.6892 233.304 83.1018 232.583 82.699C231.878 82.2963 231.097 82.0949 230.242 82.0949C229.402 82.0949 228.622 82.3046 227.9 82.7242C227.196 83.127 226.625 83.7227 226.189 84.5115C225.769 85.2835 225.559 86.1813 225.559 87.205C225.559 88.2455 225.769 89.1602 226.189 89.9489C226.625 90.7209 227.196 91.3167 227.9 91.7362C228.622 92.139 229.402 92.3404 230.242 92.3404C231.097 92.3404 231.878 92.139 232.583 91.7362C233.304 91.3167 233.875 90.7209 234.294 89.9489C234.714 89.1602 234.924 88.2371 234.924 87.1799ZM246.297 94.3542C245.004 94.3542 243.83 94.0606 242.772 93.4732C241.732 92.8858 240.909 92.0551 240.305 90.981C239.718 89.8902 239.424 88.6315 239.424 87.205C239.424 85.7953 239.726 84.5535 240.33 83.4794C240.951 82.3886 241.791 81.5578 242.848 80.9872C243.905 80.3999 245.088 80.1062 246.397 80.1062C247.706 80.1062 248.889 80.3999 249.947 80.9872C251.004 81.5578 251.835 82.3802 252.439 83.4542C253.06 84.5283 253.37 85.7786 253.37 87.205C253.37 88.6315 253.051 89.8902 252.414 90.981C251.793 92.0551 250.945 92.8858 249.871 93.4732C248.797 94.0606 247.606 94.3542 246.297 94.3542ZM246.297 92.3404C247.119 92.3404 247.891 92.1474 248.612 91.7614C249.334 91.3754 249.913 90.7964 250.349 90.0244C250.803 89.2525 251.029 88.3127 251.029 87.205C251.029 86.0974 250.811 85.1576 250.375 84.3856C249.938 83.6137 249.368 83.0431 248.663 82.6739C247.958 82.2879 247.194 82.0949 246.372 82.0949C245.533 82.0949 244.761 82.2879 244.056 82.6739C243.368 83.0431 242.814 83.6137 242.395 84.3856C241.975 85.1576 241.765 86.0974 241.765 87.205C241.765 88.3294 241.967 89.2776 242.37 90.0496C242.789 90.8216 243.343 91.4006 244.031 91.7866C244.719 92.1558 245.474 92.3404 246.297 92.3404ZM261.266 94.3542C260.208 94.3542 259.26 94.178 258.421 93.8256C257.582 93.4564 256.919 92.9529 256.433 92.3152C255.946 91.6607 255.677 90.9139 255.627 90.0748H257.993C258.06 90.7629 258.379 91.3251 258.95 91.7614C259.537 92.1977 260.301 92.4159 261.241 92.4159C262.113 92.4159 262.801 92.2229 263.305 91.8369C263.808 91.4509 264.06 90.9642 264.06 90.3769C264.06 89.7727 263.791 89.328 263.254 89.0427C262.717 88.7406 261.887 88.4469 260.762 88.1616C259.739 87.8931 258.899 87.6246 258.245 87.3561C257.607 87.0708 257.053 86.6596 256.584 86.1226C256.13 85.5688 255.904 84.8471 255.904 83.9577C255.904 83.2528 256.114 82.6067 256.533 82.0194C256.953 81.432 257.549 80.9705 258.32 80.6348C259.092 80.2824 259.974 80.1062 260.964 80.1062C262.491 80.1062 263.724 80.4922 264.664 81.2642C265.604 82.0361 266.107 83.0934 266.175 84.436H263.884C263.833 83.7143 263.54 83.1354 263.003 82.699C262.482 82.2627 261.778 82.0445 260.888 82.0445C260.066 82.0445 259.411 82.2207 258.925 82.5732C258.438 82.9256 258.195 83.3871 258.195 83.9577C258.195 84.4108 258.337 84.7884 258.623 85.0905C258.925 85.3758 259.294 85.6107 259.73 85.7953C260.183 85.9632 260.804 86.1562 261.593 86.3743C262.583 86.6428 263.389 86.9114 264.01 87.1799C264.631 87.4316 265.159 87.8176 265.596 88.3378C266.049 88.8581 266.284 89.5378 266.3 90.3769C266.3 91.1321 266.091 91.8117 265.671 92.4159C265.252 93.0201 264.656 93.4984 263.884 93.8508C263.129 94.1864 262.256 94.3542 261.266 94.3542ZM274.418 94.3542C273.361 94.3542 272.412 94.178 271.573 93.8256C270.734 93.4564 270.071 92.9529 269.585 92.3152C269.098 91.6607 268.829 90.9139 268.779 90.0748H271.145C271.212 90.7629 271.531 91.3251 272.102 91.7614C272.689 92.1977 273.453 92.4159 274.393 92.4159C275.265 92.4159 275.953 92.2229 276.457 91.8369C276.96 91.4509 277.212 90.9642 277.212 90.3769C277.212 89.7727 276.944 89.328 276.406 89.0427C275.869 88.7406 275.039 88.4469 273.914 88.1616C272.891 87.8931 272.052 87.6246 271.397 87.3561C270.759 87.0708 270.205 86.6596 269.736 86.1226C269.282 85.5688 269.056 84.8471 269.056 83.9577C269.056 83.2528 269.266 82.6067 269.685 82.0194C270.105 81.432 270.701 80.9705 271.473 80.6348C272.245 80.2824 273.126 80.1062 274.116 80.1062C275.643 80.1062 276.876 80.4922 277.816 81.2642C278.756 82.0361 279.259 83.0934 279.327 84.436H277.036C276.985 83.7143 276.692 83.1354 276.155 82.699C275.635 82.2627 274.93 82.0445 274.04 82.0445C273.218 82.0445 272.563 82.2207 272.077 82.5732C271.59 82.9256 271.347 83.3871 271.347 83.9577C271.347 84.4108 271.489 84.7884 271.775 85.0905C272.077 85.3758 272.446 85.6107 272.882 85.7953C273.335 85.9632 273.956 86.1562 274.745 86.3743C275.735 86.6428 276.541 86.9114 277.162 87.1799C277.783 87.4316 278.311 87.8176 278.748 88.3378C279.201 88.8581 279.436 89.5378 279.452 90.3769C279.452 91.1321 279.243 91.8117 278.823 92.4159C278.404 93.0201 277.808 93.4984 277.036 93.8508C276.281 94.1864 275.408 94.3542 274.418 94.3542ZM283.869 78.0923C283.433 78.0923 283.064 77.9413 282.762 77.6392C282.46 77.3371 282.309 76.9679 282.309 76.5316C282.309 76.0952 282.46 75.726 282.762 75.424C283.064 75.1219 283.433 74.9708 283.869 74.9708C284.289 74.9708 284.641 75.1219 284.927 75.424C285.229 75.726 285.38 76.0952 285.38 76.5316C285.38 76.9679 285.229 77.3371 284.927 77.6392C284.641 77.9413 284.289 78.0923 283.869 78.0923ZM284.977 80.3327V94.1277H282.686V80.3327H284.977ZM291.172 82.9004C291.642 82.0781 292.33 81.4068 293.236 80.8866C294.142 80.3663 295.175 80.1062 296.332 80.1062C297.574 80.1062 298.69 80.3999 299.681 80.9872C300.671 81.5746 301.451 82.4053 302.022 83.4794C302.592 84.5367 302.878 85.7702 302.878 87.1799C302.878 88.5728 302.592 89.8147 302.022 90.9055C301.451 91.9964 300.662 92.8438 299.655 93.448C298.665 94.0522 297.558 94.3542 296.332 94.3542C295.141 94.3542 294.092 94.0941 293.186 93.5739C292.296 93.0536 291.625 92.3907 291.172 91.5852V94.1277H288.881V75.4995H291.172V82.9004ZM300.536 87.1799C300.536 86.1394 300.327 85.2331 299.907 84.4612C299.488 83.6892 298.917 83.1018 298.195 82.699C297.49 82.2963 296.71 82.0949 295.854 82.0949C295.015 82.0949 294.235 82.3046 293.513 82.7242C292.808 83.127 292.238 83.7227 291.801 84.5115C291.382 85.2835 291.172 86.1813 291.172 87.205C291.172 88.2455 291.382 89.1602 291.801 89.9489C292.238 90.7209 292.808 91.3167 293.513 91.7362C294.235 92.139 295.015 92.3404 295.854 92.3404C296.71 92.3404 297.49 92.139 298.195 91.7362C298.917 91.3167 299.488 90.7209 299.907 89.9489C300.327 89.1602 300.536 88.2371 300.536 87.1799ZM307.076 78.0923C306.64 78.0923 306.27 77.9413 305.968 77.6392C305.666 77.3371 305.515 76.9679 305.515 76.5316C305.515 76.0952 305.666 75.726 305.968 75.424C306.27 75.1219 306.64 74.9708 307.076 74.9708C307.496 74.9708 307.848 75.1219 308.133 75.424C308.435 75.726 308.586 76.0952 308.586 76.5316C308.586 76.9679 308.435 77.3371 308.133 77.6392C307.848 77.9413 307.496 78.0923 307.076 78.0923ZM308.184 80.3327V94.1277H305.893V80.3327H308.184ZM314.379 75.4995V94.1277H312.088V75.4995H314.379ZM319.466 78.0923C319.03 78.0923 318.66 77.9413 318.358 77.6392C318.056 77.3371 317.905 76.9679 317.905 76.5316C317.905 76.0952 318.056 75.726 318.358 75.424C318.66 75.1219 319.03 74.9708 319.466 74.9708C319.885 74.9708 320.238 75.1219 320.523 75.424C320.825 75.726 320.976 76.0952 320.976 76.5316C320.976 76.9679 320.825 77.3371 320.523 77.6392C320.238 77.9413 319.885 78.0923 319.466 78.0923ZM320.574 80.3327V94.1277H318.283V80.3327H320.574ZM327.272 82.2207V90.3517C327.272 91.023 327.415 91.5013 327.7 91.7866C327.985 92.0551 328.48 92.1893 329.185 92.1893H330.872V94.1277H328.808C327.532 94.1277 326.576 93.834 325.938 93.2466C325.3 92.6592 324.981 91.6943 324.981 90.3517V82.2207H323.194V80.3327H324.981V76.8588H327.272V80.3327H330.872V82.2207H327.272ZM334.83 78.0923C334.394 78.0923 334.025 77.9413 333.723 77.6392C333.421 77.3371 333.27 76.9679 333.27 76.5316C333.27 76.0952 333.421 75.726 333.723 75.424C334.025 75.1219 334.394 74.9708 334.83 74.9708C335.25 74.9708 335.602 75.1219 335.888 75.424C336.19 75.726 336.341 76.0952 336.341 76.5316C336.341 76.9679 336.19 77.3371 335.888 77.6392C335.602 77.9413 335.25 78.0923 334.83 78.0923ZM335.938 80.3327V94.1277H333.647V80.3327H335.938ZM352.429 86.7016C352.429 87.1379 352.404 87.5994 352.353 88.0861H341.328C341.411 89.4455 341.873 90.5111 342.712 91.2831C343.568 92.0383 344.6 92.4159 345.808 92.4159C346.799 92.4159 347.621 92.1893 348.275 91.7362C348.947 91.2663 349.417 90.6454 349.685 89.8734H352.152C351.783 91.1992 351.044 92.2816 349.937 93.1208C348.829 93.9431 347.453 94.3542 345.808 94.3542C344.499 94.3542 343.325 94.0606 342.284 93.4732C341.26 92.8858 340.455 92.0551 339.867 90.981C339.28 89.8902 338.986 88.6315 338.986 87.205C338.986 85.7786 339.272 84.5283 339.842 83.4542C340.413 82.3802 341.21 81.5578 342.234 80.9872C343.274 80.3999 344.466 80.1062 345.808 80.1062C347.117 80.1062 348.275 80.3915 349.282 80.9621C350.289 81.5327 351.061 82.3214 351.598 83.3284C352.152 84.3185 352.429 85.4429 352.429 86.7016ZM350.063 86.2233C350.063 85.3506 349.87 84.6038 349.484 83.9829C349.098 83.3451 348.569 82.8669 347.898 82.548C347.243 82.2123 346.513 82.0445 345.708 82.0445C344.55 82.0445 343.56 82.4137 342.737 83.1521C341.932 83.8906 341.47 84.9143 341.353 86.2233H350.063ZM360.336 94.3542C359.279 94.3542 358.331 94.178 357.492 93.8256C356.653 93.4564 355.99 92.9529 355.503 92.3152C355.016 91.6607 354.748 90.9139 354.697 90.0748H357.064C357.131 90.7629 357.45 91.3251 358.02 91.7614C358.608 92.1977 359.371 92.4159 360.311 92.4159C361.184 92.4159 361.872 92.2229 362.375 91.8369C362.879 91.4509 363.131 90.9642 363.131 90.3769C363.131 89.7727 362.862 89.328 362.325 89.0427C361.788 88.7406 360.957 88.4469 359.833 88.1616C358.809 87.8931 357.97 87.6246 357.316 87.3561C356.678 87.0708 356.124 86.6596 355.654 86.1226C355.201 85.5688 354.974 84.8471 354.974 83.9577C354.974 83.2528 355.184 82.6067 355.604 82.0194C356.023 81.432 356.619 80.9705 357.391 80.6348C358.163 80.2824 359.044 80.1062 360.034 80.1062C361.561 80.1062 362.795 80.4922 363.735 81.2642C364.674 82.0361 365.178 83.0934 365.245 84.436H362.954C362.904 83.7143 362.61 83.1354 362.073 82.699C361.553 82.2627 360.848 82.0445 359.959 82.0445C359.136 82.0445 358.482 82.2207 357.995 82.5732C357.508 82.9256 357.265 83.3871 357.265 83.9577C357.265 84.4108 357.408 84.7884 357.693 85.0905C357.995 85.3758 358.364 85.6107 358.801 85.7953C359.254 85.9632 359.875 86.1562 360.664 86.3743C361.654 86.6428 362.459 86.9114 363.08 87.1799C363.701 87.4316 364.23 87.8176 364.666 88.3378C365.119 88.8581 365.354 89.5378 365.371 90.3769C365.371 91.1321 365.161 91.8117 364.742 92.4159C364.322 93.0201 363.726 93.4984 362.954 93.8508C362.199 94.1864 361.326 94.3542 360.336 94.3542ZM393.692 80.3327L389.388 94.1277H387.021L383.699 83.1773L380.376 94.1277H378.009L373.68 80.3327H376.021L379.193 91.9124L382.616 80.3327H384.957L388.305 91.9376L391.427 80.3327H393.692ZM397.149 78.0923C396.713 78.0923 396.343 77.9413 396.041 77.6392C395.739 77.3371 395.588 76.9679 395.588 76.5316C395.588 76.0952 395.739 75.726 396.041 75.424C396.343 75.1219 396.713 74.9708 397.149 74.9708C397.569 74.9708 397.921 75.1219 398.206 75.424C398.508 75.726 398.659 76.0952 398.659 76.5316C398.659 76.9679 398.508 77.3371 398.206 77.6392C397.921 77.9413 397.569 78.0923 397.149 78.0923ZM398.257 80.3327V94.1277H395.966V80.3327H398.257ZM404.955 82.2207V90.3517C404.955 91.023 405.098 91.5013 405.383 91.7866C405.668 92.0551 406.163 92.1893 406.868 92.1893H408.555V94.1277H406.491C405.215 94.1277 404.259 93.834 403.621 93.2466C402.983 92.6592 402.664 91.6943 402.664 90.3517V82.2207H400.877V80.3327H402.664V76.8588H404.955V80.3327H408.555V82.2207H404.955ZM418.178 80.081C419.218 80.081 420.158 80.3076 420.997 80.7607C421.836 81.197 422.491 81.8599 422.96 82.7494C423.447 83.6388 423.69 84.7213 423.69 85.9967V94.1277H421.425V86.324C421.425 84.9478 421.081 83.899 420.393 83.1773C419.705 82.4389 418.765 82.0697 417.573 82.0697C416.365 82.0697 415.4 82.4473 414.678 83.2025C413.974 83.9577 413.621 85.0569 413.621 86.5002V94.1277H411.33V75.4995H413.621V82.2963C414.074 81.5914 414.695 81.046 415.484 80.66C416.29 80.274 417.187 80.081 418.178 80.081ZM440.16 94.3542C438.868 94.3542 437.693 94.0606 436.636 93.4732C435.595 92.8858 434.773 92.0551 434.169 90.981C433.581 89.8902 433.288 88.6315 433.288 87.205C433.288 85.7953 433.59 84.5535 434.194 83.4794C434.815 82.3886 435.654 81.5578 436.711 80.9872C437.769 80.3999 438.952 80.1062 440.261 80.1062C441.57 80.1062 442.753 80.3999 443.81 80.9872C444.867 81.5578 445.698 82.3802 446.302 83.4542C446.923 84.5283 447.234 85.7786 447.234 87.205C447.234 88.6315 446.915 89.8902 446.277 90.981C445.656 92.0551 444.809 92.8858 443.735 93.4732C442.661 94.0606 441.469 94.3542 440.16 94.3542ZM440.16 92.3404C440.982 92.3404 441.754 92.1474 442.476 91.7614C443.198 91.3754 443.777 90.7964 444.213 90.0244C444.666 89.2525 444.893 88.3127 444.893 87.205C444.893 86.0974 444.674 85.1576 444.238 84.3856C443.802 83.6137 443.231 83.0431 442.526 82.6739C441.822 82.2879 441.058 82.0949 440.236 82.0949C439.396 82.0949 438.625 82.2879 437.92 82.6739C437.232 83.0431 436.678 83.6137 436.258 84.3856C435.839 85.1576 435.629 86.0974 435.629 87.205C435.629 88.3294 435.83 89.2776 436.233 90.0496C436.653 90.8216 437.206 91.4006 437.894 91.7866C438.583 92.1558 439.338 92.3404 440.16 92.3404ZM462.48 80.3327V94.1277H460.189V92.0887C459.753 92.7935 459.14 93.3473 458.351 93.7501C457.579 94.1361 456.724 94.3291 455.784 94.3291C454.71 94.3291 453.745 94.1109 452.889 93.6746C452.033 93.2214 451.353 92.5502 450.85 91.6607C450.363 90.7713 450.12 89.6888 450.12 88.4134V80.3327H452.385V88.1113C452.385 89.4706 452.729 90.5195 453.418 91.2579C454.106 91.9796 455.045 92.3404 456.237 92.3404C457.462 92.3404 458.427 91.9628 459.132 91.2076C459.837 90.4524 460.189 89.3532 460.189 87.9099V80.3327H462.48ZM468.638 82.5732C469.041 81.7844 469.612 81.1719 470.35 80.7355C471.105 80.2992 472.02 80.081 473.094 80.081V82.4473H472.49C469.922 82.4473 468.638 83.8402 468.638 86.6261V94.1277H466.348V80.3327H468.638V82.5732ZM481.594 87.1799C481.594 85.7702 481.879 84.5367 482.45 83.4794C483.02 82.4053 483.801 81.5746 484.791 80.9872C485.798 80.3999 486.922 80.1062 488.164 80.1062C489.238 80.1062 490.237 80.3579 491.16 80.8614C492.083 81.3481 492.788 81.9942 493.274 82.7997V75.4995H495.59V94.1277H493.274V91.5348C492.821 92.3572 492.15 93.0368 491.26 93.5739C490.371 94.0941 489.33 94.3542 488.139 94.3542C486.914 94.3542 485.798 94.0522 484.791 93.448C483.801 92.8438 483.02 91.9964 482.45 90.9055C481.879 89.8147 481.594 88.5728 481.594 87.1799ZM493.274 87.205C493.274 86.1645 493.064 85.2583 492.645 84.4863C492.225 83.7143 491.655 83.127 490.933 82.7242C490.228 82.3046 489.448 82.0949 488.592 82.0949C487.736 82.0949 486.956 82.2963 486.251 82.699C485.546 83.1018 484.984 83.6892 484.564 84.4612C484.145 85.2331 483.935 86.1394 483.935 87.1799C483.935 88.2371 484.145 89.1602 484.564 89.9489C484.984 90.7209 485.546 91.3167 486.251 91.7362C486.956 92.139 487.736 92.3404 488.592 92.3404C489.448 92.3404 490.228 92.139 490.933 91.7362C491.655 91.3167 492.225 90.7209 492.645 89.9489C493.064 89.1602 493.274 88.2455 493.274 87.205ZM500.645 78.0923C500.208 78.0923 499.839 77.9413 499.537 77.6392C499.235 77.3371 499.084 76.9679 499.084 76.5316C499.084 76.0952 499.235 75.726 499.537 75.424C499.839 75.1219 500.208 74.9708 500.645 74.9708C501.064 74.9708 501.417 75.1219 501.702 75.424C502.004 75.726 502.155 76.0952 502.155 76.5316C502.155 76.9679 502.004 77.3371 501.702 77.6392C501.417 77.9413 501.064 78.0923 500.645 78.0923ZM501.752 80.3327V94.1277H499.461V80.3327H501.752ZM510.792 92.0131L515.071 80.3327H517.513L512.101 94.1277H509.432L504.02 80.3327H506.487L510.792 92.0131ZM532.354 86.7016C532.354 87.1379 532.329 87.5994 532.278 88.0861H521.252C521.336 89.4455 521.798 90.5111 522.637 91.2831C523.493 92.0383 524.525 92.4159 525.733 92.4159C526.723 92.4159 527.546 92.1893 528.2 91.7362C528.871 91.2663 529.341 90.6454 529.61 89.8734H532.077C531.708 91.1992 530.969 92.2816 529.862 93.1208C528.754 93.9431 527.378 94.3542 525.733 94.3542C524.424 94.3542 523.249 94.0606 522.209 93.4732C521.185 92.8858 520.38 92.0551 519.792 90.981C519.205 89.8902 518.911 88.6315 518.911 87.205C518.911 85.7786 519.197 84.5283 519.767 83.4542C520.338 82.3802 521.135 81.5578 522.159 80.9872C523.199 80.3999 524.391 80.1062 525.733 80.1062C527.042 80.1062 528.2 80.3915 529.207 80.9621C530.214 81.5327 530.986 82.3214 531.523 83.3284C532.077 84.3185 532.354 85.4429 532.354 86.7016ZM529.987 86.2233C529.987 85.3506 529.794 84.6038 529.408 83.9829C529.023 83.3451 528.494 82.8669 527.823 82.548C527.168 82.2123 526.438 82.0445 525.633 82.0445C524.475 82.0445 523.484 82.4137 522.662 83.1521C521.857 83.8906 521.395 84.9143 521.278 86.2233H529.987ZM537.668 82.5732C538.071 81.7844 538.642 81.1719 539.38 80.7355C540.135 80.2992 541.05 80.081 542.124 80.081V82.4473H541.52C538.952 82.4473 537.668 83.8402 537.668 86.6261V94.1277H535.377V80.3327H537.668V82.5732ZM549.652 94.3542C548.595 94.3542 547.646 94.178 546.807 93.8256C545.968 93.4564 545.305 92.9529 544.819 92.3152C544.332 91.6607 544.063 90.9139 544.013 90.0748H546.379C546.447 90.7629 546.765 91.3251 547.336 91.7614C547.923 92.1977 548.687 92.4159 549.627 92.4159C550.499 92.4159 551.187 92.2229 551.691 91.8369C552.194 91.4509 552.446 90.9642 552.446 90.3769C552.446 89.7727 552.178 89.328 551.641 89.0427C551.104 88.7406 550.273 88.4469 549.148 88.1616C548.125 87.8931 547.286 87.6246 546.631 87.3561C545.993 87.0708 545.44 86.6596 544.97 86.1226C544.517 85.5688 544.29 84.8471 544.29 83.9577C544.29 83.2528 544.5 82.6067 544.919 82.0194C545.339 81.432 545.935 80.9705 546.707 80.6348C547.479 80.2824 548.36 80.1062 549.35 80.1062C550.877 80.1062 552.11 80.4922 553.05 81.2642C553.99 82.0361 554.494 83.0934 554.561 84.436H552.27C552.22 83.7143 551.926 83.1354 551.389 82.699C550.869 82.2627 550.164 82.0445 549.274 82.0445C548.452 82.0445 547.797 82.2207 547.311 82.5732C546.824 82.9256 546.581 83.3871 546.581 83.9577C546.581 84.4108 546.723 84.7884 547.009 85.0905C547.311 85.3758 547.68 85.6107 548.116 85.7953C548.569 85.9632 549.19 86.1562 549.979 86.3743C550.969 86.6428 551.775 86.9114 552.396 87.1799C553.017 87.4316 553.545 87.8176 553.982 88.3378C554.435 88.8581 554.67 89.5378 554.687 90.3769C554.687 91.1321 554.477 91.8117 554.057 92.4159C553.638 93.0201 553.042 93.4984 552.27 93.8508C551.515 94.1864 550.642 94.3542 549.652 94.3542ZM570.507 86.7016C570.507 87.1379 570.482 87.5994 570.431 88.0861H559.406C559.489 89.4455 559.951 90.5111 560.79 91.2831C561.646 92.0383 562.678 92.4159 563.886 92.4159C564.877 92.4159 565.699 92.1893 566.353 91.7362C567.025 91.2663 567.495 90.6454 567.763 89.8734H570.23C569.861 91.1992 569.122 92.2816 568.015 93.1208C566.907 93.9431 565.531 94.3542 563.886 94.3542C562.577 94.3542 561.403 94.0606 560.362 93.4732C559.338 92.8858 558.533 92.0551 557.946 90.981C557.358 89.8902 557.064 88.6315 557.064 87.205C557.064 85.7786 557.35 84.5283 557.92 83.4542C558.491 82.3802 559.288 81.5578 560.312 80.9872C561.352 80.3999 562.544 80.1062 563.886 80.1062C565.195 80.1062 566.353 80.3915 567.36 80.9621C568.367 81.5327 569.139 82.3214 569.676 83.3284C570.23 84.3185 570.507 85.4429 570.507 86.7016ZM568.141 86.2233C568.141 85.3506 567.948 84.6038 567.562 83.9829C567.176 83.3451 566.647 82.8669 565.976 82.548C565.321 82.2123 564.591 82.0445 563.786 82.0445C562.628 82.0445 561.638 82.4137 560.815 83.1521C560.01 83.8906 559.548 84.9143 559.431 86.2233H568.141ZM582.533 82.8752C582.986 82.0865 583.657 81.432 584.547 80.9117C585.453 80.3747 586.502 80.1062 587.693 80.1062C588.918 80.1062 590.026 80.3999 591.016 80.9872C592.023 81.5746 592.812 82.4053 593.382 83.4794C593.953 84.5367 594.238 85.7702 594.238 87.1799C594.238 88.5728 593.953 89.8147 593.382 90.9055C592.812 91.9964 592.023 92.8438 591.016 93.448C590.026 94.0522 588.918 94.3542 587.693 94.3542C586.518 94.3542 585.478 94.0941 584.572 93.5739C583.682 93.0368 583.003 92.3739 582.533 91.5852V100.673H580.242V80.3327H582.533V82.8752ZM591.897 87.1799C591.897 86.1394 591.687 85.2331 591.268 84.4612C590.848 83.6892 590.278 83.1018 589.556 82.699C588.851 82.2963 588.071 82.0949 587.215 82.0949C586.376 82.0949 585.595 82.3046 584.874 82.7242C584.169 83.127 583.598 83.7227 583.162 84.5115C582.742 85.2835 582.533 86.1813 582.533 87.205C582.533 88.2455 582.742 89.1602 583.162 89.9489C583.598 90.7209 584.169 91.3167 584.874 91.7362C585.595 92.139 586.376 92.3404 587.215 92.3404C588.071 92.3404 588.851 92.139 589.556 91.7362C590.278 91.3167 590.848 90.7209 591.268 89.9489C591.687 89.1602 591.897 88.2371 591.897 87.1799ZM603.27 94.3542C601.978 94.3542 600.803 94.0606 599.746 93.4732C598.705 92.8858 597.883 92.0551 597.279 90.981C596.691 89.8902 596.398 88.6315 596.398 87.205C596.398 85.7953 596.7 84.5535 597.304 83.4794C597.925 82.3886 598.764 81.5578 599.821 80.9872C600.878 80.3999 602.062 80.1062 603.371 80.1062C604.68 80.1062 605.863 80.3999 606.92 80.9872C607.977 81.5578 608.808 82.3802 609.412 83.4542C610.033 84.5283 610.344 85.7786 610.344 87.205C610.344 88.6315 610.025 89.8902 609.387 90.981C608.766 92.0551 607.919 92.8858 606.845 93.4732C605.77 94.0606 604.579 94.3542 603.27 94.3542ZM603.27 92.3404C604.092 92.3404 604.864 92.1474 605.586 91.7614C606.308 91.3754 606.886 90.7964 607.323 90.0244C607.776 89.2525 608.003 88.3127 608.003 87.205C608.003 86.0974 607.784 85.1576 607.348 84.3856C606.912 83.6137 606.341 83.0431 605.636 82.6739C604.931 82.2879 604.168 82.0949 603.345 82.0949C602.506 82.0949 601.734 82.2879 601.03 82.6739C600.341 83.0431 599.788 83.6137 599.368 84.3856C598.949 85.1576 598.739 86.0974 598.739 87.205C598.739 88.3294 598.94 89.2776 599.343 90.0496C599.762 90.8216 600.316 91.4006 601.004 91.7866C601.692 92.1558 602.448 92.3404 603.27 92.3404ZM619.372 94.3542C618.08 94.3542 616.905 94.0606 615.848 93.4732C614.807 92.8858 613.985 92.0551 613.381 90.981C612.793 89.8902 612.5 88.6315 612.5 87.205C612.5 85.7953 612.802 84.5535 613.406 83.4794C614.027 82.3886 614.866 81.5578 615.923 80.9872C616.981 80.3999 618.164 80.1062 619.473 80.1062C620.782 80.1062 621.965 80.3999 623.022 80.9872C624.079 81.5578 624.91 82.3802 625.514 83.4542C626.135 84.5283 626.446 85.7786 626.446 87.205C626.446 88.6315 626.127 89.8902 625.489 90.981C624.868 92.0551 624.021 92.8858 622.947 93.4732C621.873 94.0606 620.681 94.3542 619.372 94.3542ZM619.372 92.3404C620.194 92.3404 620.966 92.1474 621.688 91.7614C622.41 91.3754 622.989 90.7964 623.425 90.0244C623.878 89.2525 624.105 88.3127 624.105 87.205C624.105 86.0974 623.886 85.1576 623.45 84.3856C623.014 83.6137 622.443 83.0431 621.738 82.6739C621.033 82.2879 620.27 82.0949 619.448 82.0949C618.608 82.0949 617.836 82.2879 617.132 82.6739C616.443 83.0431 615.89 83.6137 615.47 84.3856C615.051 85.1576 614.841 86.0974 614.841 87.205C614.841 88.3294 615.042 89.2776 615.445 90.0496C615.865 90.8216 616.418 91.4006 617.106 91.7866C617.794 92.1558 618.55 92.3404 619.372 92.3404ZM631.748 75.4995V94.1277H629.458V75.4995H631.748ZM648.38 94.3542C647.088 94.3542 645.913 94.0606 644.856 93.4732C643.815 92.8858 642.993 92.0551 642.389 90.981C641.802 89.8902 641.508 88.6315 641.508 87.205C641.508 85.7953 641.81 84.5535 642.414 83.4794C643.035 82.3886 643.874 81.5578 644.931 80.9872C645.989 80.3999 647.172 80.1062 648.481 80.1062C649.79 80.1062 650.973 80.3999 652.03 80.9872C653.088 81.5578 653.918 82.3802 654.522 83.4542C655.143 84.5283 655.454 85.7786 655.454 87.205C655.454 88.6315 655.135 89.8902 654.497 90.981C653.876 92.0551 653.029 92.8858 651.955 93.4732C650.881 94.0606 649.689 94.3542 648.38 94.3542ZM648.38 92.3404C649.203 92.3404 649.975 92.1474 650.696 91.7614C651.418 91.3754 651.997 90.7964 652.433 90.0244C652.886 89.2525 653.113 88.3127 653.113 87.205C653.113 86.0974 652.895 85.1576 652.458 84.3856C652.022 83.6137 651.451 83.0431 650.747 82.6739C650.042 82.2879 649.278 82.0949 648.456 82.0949C647.617 82.0949 646.845 82.2879 646.14 82.6739C645.452 83.0431 644.898 83.6137 644.478 84.3856C644.059 85.1576 643.849 86.0974 643.849 87.205C643.849 88.3294 644.05 89.2776 644.453 90.0496C644.873 90.8216 645.427 91.4006 646.115 91.7866C646.803 92.1558 647.558 92.3404 648.38 92.3404ZM664.08 82.2207H661.185V94.1277H658.894V82.2207H657.107V80.3327H658.894V79.351C658.894 77.807 659.288 76.6826 660.077 75.9778C660.882 75.2561 662.166 74.8953 663.928 74.8953V76.8085C662.922 76.8085 662.208 77.0099 661.789 77.4126C661.386 77.7986 661.185 78.4447 661.185 79.351V80.3327H664.08V82.2207ZM4.83804 122.221V130.352C4.83804 131.023 4.98069 131.501 5.26599 131.787C5.55128 132.055 6.04636 132.189 6.75121 132.189H8.43782V134.128H6.37361C5.09816 134.128 4.14158 133.834 3.50386 133.247C2.86614 132.659 2.54727 131.694 2.54727 130.352V122.221H0.759973V120.333H2.54727V116.859H4.83804V120.333H8.43782V122.221H4.83804ZM10.3575 127.18C10.3575 125.77 10.6428 124.537 11.2134 123.479C11.784 122.405 12.5643 121.575 13.5545 120.987C14.5614 120.4 15.6774 120.106 16.9025 120.106C18.1108 120.106 19.1597 120.366 20.0492 120.887C20.9386 121.407 21.6015 122.061 22.0379 122.85V120.333H24.3538V134.128H22.0379V131.56C21.5847 132.366 20.9051 133.037 19.9988 133.574C19.1094 134.094 18.0689 134.354 16.8773 134.354C15.6522 134.354 14.5446 134.052 13.5545 133.448C12.5643 132.844 11.784 131.996 11.2134 130.906C10.6428 129.815 10.3575 128.573 10.3575 127.18ZM22.0379 127.205C22.0379 126.165 21.8281 125.258 21.4085 124.486C20.989 123.714 20.4184 123.127 19.6967 122.724C18.9919 122.305 18.2115 122.095 17.3556 122.095C16.4997 122.095 15.7194 122.296 15.0145 122.699C14.3097 123.102 13.7475 123.689 13.3279 124.461C12.9084 125.233 12.6986 126.139 12.6986 127.18C12.6986 128.237 12.9084 129.16 13.3279 129.949C13.7475 130.721 14.3097 131.317 15.0145 131.736C15.7194 132.139 16.4997 132.34 17.3556 132.34C18.2115 132.34 18.9919 132.139 19.6967 131.736C20.4184 131.317 20.989 130.721 21.4085 129.949C21.8281 129.16 22.0379 128.246 22.0379 127.205ZM30.5157 115.499V134.128H28.225V115.499H30.5157ZM47.0066 126.702C47.0066 127.138 46.9814 127.599 46.9311 128.086H35.9052C35.9891 129.445 36.4506 130.511 37.2897 131.283C38.1456 132.038 39.1777 132.416 40.386 132.416C41.3762 132.416 42.1985 132.189 42.853 131.736C43.5243 131.266 43.9942 130.645 44.2627 129.873H46.7297C46.3605 131.199 45.6221 132.282 44.5144 133.121C43.4068 133.943 42.0307 134.354 40.386 134.354C39.077 134.354 37.9023 134.061 36.8618 133.473C35.838 132.886 35.0325 132.055 34.4451 130.981C33.8578 129.89 33.5641 128.632 33.5641 127.205C33.5641 125.779 33.8494 124.528 34.42 123.454C34.9905 122.38 35.7877 121.558 36.8114 120.987C37.8519 120.4 39.0434 120.106 40.386 120.106C41.695 120.106 42.853 120.391 43.8599 120.962C44.8669 121.533 45.6388 122.321 46.1759 123.328C46.7297 124.319 47.0066 125.443 47.0066 126.702ZM44.6403 126.223C44.6403 125.351 44.4473 124.604 44.0613 123.983C43.6753 123.345 43.1467 122.867 42.4754 122.548C41.8209 122.212 41.0909 122.045 40.2853 122.045C39.1274 122.045 38.1372 122.414 37.3149 123.152C36.5093 123.891 36.0478 124.914 35.9303 126.223H44.6403ZM56.7516 120.081C58.4298 120.081 59.7892 120.593 60.8296 121.617C61.8701 122.624 62.3904 124.084 62.3904 125.997V134.128H60.1248V126.324C60.1248 124.948 59.7808 123.899 59.0927 123.177C58.4046 122.439 57.4648 122.07 56.2733 122.07C55.065 122.07 54.1 122.447 53.3784 123.202C52.6735 123.958 52.3211 125.057 52.3211 126.5V134.128H50.0303V120.333H52.3211V122.296C52.7742 121.591 53.3868 121.046 54.1587 120.66C54.9475 120.274 55.8118 120.081 56.7516 120.081ZM68.9266 122.221V130.352C68.9266 131.023 69.0692 131.501 69.3545 131.787C69.6398 132.055 70.1349 132.189 70.8398 132.189H72.5264V134.128H70.4622C69.1867 134.128 68.2301 133.834 67.5924 133.247C66.9547 132.659 66.6358 131.694 66.6358 130.352V122.221H64.8485V120.333H66.6358V116.859H68.9266V120.333H72.5264V122.221H68.9266ZM87.8885 126.702C87.8885 127.138 87.8634 127.599 87.813 128.086H76.7871C76.871 129.445 77.3325 130.511 78.1717 131.283C79.0275 132.038 80.0596 132.416 81.268 132.416C82.2581 132.416 83.0804 132.189 83.7349 131.736C84.4062 131.266 84.8761 130.645 85.1446 129.873H87.6116C87.2424 131.199 86.504 132.282 85.3964 133.121C84.2888 133.943 82.9126 134.354 81.268 134.354C79.959 134.354 78.7842 134.061 77.7437 133.473C76.72 132.886 75.9145 132.055 75.3271 130.981C74.7397 129.89 74.446 128.632 74.446 127.205C74.446 125.779 74.7313 124.528 75.3019 123.454C75.8725 122.38 76.6697 121.558 77.6934 120.987C78.7339 120.4 79.9254 120.106 81.268 120.106C82.577 120.106 83.7349 120.391 84.7419 120.962C85.7488 121.533 86.5208 122.321 87.0578 123.328C87.6116 124.319 87.8885 125.443 87.8885 126.702ZM85.5222 126.223C85.5222 125.351 85.3292 124.604 84.9433 123.983C84.5573 123.345 84.0286 122.867 83.3573 122.548C82.7028 122.212 81.9728 122.045 81.1673 122.045C80.0093 122.045 79.0192 122.414 78.1968 123.152C77.3913 123.891 76.9298 124.914 76.8123 126.223H85.5222ZM90.0564 127.18C90.0564 125.77 90.3417 124.537 90.9123 123.479C91.4829 122.405 92.2632 121.575 93.2534 120.987C94.2603 120.4 95.3847 120.106 96.6266 120.106C97.7007 120.106 98.6992 120.358 99.6222 120.861C100.545 121.348 101.25 121.994 101.737 122.8V115.499H104.053V134.128H101.737V131.535C101.284 132.357 100.612 133.037 99.7229 133.574C98.8335 134.094 97.793 134.354 96.6014 134.354C95.3763 134.354 94.2603 134.052 93.2534 133.448C92.2632 132.844 91.4829 131.996 90.9123 130.906C90.3417 129.815 90.0564 128.573 90.0564 127.18ZM101.737 127.205C101.737 126.165 101.527 125.258 101.107 124.486C100.688 123.714 100.117 123.127 99.3957 122.724C98.6908 122.305 97.9104 122.095 97.0545 122.095C96.1987 122.095 95.4183 122.296 94.7134 122.699C94.0086 123.102 93.4464 123.689 93.0268 124.461C92.6073 125.233 92.3975 126.139 92.3975 127.18C92.3975 128.237 92.6073 129.16 93.0268 129.949C93.4464 130.721 94.0086 131.317 94.7134 131.736C95.4183 132.139 96.1987 132.34 97.0545 132.34C97.9104 132.34 98.6908 132.139 99.3957 131.736C100.117 131.317 100.688 130.721 101.107 129.949C101.527 129.16 101.737 128.246 101.737 127.205ZM201.675 123.933V125.871H188.433V123.933H201.675ZM217.82 122.221H214.925V134.128H212.634V122.221H210.847V120.333H212.634V119.351C212.634 117.807 213.028 116.683 213.817 115.978C214.623 115.256 215.907 114.895 217.669 114.895V116.808C216.662 116.808 215.948 117.01 215.529 117.413C215.126 117.799 214.925 118.445 214.925 119.351V120.333H217.82V122.221ZM222.781 122.573C223.184 121.784 223.755 121.172 224.493 120.736C225.248 120.299 226.163 120.081 227.237 120.081V122.447H226.633C224.065 122.447 222.781 123.84 222.781 126.626V134.128H220.491V120.333H222.781V122.573ZM235.898 134.354C234.606 134.354 233.431 134.061 232.374 133.473C231.333 132.886 230.511 132.055 229.907 130.981C229.319 129.89 229.026 128.632 229.026 127.205C229.026 125.795 229.328 124.553 229.932 123.479C230.553 122.389 231.392 121.558 232.449 120.987C233.506 120.4 234.69 120.106 235.999 120.106C237.308 120.106 238.491 120.4 239.548 120.987C240.605 121.558 241.436 122.38 242.04 123.454C242.661 124.528 242.972 125.779 242.972 127.205C242.972 128.632 242.653 129.89 242.015 130.981C241.394 132.055 240.546 132.886 239.472 133.473C238.398 134.061 237.207 134.354 235.898 134.354ZM235.898 132.34C236.72 132.34 237.492 132.147 238.214 131.761C238.935 131.375 239.514 130.796 239.951 130.024C240.404 129.252 240.63 128.313 240.63 127.205C240.63 126.097 240.412 125.158 239.976 124.386C239.54 123.614 238.969 123.043 238.264 122.674C237.559 122.288 236.796 122.095 235.973 122.095C235.134 122.095 234.362 122.288 233.657 122.674C232.969 123.043 232.416 123.614 231.996 124.386C231.576 125.158 231.367 126.097 231.367 127.205C231.367 128.329 231.568 129.278 231.971 130.05C232.39 130.822 232.944 131.401 233.632 131.787C234.32 132.156 235.075 132.34 235.898 132.34ZM262.573 120.081C263.647 120.081 264.603 120.308 265.442 120.761C266.281 121.197 266.944 121.86 267.431 122.749C267.918 123.639 268.161 124.721 268.161 125.997V134.128H265.895V126.324C265.895 124.948 265.551 123.899 264.863 123.177C264.192 122.439 263.277 122.07 262.12 122.07C260.928 122.07 259.98 122.456 259.275 123.228C258.57 123.983 258.218 125.082 258.218 126.525V134.128H255.952V126.324C255.952 124.948 255.608 123.899 254.92 123.177C254.249 122.439 253.334 122.07 252.176 122.07C250.985 122.07 250.036 122.456 249.331 123.228C248.627 123.983 248.274 125.082 248.274 126.525V134.128H245.983V120.333H248.274V122.321C248.727 121.6 249.331 121.046 250.087 120.66C250.859 120.274 251.706 120.081 252.629 120.081C253.787 120.081 254.811 120.341 255.7 120.861C256.59 121.382 257.253 122.145 257.689 123.152C258.075 122.179 258.713 121.424 259.602 120.887C260.492 120.35 261.482 120.081 262.573 120.081ZM277.774 127.18C277.774 125.77 278.059 124.537 278.63 123.479C279.201 122.405 279.981 121.575 280.971 120.987C281.978 120.4 283.102 120.106 284.344 120.106C285.418 120.106 286.417 120.358 287.34 120.861C288.263 121.348 288.968 121.994 289.454 122.8V115.499H291.77V134.128H289.454V131.535C289.001 132.357 288.33 133.037 287.441 133.574C286.551 134.094 285.511 134.354 284.319 134.354C283.094 134.354 281.978 134.052 280.971 133.448C279.981 132.844 279.201 131.996 278.63 130.906C278.059 129.815 277.774 128.573 277.774 127.18ZM289.454 127.205C289.454 126.165 289.245 125.258 288.825 124.486C288.406 123.714 287.835 123.127 287.113 122.724C286.409 122.305 285.628 122.095 284.772 122.095C283.916 122.095 283.136 122.296 282.431 122.699C281.726 123.102 281.164 123.689 280.745 124.461C280.325 125.233 280.115 126.139 280.115 127.18C280.115 128.237 280.325 129.16 280.745 129.949C281.164 130.721 281.726 131.317 282.431 131.736C283.136 132.139 283.916 132.34 284.772 132.34C285.628 132.34 286.409 132.139 287.113 131.736C287.835 131.317 288.406 130.721 288.825 129.949C289.245 129.16 289.454 128.246 289.454 127.205ZM296.825 118.092C296.388 118.092 296.019 117.941 295.717 117.639C295.415 117.337 295.264 116.968 295.264 116.532C295.264 116.095 295.415 115.726 295.717 115.424C296.019 115.122 296.388 114.971 296.825 114.971C297.244 114.971 297.597 115.122 297.882 115.424C298.184 115.726 298.335 116.095 298.335 116.532C298.335 116.968 298.184 117.337 297.882 117.639C297.597 117.941 297.244 118.092 296.825 118.092ZM297.932 120.333V134.128H295.642V120.333H297.932ZM307.526 120.106C308.717 120.106 309.758 120.366 310.647 120.887C311.553 121.407 312.225 122.061 312.661 122.85V120.333H314.977V134.43C314.977 135.688 314.709 136.804 314.171 137.778C313.634 138.768 312.862 139.54 311.856 140.094C310.865 140.648 309.707 140.924 308.382 140.924C306.569 140.924 305.059 140.497 303.85 139.641C302.642 138.785 301.929 137.618 301.711 136.142H303.976C304.228 136.981 304.748 137.652 305.537 138.155C306.326 138.676 307.274 138.936 308.382 138.936C309.64 138.936 310.664 138.541 311.453 137.753C312.258 136.964 312.661 135.856 312.661 134.43V131.535C312.208 132.34 311.537 133.012 310.647 133.549C309.758 134.086 308.717 134.354 307.526 134.354C306.301 134.354 305.185 134.052 304.178 133.448C303.188 132.844 302.407 131.996 301.837 130.906C301.266 129.815 300.981 128.573 300.981 127.18C300.981 125.77 301.266 124.537 301.837 123.479C302.407 122.405 303.188 121.575 304.178 120.987C305.185 120.4 306.301 120.106 307.526 120.106ZM312.661 127.205C312.661 126.165 312.451 125.258 312.032 124.486C311.612 123.714 311.042 123.127 310.32 122.724C309.615 122.305 308.835 122.095 307.979 122.095C307.123 122.095 306.343 122.296 305.638 122.699C304.933 123.102 304.371 123.689 303.951 124.461C303.532 125.233 303.322 126.139 303.322 127.18C303.322 128.237 303.532 129.16 303.951 129.949C304.371 130.721 304.933 131.317 305.638 131.736C306.343 132.139 307.123 132.34 307.979 132.34C308.835 132.34 309.615 132.139 310.32 131.736C311.042 131.317 311.612 130.721 312.032 129.949C312.451 129.16 312.661 128.246 312.661 127.205ZM320.031 118.092C319.595 118.092 319.226 117.941 318.924 117.639C318.622 117.337 318.471 116.968 318.471 116.532C318.471 116.095 318.622 115.726 318.924 115.424C319.226 115.122 319.595 114.971 320.031 114.971C320.451 114.971 320.803 115.122 321.089 115.424C321.391 115.726 321.542 116.095 321.542 116.532C321.542 116.968 321.391 117.337 321.089 117.639C320.803 117.941 320.451 118.092 320.031 118.092ZM321.139 120.333V134.128H318.848V120.333H321.139ZM327.837 122.221V130.352C327.837 131.023 327.98 131.501 328.265 131.787C328.551 132.055 329.046 132.189 329.751 132.189H331.437V134.128H329.373C328.098 134.128 327.141 133.834 326.503 133.247C325.866 132.659 325.547 131.694 325.547 130.352V122.221H323.759V120.333H325.547V116.859H327.837V120.333H331.437V122.221H327.837ZM333.357 127.18C333.357 125.77 333.642 124.537 334.213 123.479C334.783 122.405 335.564 121.575 336.554 120.987C337.561 120.4 338.677 120.106 339.902 120.106C341.11 120.106 342.159 120.366 343.049 120.887C343.938 121.407 344.601 122.061 345.037 122.85V120.333H347.353V134.128H345.037V131.56C344.584 132.366 343.904 133.037 342.998 133.574C342.109 134.094 341.068 134.354 339.877 134.354C338.652 134.354 337.544 134.052 336.554 133.448C335.564 132.844 334.783 131.996 334.213 130.906C333.642 129.815 333.357 128.573 333.357 127.18ZM345.037 127.205C345.037 126.165 344.827 125.258 344.408 124.486C343.988 123.714 343.418 123.127 342.696 122.724C341.991 122.305 341.211 122.095 340.355 122.095C339.499 122.095 338.719 122.296 338.014 122.699C337.309 123.102 336.747 123.689 336.327 124.461C335.908 125.233 335.698 126.139 335.698 127.18C335.698 128.237 335.908 129.16 336.327 129.949C336.747 130.721 337.309 131.317 338.014 131.736C338.719 132.139 339.499 132.34 340.355 132.34C341.211 132.34 341.991 132.139 342.696 131.736C343.418 131.317 343.988 130.721 344.408 129.949C344.827 129.16 345.037 128.246 345.037 127.205ZM353.515 115.499V134.128H351.224V115.499H353.515ZM380.72 120.081C381.794 120.081 382.75 120.308 383.589 120.761C384.429 121.197 385.091 121.86 385.578 122.749C386.065 123.639 386.308 124.721 386.308 125.997V134.128H384.043V126.324C384.043 124.948 383.699 123.899 383.011 123.177C382.339 122.439 381.425 122.07 380.267 122.07C379.075 122.07 378.127 122.456 377.422 123.228C376.717 123.983 376.365 125.082 376.365 126.525V134.128H374.099V126.324C374.099 124.948 373.755 123.899 373.067 123.177C372.396 122.439 371.481 122.07 370.323 122.07C369.132 122.07 368.183 122.456 367.479 123.228C366.774 123.983 366.421 125.082 366.421 126.525V134.128H364.131V120.333H366.421V122.321C366.874 121.6 367.479 121.046 368.234 120.66C369.006 120.274 369.853 120.081 370.776 120.081C371.934 120.081 372.958 120.341 373.847 120.861C374.737 121.382 375.4 122.145 375.836 123.152C376.222 122.179 376.86 121.424 377.749 120.887C378.639 120.35 379.629 120.081 380.72 120.081ZM389.21 127.18C389.21 125.77 389.495 124.537 390.066 123.479C390.636 122.405 391.417 121.575 392.407 120.987C393.414 120.4 394.53 120.106 395.755 120.106C396.963 120.106 398.012 120.366 398.902 120.887C399.791 121.407 400.454 122.061 400.89 122.85V120.333H403.206V134.128H400.89V131.56C400.437 132.366 399.758 133.037 398.851 133.574C397.962 134.094 396.921 134.354 395.73 134.354C394.505 134.354 393.397 134.052 392.407 133.448C391.417 132.844 390.636 131.996 390.066 130.906C389.495 129.815 389.21 128.573 389.21 127.18ZM400.89 127.205C400.89 126.165 400.681 125.258 400.261 124.486C399.842 123.714 399.271 123.127 398.549 122.724C397.844 122.305 397.064 122.095 396.208 122.095C395.352 122.095 394.572 122.296 393.867 122.699C393.162 123.102 392.6 123.689 392.18 124.461C391.761 125.233 391.551 126.139 391.551 127.18C391.551 128.237 391.761 129.16 392.18 129.949C392.6 130.721 393.162 131.317 393.867 131.736C394.572 132.139 395.352 132.34 396.208 132.34C397.064 132.34 397.844 132.139 398.549 131.736C399.271 131.317 399.842 130.721 400.261 129.949C400.681 129.16 400.89 128.246 400.89 127.205ZM409.368 122.573C409.771 121.784 410.342 121.172 411.08 120.736C411.835 120.299 412.75 120.081 413.824 120.081V122.447H413.22C410.652 122.447 409.368 123.84 409.368 126.626V134.128H407.078V120.333H409.368V122.573ZM424.171 134.128L418.759 128.036V134.128H416.468V115.499H418.759V126.45L424.071 120.333H427.268L420.773 127.205L427.293 134.128H424.171ZM442.01 126.702C442.01 127.138 441.985 127.599 441.935 128.086H430.909C430.993 129.445 431.454 130.511 432.293 131.283C433.149 132.038 434.181 132.416 435.39 132.416C436.38 132.416 437.202 132.189 437.857 131.736C438.528 131.266 438.998 130.645 439.266 129.873H441.733C441.364 131.199 440.626 132.282 439.518 133.121C438.411 133.943 437.034 134.354 435.39 134.354C434.081 134.354 432.906 134.061 431.865 133.473C430.842 132.886 430.036 132.055 429.449 130.981C428.861 129.89 428.568 128.632 428.568 127.205C428.568 125.779 428.853 124.528 429.424 123.454C429.994 122.38 430.791 121.558 431.815 120.987C432.856 120.4 434.047 120.106 435.39 120.106C436.699 120.106 437.857 120.391 438.864 120.962C439.871 121.533 440.643 122.321 441.18 123.328C441.733 124.319 442.01 125.443 442.01 126.702ZM439.644 126.223C439.644 125.351 439.451 124.604 439.065 123.983C438.679 123.345 438.15 122.867 437.479 122.548C436.825 122.212 436.095 122.045 435.289 122.045C434.131 122.045 433.141 122.414 432.319 123.152C431.513 123.891 431.052 124.914 430.934 126.223H439.644ZM447.828 122.221V130.352C447.828 131.023 447.971 131.501 448.256 131.787C448.542 132.055 449.037 132.189 449.741 132.189H451.428V134.128H449.364C448.088 134.128 447.132 133.834 446.494 133.247C445.856 132.659 445.538 131.694 445.538 130.352V122.221H443.75V120.333H445.538V116.859H447.828V120.333H451.428V122.221H447.828ZM455.387 118.092C454.95 118.092 454.581 117.941 454.279 117.639C453.977 117.337 453.826 116.968 453.826 116.532C453.826 116.095 453.977 115.726 454.279 115.424C454.581 115.122 454.95 114.971 455.387 114.971C455.806 114.971 456.159 115.122 456.444 115.424C456.746 115.726 456.897 116.095 456.897 116.532C456.897 116.968 456.746 117.337 456.444 117.639C456.159 117.941 455.806 118.092 455.387 118.092ZM456.494 120.333V134.128H454.204V120.333H456.494ZM467.12 120.081C468.798 120.081 470.157 120.593 471.198 121.617C472.238 122.624 472.759 124.084 472.759 125.997V134.128H470.493V126.324C470.493 124.948 470.149 123.899 469.461 123.177C468.773 122.439 467.833 122.07 466.642 122.07C465.433 122.07 464.468 122.447 463.747 123.202C463.042 123.958 462.689 125.057 462.689 126.5V134.128H460.399V120.333H462.689V122.296C463.142 121.591 463.755 121.046 464.527 120.66C465.316 120.274 466.18 120.081 467.12 120.081ZM482.19 120.106C483.381 120.106 484.422 120.366 485.311 120.887C486.218 121.407 486.889 122.061 487.325 122.85V120.333H489.641V134.43C489.641 135.688 489.373 136.804 488.836 137.778C488.298 138.768 487.527 139.54 486.52 140.094C485.529 140.648 484.371 140.924 483.046 140.924C481.233 140.924 479.723 140.497 478.514 139.641C477.306 138.785 476.593 137.618 476.375 136.142H478.64C478.892 136.981 479.412 137.652 480.201 138.155C480.99 138.676 481.938 138.936 483.046 138.936C484.304 138.936 485.328 138.541 486.117 137.753C486.922 136.964 487.325 135.856 487.325 134.43V131.535C486.872 132.34 486.201 133.012 485.311 133.549C484.422 134.086 483.381 134.354 482.19 134.354C480.965 134.354 479.849 134.052 478.842 133.448C477.852 132.844 477.071 131.996 476.501 130.906C475.93 129.815 475.645 128.573 475.645 127.18C475.645 125.77 475.93 124.537 476.501 123.479C477.071 122.405 477.852 121.575 478.842 120.987C479.849 120.4 480.965 120.106 482.19 120.106ZM487.325 127.205C487.325 126.165 487.115 125.258 486.696 124.486C486.276 123.714 485.706 123.127 484.984 122.724C484.279 122.305 483.499 122.095 482.643 122.095C481.787 122.095 481.007 122.296 480.302 122.699C479.597 123.102 479.035 123.689 478.615 124.461C478.196 125.233 477.986 126.139 477.986 127.18C477.986 128.237 478.196 129.16 478.615 129.949C479.035 130.721 479.597 131.317 480.302 131.736C481.007 132.139 481.787 132.34 482.643 132.34C483.499 132.34 484.279 132.139 484.984 131.736C485.706 131.317 486.276 130.721 486.696 129.949C487.115 129.16 487.325 128.246 487.325 127.205ZM503.018 122.221V130.352C503.018 131.023 503.16 131.501 503.446 131.787C503.731 132.055 504.226 132.189 504.931 132.189H506.617V134.128H504.553C503.278 134.128 502.321 133.834 501.684 133.247C501.046 132.659 500.727 131.694 500.727 130.352V122.221H498.94V120.333H500.727V116.859H503.018V120.333H506.617V122.221H503.018ZM515.409 134.354C514.117 134.354 512.942 134.061 511.885 133.473C510.845 132.886 510.022 132.055 509.418 130.981C508.831 129.89 508.537 128.632 508.537 127.205C508.537 125.795 508.839 124.553 509.443 123.479C510.064 122.389 510.903 121.558 511.961 120.987C513.018 120.4 514.201 120.106 515.51 120.106C516.819 120.106 518.002 120.4 519.06 120.987C520.117 121.558 520.948 122.38 521.552 123.454C522.173 124.528 522.483 125.779 522.483 127.205C522.483 128.632 522.164 129.89 521.527 130.981C520.906 132.055 520.058 132.886 518.984 133.473C517.91 134.061 516.718 134.354 515.409 134.354ZM515.409 132.34C516.232 132.34 517.004 132.147 517.725 131.761C518.447 131.375 519.026 130.796 519.462 130.024C519.915 129.252 520.142 128.313 520.142 127.205C520.142 126.097 519.924 125.158 519.487 124.386C519.051 123.614 518.481 123.043 517.776 122.674C517.071 122.288 516.307 122.095 515.485 122.095C514.646 122.095 513.874 122.288 513.169 122.674C512.481 123.043 511.927 123.614 511.508 124.386C511.088 125.158 510.878 126.097 510.878 127.205C510.878 128.329 511.08 129.278 511.482 130.05C511.902 130.822 512.456 131.401 513.144 131.787C513.832 132.156 514.587 132.34 515.409 132.34ZM550.583 120.333L546.278 134.128H543.912L540.589 123.177L537.266 134.128H534.9L530.57 120.333H532.911L536.083 131.912L539.507 120.333H541.848L545.196 131.938L548.317 120.333H550.583ZM565.443 126.702C565.443 127.138 565.418 127.599 565.367 128.086H554.341C554.425 129.445 554.887 130.511 555.726 131.283C556.582 132.038 557.614 132.416 558.822 132.416C559.812 132.416 560.635 132.189 561.289 131.736C561.961 131.266 562.43 130.645 562.699 129.873H565.166C564.797 131.199 564.058 132.282 562.951 133.121C561.843 133.943 560.467 134.354 558.822 134.354C557.513 134.354 556.338 134.061 555.298 133.473C554.274 132.886 553.469 132.055 552.881 130.981C552.294 129.89 552 128.632 552 127.205C552 125.779 552.286 124.528 552.856 123.454C553.427 122.38 554.224 121.558 555.248 120.987C556.288 120.4 557.48 120.106 558.822 120.106C560.131 120.106 561.289 120.391 562.296 120.962C563.303 121.533 564.075 122.321 564.612 123.328C565.166 124.319 565.443 125.443 565.443 126.702ZM563.077 126.223C563.077 125.351 562.884 124.604 562.498 123.983C562.112 123.345 561.583 122.867 560.912 122.548C560.257 122.212 559.527 122.045 558.722 122.045C557.564 122.045 556.573 122.414 555.751 123.152C554.946 123.891 554.484 124.914 554.367 126.223H563.077ZM570.757 122.9C571.227 122.078 571.915 121.407 572.822 120.887C573.728 120.366 574.76 120.106 575.918 120.106C577.16 120.106 578.276 120.4 579.266 120.987C580.256 121.575 581.036 122.405 581.607 123.479C582.178 124.537 582.463 125.77 582.463 127.18C582.463 128.573 582.178 129.815 581.607 130.906C581.036 131.996 580.248 132.844 579.241 133.448C578.251 134.052 577.143 134.354 575.918 134.354C574.726 134.354 573.677 134.094 572.771 133.574C571.882 133.054 571.21 132.391 570.757 131.585V134.128H568.467V115.499H570.757V122.9ZM580.122 127.18C580.122 126.139 579.912 125.233 579.492 124.461C579.073 123.689 578.502 123.102 577.781 122.699C577.076 122.296 576.295 122.095 575.44 122.095C574.6 122.095 573.82 122.305 573.098 122.724C572.394 123.127 571.823 123.723 571.387 124.512C570.967 125.283 570.757 126.181 570.757 127.205C570.757 128.246 570.967 129.16 571.387 129.949C571.823 130.721 572.394 131.317 573.098 131.736C573.82 132.139 574.6 132.34 575.44 132.34C576.295 132.34 577.076 132.139 577.781 131.736C578.502 131.317 579.073 130.721 579.492 129.949C579.912 129.16 580.122 128.237 580.122 127.18ZM1.18792 166.18C1.18792 164.77 1.47322 163.537 2.04381 162.479C2.6144 161.405 3.39477 160.575 4.38492 159.987C5.39185 159.4 6.51626 159.106 7.75814 159.106C8.8322 159.106 9.83074 159.358 10.7538 159.861C11.6768 160.348 12.3816 160.994 12.8683 161.8V154.499H15.1842V173.128H12.8683V170.535C12.4152 171.357 11.7439 172.037 10.8544 172.574C9.96499 173.094 8.9245 173.354 7.73296 173.354C6.50787 173.354 5.39185 173.052 4.38492 172.448C3.39477 171.844 2.6144 170.996 2.04381 169.906C1.47322 168.815 1.18792 167.573 1.18792 166.18ZM12.8683 166.205C12.8683 165.165 12.6585 164.258 12.239 163.486C11.8194 162.714 11.2488 162.127 10.5272 161.724C9.82234 161.305 9.04197 161.095 8.18608 161.095C7.33019 161.095 6.54982 161.296 5.84497 161.699C5.14012 162.102 4.57792 162.689 4.15836 163.461C3.73881 164.233 3.52903 165.139 3.52903 166.18C3.52903 167.237 3.73881 168.16 4.15836 168.949C4.57792 169.721 5.14012 170.317 5.84497 170.736C6.54982 171.139 7.33019 171.34 8.18608 171.34C9.04197 171.34 9.82234 171.139 10.5272 170.736C11.2488 170.317 11.8194 169.721 12.239 168.949C12.6585 168.16 12.8683 167.246 12.8683 166.205ZM31.642 165.702C31.642 166.138 31.6169 166.599 31.5665 167.086H20.5406C20.6246 168.445 21.0861 169.511 21.9252 170.283C22.7811 171.038 23.8132 171.416 25.0215 171.416C26.0116 171.416 26.834 171.189 27.4885 170.736C28.1597 170.266 28.6296 169.645 28.8982 168.873H31.3651C30.9959 170.199 30.2575 171.282 29.1499 172.121C28.0423 172.943 26.6661 173.354 25.0215 173.354C23.7125 173.354 22.5377 173.061 21.4972 172.473C20.4735 171.886 19.668 171.055 19.0806 169.981C18.4932 168.89 18.1995 167.632 18.1995 166.205C18.1995 164.779 18.4848 163.528 19.0554 162.454C19.626 161.38 20.4232 160.558 21.4469 159.987C22.4874 159.4 23.6789 159.106 25.0215 159.106C26.3305 159.106 27.4885 159.391 28.4954 159.962C29.5023 160.533 30.2743 161.321 30.8113 162.328C31.3651 163.319 31.642 164.443 31.642 165.702ZM29.2758 165.223C29.2758 164.351 29.0828 163.604 28.6968 162.983C28.3108 162.345 27.7821 161.867 27.1109 161.548C26.4564 161.212 25.7263 161.045 24.9208 161.045C23.7628 161.045 22.7727 161.414 21.9503 162.152C21.1448 162.891 20.6833 163.914 20.5658 165.223H29.2758ZM39.8011 171.013L44.0806 159.333H46.5224L41.1101 173.128H38.4418L33.0295 159.333H35.4965L39.8011 171.013ZM61.3632 165.702C61.3632 166.138 61.338 166.599 61.2877 167.086H50.2618C50.3457 168.445 50.8072 169.511 51.6463 170.283C52.5022 171.038 53.5343 171.416 54.7426 171.416C55.7328 171.416 56.5551 171.189 57.2096 170.736C57.8809 170.266 58.3508 169.645 58.6193 168.873H61.0863C60.7171 170.199 59.9787 171.282 58.871 172.121C57.7634 172.943 56.3873 173.354 54.7426 173.354C53.4336 173.354 52.2589 173.061 51.2184 172.473C50.1947 171.886 49.3891 171.055 48.8017 169.981C48.2144 168.89 47.9207 167.632 47.9207 166.205C47.9207 164.779 48.206 163.528 48.7766 162.454C49.3472 161.38 50.1443 160.558 51.168 159.987C52.2085 159.4 53.4001 159.106 54.7426 159.106C56.0516 159.106 57.2096 159.391 58.2165 159.962C59.2235 160.533 59.9955 161.321 60.5325 162.328C61.0863 163.319 61.3632 164.443 61.3632 165.702ZM58.9969 165.223C58.9969 164.351 58.8039 163.604 58.4179 162.983C58.0319 162.345 57.5033 161.867 56.832 161.548C56.1775 161.212 55.4475 161.045 54.6419 161.045C53.484 161.045 52.4938 161.414 51.6715 162.152C50.866 162.891 50.4044 163.914 50.287 165.223H58.9969ZM66.6777 154.499V173.128H64.3869V154.499H66.6777ZM76.5983 173.354C75.3061 173.354 74.1313 173.061 73.0741 172.473C72.0336 171.886 71.2112 171.055 70.6071 169.981C70.0197 168.89 69.726 167.632 69.726 166.205C69.726 164.795 70.0281 163.553 70.6323 162.479C71.2532 161.389 72.0923 160.558 73.1496 159.987C74.2069 159.4 75.39 159.106 76.699 159.106C78.008 159.106 79.1912 159.4 80.2484 159.987C81.3057 160.558 82.1364 161.38 82.7406 162.454C83.3615 163.528 83.672 164.779 83.672 166.205C83.672 167.632 83.3531 168.89 82.7154 169.981C82.0945 171.055 81.247 171.886 80.1729 172.473C79.0989 173.061 77.9073 173.354 76.5983 173.354ZM76.5983 171.34C77.4207 171.34 78.1926 171.147 78.9143 170.761C79.6359 170.375 80.2149 169.796 80.6512 169.024C81.1043 168.252 81.3309 167.313 81.3309 166.205C81.3309 165.097 81.1127 164.158 80.6764 163.386C80.2401 162.614 79.6695 162.043 78.9646 161.674C78.2598 161.288 77.4962 161.095 76.6738 161.095C75.8347 161.095 75.0628 161.288 74.3579 161.674C73.6698 162.043 73.116 162.614 72.6965 163.386C72.2769 164.158 72.0671 165.097 72.0671 166.205C72.0671 167.329 72.2685 168.278 72.6713 169.05C73.0909 169.822 73.6447 170.401 74.3327 170.787C75.0208 171.156 75.776 171.34 76.5983 171.34ZM88.9747 161.875C89.4278 161.086 90.0991 160.432 90.9886 159.912C91.8948 159.375 92.9437 159.106 94.1352 159.106C95.3603 159.106 96.468 159.4 97.4581 159.987C98.465 160.575 99.2538 161.405 99.8244 162.479C100.395 163.537 100.68 164.77 100.68 166.18C100.68 167.573 100.395 168.815 99.8244 169.906C99.2538 170.996 98.465 171.844 97.4581 172.448C96.468 173.052 95.3603 173.354 94.1352 173.354C92.9605 173.354 91.92 173.094 91.0138 172.574C90.1243 172.037 89.4446 171.374 88.9747 170.585V179.673H86.684V159.333H88.9747V161.875ZM98.3392 166.18C98.3392 165.139 98.1294 164.233 97.7098 163.461C97.2903 162.689 96.7197 162.102 95.9981 161.699C95.2932 161.296 94.5128 161.095 93.6569 161.095C92.8178 161.095 92.0375 161.305 91.3158 161.724C90.611 162.127 90.0404 162.723 89.6041 163.512C89.1845 164.283 88.9747 165.181 88.9747 166.205C88.9747 167.246 89.1845 168.16 89.6041 168.949C90.0404 169.721 90.611 170.317 91.3158 170.736C92.0375 171.139 92.8178 171.34 93.6569 171.34C94.5128 171.34 95.2932 171.139 95.9981 170.736C96.7197 170.317 97.2903 169.721 97.7098 168.949C98.1294 168.16 98.3392 167.237 98.3392 166.18ZM120.285 159.081C121.359 159.081 122.315 159.308 123.154 159.761C123.994 160.197 124.656 160.86 125.143 161.749C125.63 162.639 125.873 163.721 125.873 164.997V173.128H123.608V165.324C123.608 163.948 123.264 162.899 122.576 162.177C121.904 161.439 120.99 161.07 119.832 161.07C118.64 161.07 117.692 161.456 116.987 162.228C116.282 162.983 115.93 164.082 115.93 165.525V173.128H113.664V165.324C113.664 163.948 113.32 162.899 112.632 162.177C111.961 161.439 111.046 161.07 109.888 161.07C108.697 161.07 107.748 161.456 107.044 162.228C106.339 162.983 105.986 164.082 105.986 165.525V173.128H103.696V159.333H105.986V161.321C106.439 160.6 107.044 160.046 107.799 159.66C108.571 159.274 109.418 159.081 110.341 159.081C111.499 159.081 112.523 159.341 113.412 159.861C114.302 160.382 114.965 161.145 115.401 162.152C115.787 161.179 116.425 160.424 117.314 159.887C118.204 159.35 119.194 159.081 120.285 159.081ZM142.218 165.702C142.218 166.138 142.192 166.599 142.142 167.086H131.116C131.2 168.445 131.662 169.511 132.501 170.283C133.357 171.038 134.389 171.416 135.597 171.416C136.587 171.416 137.409 171.189 138.064 170.736C138.735 170.266 139.205 169.645 139.474 168.873H141.941C141.571 170.199 140.833 171.282 139.725 172.121C138.618 172.943 137.242 173.354 135.597 173.354C134.288 173.354 133.113 173.061 132.073 172.473C131.049 171.886 130.243 171.055 129.656 169.981C129.069 168.89 128.775 167.632 128.775 166.205C128.775 164.779 129.06 163.528 129.631 162.454C130.201 161.38 130.999 160.558 132.022 159.987C133.063 159.4 134.254 159.106 135.597 159.106C136.906 159.106 138.064 159.391 139.071 159.962C140.078 160.533 140.85 161.321 141.387 162.328C141.941 163.319 142.218 164.443 142.218 165.702ZM139.851 165.223C139.851 164.351 139.658 163.604 139.272 162.983C138.886 162.345 138.358 161.867 137.686 161.548C137.032 161.212 136.302 161.045 135.496 161.045C134.338 161.045 133.348 161.414 132.526 162.152C131.72 162.891 131.259 163.914 131.141 165.223H139.851ZM151.963 159.081C153.641 159.081 155 159.593 156.041 160.617C157.081 161.624 157.601 163.084 157.601 164.997V173.128H155.336V165.324C155.336 163.948 154.992 162.899 154.304 162.177C153.616 161.439 152.676 161.07 151.484 161.07C150.276 161.07 149.311 161.447 148.589 162.202C147.884 162.958 147.532 164.057 147.532 165.5V173.128H145.241V159.333H147.532V161.296C147.985 160.591 148.598 160.046 149.37 159.66C150.158 159.274 151.023 159.081 151.963 159.081ZM164.138 161.221V169.352C164.138 170.023 164.28 170.501 164.565 170.787C164.851 171.055 165.346 171.189 166.051 171.189H167.737V173.128H165.673C164.398 173.128 163.441 172.834 162.803 172.247C162.166 171.659 161.847 170.694 161.847 169.352V161.221H160.059V159.333H161.847V155.859H164.138V159.333H167.737V161.221H164.138Z" fill="black"/>
</g>
<defs>
<clipPath id="clip0_2_2954">
<rect width="668.894" height="184" fill="white" transform="translate(0.105469 0.104248)"/>
</clipPath>
<clipPath id="clip1_2_2954">
<rect width="40.9346" height="40.9346" fill="white" transform="translate(9.84662 5.51611)"/>
</clipPath>
</defs>
</svg>
