<svg width="157" height="142" viewBox="0 0 157 142" fill="none" xmlns="http://www.w3.org/2000/svg">
<g opacity="0.5" filter="url(#filter0_d_2_2952)">
<mask id="path-1-outside-1_2_2952" maskUnits="userSpaceOnUse" x="5" y="5.00024" width="147" height="122" fill="black">
<rect fill="white" x="5" y="5.00024" width="147" height="122"/>
<path d="M45.072 9.87224L38.052 35.0002H32.112L27.396 17.1082L22.464 35.0002L16.56 35.0362L9.792 9.87224H15.192L19.62 29.3842L24.732 9.87224H30.348L35.172 29.2762L39.636 9.87224H45.072ZM59.7749 14.7682C61.2869 14.7682 62.6309 15.1042 63.8069 15.7762C64.9829 16.4242 65.8949 17.3962 66.5429 18.6922C67.2149 19.9642 67.5509 21.5002 67.5509 23.3002V35.0002H62.5109V23.9842C62.5109 22.4002 62.1149 21.1882 61.3229 20.3482C60.5309 19.4842 59.4509 19.0522 58.0829 19.0522C56.6909 19.0522 55.5869 19.4842 54.7709 20.3482C53.9789 21.1882 53.5829 22.4002 53.5829 23.9842V35.0002H48.5429V8.36024H53.5829V17.5402C54.2309 16.6762 55.0949 16.0042 56.1749 15.5242C57.2549 15.0202 58.4549 14.7682 59.7749 14.7682ZM91.6037 15.0562L79.2557 44.4322H73.8917L78.2117 34.4962L70.2197 15.0562H75.8717L81.0197 28.9882L86.2397 15.0562H91.6037ZM10.26 66.4002C10.26 63.9282 10.812 61.7202 11.916 59.7762C13.044 57.8082 14.568 56.2842 16.488 55.2042C18.432 54.1002 20.604 53.5482 23.004 53.5482C25.812 53.5482 28.272 54.2682 30.384 55.7082C32.496 57.1482 33.972 59.1402 34.812 61.6842H29.016C28.44 60.4842 27.624 59.5842 26.568 58.9842C25.536 58.3842 24.336 58.0842 22.968 58.0842C21.504 58.0842 20.196 58.4322 19.044 59.1282C17.916 59.8002 17.028 60.7602 16.38 62.0082C15.756 63.2562 15.444 64.7202 15.444 66.4002C15.444 68.0562 15.756 69.5202 16.38 70.7922C17.028 72.0402 17.916 73.0122 19.044 73.7082C20.196 74.3802 21.504 74.7162 22.968 74.7162C24.336 74.7162 25.536 74.4162 26.568 73.8162C27.624 73.1922 28.44 72.2802 29.016 71.0802H34.812C33.972 73.6482 32.496 75.6522 30.384 77.0922C28.296 78.5082 25.836 79.2162 23.004 79.2162C20.604 79.2162 18.432 78.6762 16.488 77.5962C14.568 76.4922 13.044 74.9682 11.916 73.0242C10.812 71.0802 10.26 68.8722 10.26 66.4002ZM50.5288 58.7682C52.0408 58.7682 53.3848 59.1042 54.5608 59.7762C55.7368 60.4242 56.6488 61.3962 57.2968 62.6922C57.9688 63.9642 58.3048 65.5002 58.3048 67.3002V79.0002H53.2648V67.9842C53.2648 66.4002 52.8688 65.1882 52.0768 64.3482C51.2848 63.4842 50.2048 63.0522 48.8368 63.0522C47.4448 63.0522 46.3408 63.4842 45.5248 64.3482C44.7328 65.1882 44.3368 66.4002 44.3368 67.9842V79.0002H39.2968V52.3602H44.3368V61.5402C44.9848 60.6762 45.8488 60.0042 46.9288 59.5242C48.0088 59.0202 49.2088 58.7682 50.5288 58.7682ZM72.1336 79.3242C70.2136 79.3242 68.4856 78.9042 66.9496 78.0642C65.4136 77.2002 64.2016 75.9882 63.3136 74.4282C62.4496 72.8682 62.0176 71.0682 62.0176 69.0282C62.0176 66.9882 62.4616 65.1882 63.3496 63.6282C64.2616 62.0682 65.4976 60.8682 67.0576 60.0282C68.6176 59.1642 70.3576 58.7322 72.2776 58.7322C74.1976 58.7322 75.9376 59.1642 77.4976 60.0282C79.0576 60.8682 80.2816 62.0682 81.1696 63.6282C82.0816 65.1882 82.5376 66.9882 82.5376 69.0282C82.5376 71.0682 82.0696 72.8682 81.1336 74.4282C80.2216 75.9882 78.9736 77.2002 77.3896 78.0642C75.8296 78.9042 74.0776 79.3242 72.1336 79.3242ZM72.1336 74.9322C73.0456 74.9322 73.8976 74.7162 74.6896 74.2842C75.5056 73.8282 76.1536 73.1562 76.6336 72.2682C77.1136 71.3802 77.3536 70.3002 77.3536 69.0282C77.3536 67.1322 76.8496 65.6802 75.8416 64.6722C74.8576 63.6402 73.6456 63.1242 72.2056 63.1242C70.7656 63.1242 69.5536 63.6402 68.5696 64.6722C67.6096 65.6802 67.1296 67.1322 67.1296 69.0282C67.1296 70.9242 67.5976 72.3882 68.5336 73.4202C69.4936 74.4282 70.6936 74.9322 72.1336 74.9322ZM95.2706 79.3242C93.3506 79.3242 91.6226 78.9042 90.0866 78.0642C88.5506 77.2002 87.3386 75.9882 86.4506 74.4282C85.5866 72.8682 85.1546 71.0682 85.1546 69.0282C85.1546 66.9882 85.5986 65.1882 86.4866 63.6282C87.3986 62.0682 88.6346 60.8682 90.1946 60.0282C91.7546 59.1642 93.4946 58.7322 95.4146 58.7322C97.3346 58.7322 99.0746 59.1642 100.635 60.0282C102.195 60.8682 103.419 62.0682 104.307 63.6282C105.219 65.1882 105.675 66.9882 105.675 69.0282C105.675 71.0682 105.207 72.8682 104.271 74.4282C103.359 75.9882 102.111 77.2002 100.527 78.0642C98.9666 78.9042 97.2146 79.3242 95.2706 79.3242ZM95.2706 74.9322C96.1826 74.9322 97.0346 74.7162 97.8266 74.2842C98.6426 73.8282 99.2906 73.1562 99.7706 72.2682C100.251 71.3802 100.491 70.3002 100.491 69.0282C100.491 67.1322 99.9866 65.6802 98.9786 64.6722C97.9946 63.6402 96.7826 63.1242 95.3426 63.1242C93.9026 63.1242 92.6906 63.6402 91.7066 64.6722C90.7466 65.6802 90.2666 67.1322 90.2666 69.0282C90.2666 70.9242 90.7346 72.3882 91.6706 73.4202C92.6306 74.4282 93.8306 74.9322 95.2706 74.9322ZM117.184 79.3242C115.552 79.3242 114.088 79.0362 112.792 78.4602C111.496 77.8602 110.464 77.0562 109.696 76.0482C108.952 75.0402 108.544 73.9242 108.472 72.7002H113.548C113.644 73.4682 114.016 74.1042 114.664 74.6082C115.336 75.1122 116.164 75.3642 117.148 75.3642C118.108 75.3642 118.852 75.1722 119.38 74.7882C119.932 74.4042 120.208 73.9122 120.208 73.3122C120.208 72.6642 119.872 72.1842 119.2 71.8722C118.552 71.5362 117.508 71.1762 116.068 70.7922C114.58 70.4322 113.356 70.0602 112.396 69.6762C111.46 69.2922 110.644 68.7042 109.948 67.9122C109.276 67.1202 108.94 66.0522 108.94 64.7082C108.94 63.6042 109.252 62.5962 109.876 61.6842C110.524 60.7722 111.436 60.0522 112.612 59.5242C113.812 58.9962 115.216 58.7322 116.824 58.7322C119.2 58.7322 121.096 59.3322 122.512 60.5322C123.928 61.7082 124.708 63.3042 124.852 65.3202H120.028C119.956 64.5282 119.62 63.9042 119.02 63.4482C118.444 62.9682 117.664 62.7282 116.68 62.7282C115.768 62.7282 115.06 62.8962 114.556 63.2322C114.076 63.5682 113.836 64.0362 113.836 64.6362C113.836 65.3082 114.172 65.8242 114.844 66.1842C115.516 66.5202 116.56 66.8682 117.976 67.2282C119.416 67.5882 120.604 67.9602 121.54 68.3442C122.476 68.7282 123.28 69.3282 123.952 70.1442C124.648 70.9362 125.008 71.9922 125.032 73.3122C125.032 74.4642 124.708 75.4962 124.06 76.4082C123.436 77.3202 122.524 78.0402 121.324 78.5682C120.148 79.0722 118.768 79.3242 117.184 79.3242ZM147.889 68.5962C147.889 69.3162 147.841 69.9642 147.745 70.5402H133.165C133.285 71.9802 133.789 73.1082 134.677 73.9242C135.565 74.7402 136.657 75.1482 137.953 75.1482C139.825 75.1482 141.157 74.3442 141.949 72.7362H147.385C146.809 74.6562 145.705 76.2402 144.073 77.4882C142.441 78.7122 140.437 79.3242 138.061 79.3242C136.141 79.3242 134.413 78.9042 132.877 78.0642C131.365 77.2002 130.177 75.9882 129.313 74.4282C128.473 72.8682 128.053 71.0682 128.053 69.0282C128.053 66.9642 128.473 65.1522 129.313 63.5922C130.153 62.0322 131.329 60.8322 132.841 59.9922C134.353 59.1522 136.093 58.7322 138.061 58.7322C139.957 58.7322 141.649 59.1402 143.137 59.9562C144.649 60.7722 145.813 61.9362 146.629 63.4482C147.469 64.9362 147.889 66.6522 147.889 68.5962ZM142.669 67.1562C142.645 65.8602 142.177 64.8282 141.265 64.0602C140.353 63.2682 139.237 62.8722 137.917 62.8722C136.669 62.8722 135.613 63.2562 134.749 64.0242C133.909 64.7682 133.393 65.8122 133.201 67.1562H142.669ZM16.452 97.8722V113.424C16.452 115.128 16.896 116.436 17.784 117.348C18.672 118.236 19.92 118.68 21.528 118.68C23.16 118.68 24.42 118.236 25.308 117.348C26.196 116.436 26.64 115.128 26.64 113.424V97.8722H31.716V113.388C31.716 115.524 31.248 117.336 30.312 118.824C29.4 120.288 28.164 121.392 26.604 122.136C25.068 122.88 23.352 123.252 21.456 123.252C19.584 123.252 17.88 122.88 16.344 122.136C14.832 121.392 13.632 120.288 12.744 118.824C11.856 117.336 11.412 115.524 11.412 113.388V97.8722H16.452ZM44.3976 123.324C42.7656 123.324 41.3016 123.036 40.0056 122.46C38.7096 121.86 37.6776 121.056 36.9096 120.048C36.1656 119.04 35.7576 117.924 35.6856 116.7H40.7616C40.8576 117.468 41.2296 118.104 41.8776 118.608C42.5496 119.112 43.3776 119.364 44.3616 119.364C45.3216 119.364 46.0656 119.172 46.5936 118.788C47.1456 118.404 47.4216 117.912 47.4216 117.312C47.4216 116.664 47.0856 116.184 46.4136 115.872C45.7656 115.536 44.7216 115.176 43.2816 114.792C41.7936 114.432 40.5696 114.06 39.6096 113.676C38.6736 113.292 37.8576 112.704 37.1616 111.912C36.4896 111.12 36.1536 110.052 36.1536 108.708C36.1536 107.604 36.4656 106.596 37.0896 105.684C37.7376 104.772 38.6496 104.052 39.8256 103.524C41.0256 102.996 42.4296 102.732 44.0376 102.732C46.4136 102.732 48.3096 103.332 49.7256 104.532C51.1416 105.708 51.9216 107.304 52.0656 109.32H47.2416C47.1696 108.528 46.8336 107.904 46.2336 107.448C45.6576 106.968 44.8776 106.728 43.8936 106.728C42.9816 106.728 42.2736 106.896 41.7696 107.232C41.2896 107.568 41.0496 108.036 41.0496 108.636C41.0496 109.308 41.3856 109.824 42.0576 110.184C42.7296 110.52 43.7736 110.868 45.1896 111.228C46.6296 111.588 47.8176 111.96 48.7536 112.344C49.6896 112.728 50.4936 113.328 51.1656 114.144C51.8616 114.936 52.2216 115.992 52.2456 117.312C52.2456 118.464 51.9216 119.496 51.2736 120.408C50.6496 121.32 49.7376 122.04 48.5376 122.568C47.3616 123.072 45.9816 123.324 44.3976 123.324ZM63.5828 97.0082C66.0788 97.0082 68.0828 97.6922 69.5948 99.0602C71.1308 100.404 71.8988 102.264 71.8988 104.64C71.8988 106.992 71.1428 108.792 69.6308 110.04C68.1188 111.264 66.1148 111.876 63.6188 111.876L63.4748 114.648H59.0468L58.8668 108.528H60.4868C62.5748 108.528 64.1828 108.252 65.3108 107.7C66.4388 107.148 67.0028 106.14 67.0028 104.676C67.0028 103.62 66.6908 102.78 66.0668 102.156C65.4668 101.532 64.6388 101.22 63.5828 101.22C62.4788 101.22 61.6148 101.52 60.9908 102.12C60.3908 102.72 60.0908 103.548 60.0908 104.604H55.3388C55.3148 103.14 55.6268 101.832 56.2748 100.68C56.9228 99.5282 57.8708 98.6282 59.1188 97.9802C60.3908 97.3322 61.8788 97.0082 63.5828 97.0082ZM61.2428 123.252C60.3308 123.252 59.5748 122.976 58.9748 122.424C58.3988 121.848 58.1108 121.14 58.1108 120.3C58.1108 119.46 58.3988 118.764 58.9748 118.212C59.5748 117.636 60.3308 117.348 61.2428 117.348C62.1308 117.348 62.8628 117.636 63.4388 118.212C64.0148 118.764 64.3028 119.46 64.3028 120.3C64.3028 121.14 64.0148 121.848 63.4388 122.424C62.8628 122.976 62.1308 123.252 61.2428 123.252Z"/>
</mask>
<path d="M45.072 9.87224L47.9614 10.6794L49.025 6.87224H45.072V9.87224ZM38.052 35.0002V38.0002H40.3288L40.9414 35.8074L38.052 35.0002ZM32.112 35.0002L29.2111 35.7649L29.8003 38.0002H32.112V35.0002ZM27.396 17.1082L30.2969 16.3436L27.4609 5.58386L24.5039 16.311L27.396 17.1082ZM22.464 35.0002L22.4823 38.0002L24.7528 37.9863L25.3561 35.7975L22.464 35.0002ZM16.56 35.0362L13.663 35.8154L14.264 38.0503L16.5783 38.0362L16.56 35.0362ZM9.792 9.87224V6.87224H5.87852L6.89495 10.6514L9.792 9.87224ZM15.192 9.87224L18.1176 9.20831L17.5875 6.87224H15.192V9.87224ZM19.62 29.3842L16.6944 30.0482L22.5221 30.1446L19.62 29.3842ZM24.732 9.87224V6.87224H22.4167L21.8299 9.11193L24.732 9.87224ZM30.348 9.87224L33.2594 9.14845L32.6935 6.87224H30.348V9.87224ZM35.172 29.2762L32.2606 30L38.0956 29.9488L35.172 29.2762ZM39.636 9.87224V6.87224H37.2478L36.7124 9.19965L39.636 9.87224ZM42.1826 9.06504L35.1626 34.193L40.9414 35.8074L47.9614 10.6794L42.1826 9.06504ZM38.052 32.0002H32.112V38.0002H38.052V32.0002ZM35.0129 34.2356L30.2969 16.3436L24.4951 17.8729L29.2111 35.7649L35.0129 34.2356ZM24.5039 16.311L19.5719 34.203L25.3561 35.7975L30.2881 17.9055L24.5039 16.311ZM22.4457 32.0003L16.5417 32.0363L16.5783 38.0362L22.4823 38.0002L22.4457 32.0003ZM19.457 34.2571L12.689 9.09307L6.89495 10.6514L13.663 35.8154L19.457 34.2571ZM9.792 12.8722H15.192V6.87224H9.792V12.8722ZM12.2664 10.5362L16.6944 30.0482L22.5456 28.7203L18.1176 9.20831L12.2664 10.5362ZM22.5221 30.1446L27.6341 10.6326L21.8299 9.11193L16.7179 28.6239L22.5221 30.1446ZM24.732 12.8722H30.348V6.87224H24.732V12.8722ZM27.4366 10.596L32.2606 30L38.0834 28.5525L33.2594 9.14845L27.4366 10.596ZM38.0956 29.9488L42.5596 10.5448L36.7124 9.19965L32.2484 28.6036L38.0956 29.9488ZM39.636 12.8722H45.072V6.87224H39.636V12.8722ZM63.8069 15.7762L62.3185 18.381L62.3387 18.3925L62.3591 18.4038L63.8069 15.7762ZM66.5429 18.6922L63.8596 20.0339L63.8746 20.0639L63.8903 20.0936L66.5429 18.6922ZM67.5509 35.0002V38.0002H70.5509V35.0002H67.5509ZM62.5109 35.0002H59.5109V38.0002H62.5109V35.0002ZM61.3229 20.3482L59.1114 22.3754L59.1257 22.391L59.1401 22.4063L61.3229 20.3482ZM54.7709 20.3482L52.5899 18.2884L52.5881 18.2902L54.7709 20.3482ZM53.5829 35.0002V38.0002H56.5829V35.0002H53.5829ZM48.5429 35.0002H45.5429V38.0002H48.5429V35.0002ZM48.5429 8.36024V5.36024H45.5429V8.36024H48.5429ZM53.5829 8.36024H56.5829V5.36024H53.5829V8.36024ZM53.5829 17.5402H50.5829V26.5402L55.9829 19.3402L53.5829 17.5402ZM56.1749 15.5242L57.3933 18.2657L57.4185 18.2545L57.4436 18.2428L56.1749 15.5242ZM59.7749 17.7682C60.8269 17.7682 61.6468 17.9971 62.3185 18.381L65.2953 13.1715C63.615 12.2113 61.7469 11.7682 59.7749 11.7682V17.7682ZM62.3591 18.4038C62.9598 18.7348 63.461 19.2366 63.8596 20.0339L69.2262 17.3506C68.3288 15.5559 67.006 14.1137 65.2547 13.1487L62.3591 18.4038ZM63.8903 20.0936C64.2839 20.8386 64.5509 21.8684 64.5509 23.3002H70.5509C70.5509 21.1321 70.1459 19.0899 69.1955 17.2909L63.8903 20.0936ZM64.5509 23.3002V35.0002H70.5509V23.3002H64.5509ZM67.5509 32.0002H62.5109V38.0002H67.5509V32.0002ZM65.5109 35.0002V23.9842H59.5109V35.0002H65.5109ZM65.5109 23.9842C65.5109 21.9236 64.9917 19.8663 63.5057 18.2902L59.1401 22.4063C59.2381 22.5102 59.5109 22.8769 59.5109 23.9842H65.5109ZM63.5344 18.3211C62.0779 16.7322 60.1379 16.0522 58.0829 16.0522V22.0522C58.7639 22.0522 58.984 22.2363 59.1114 22.3754L63.5344 18.3211ZM58.0829 16.0522C56.0194 16.0522 54.0702 16.7209 52.5899 18.2884L56.9519 22.4081C57.1036 22.2476 57.3624 22.0522 58.0829 22.0522V16.0522ZM52.5881 18.2902C51.1021 19.8663 50.5829 21.9236 50.5829 23.9842H56.5829C56.5829 22.8769 56.8557 22.5102 56.9537 22.4063L52.5881 18.2902ZM50.5829 23.9842V35.0002H56.5829V23.9842H50.5829ZM53.5829 32.0002H48.5429V38.0002H53.5829V32.0002ZM51.5429 35.0002V8.36024H45.5429V35.0002H51.5429ZM48.5429 11.3602H53.5829V5.36024H48.5429V11.3602ZM50.5829 8.36024V17.5402H56.5829V8.36024H50.5829ZM55.9829 19.3402C56.2954 18.9236 56.7358 18.5579 57.3933 18.2657L54.9565 12.7828C53.454 13.4506 52.1664 14.4289 51.1829 15.7402L55.9829 19.3402ZM57.4436 18.2428C58.0854 17.9433 58.8457 17.7682 59.7749 17.7682V11.7682C58.0641 11.7682 56.4245 12.0972 54.9062 12.8057L57.4436 18.2428ZM91.6037 15.0562L94.3693 16.2187L96.119 12.0562H91.6037V15.0562ZM79.2557 44.4322V47.4322H81.2489L82.0213 45.5947L79.2557 44.4322ZM73.8917 44.4322L71.1405 43.2361L69.3161 47.4322H73.8917V44.4322ZM78.2117 34.4962L80.9629 35.6924L81.4688 34.5289L80.9864 33.3555L78.2117 34.4962ZM70.2197 15.0562V12.0562H65.7427L67.445 16.1969L70.2197 15.0562ZM75.8717 15.0562L78.6857 14.0164L77.9614 12.0562H75.8717V15.0562ZM81.0197 28.9882L78.2057 30.0281L81.0002 37.5908L83.829 30.0408L81.0197 28.9882ZM86.2397 15.0562V12.0562H84.1601L83.4304 14.0037L86.2397 15.0562ZM88.8381 13.8937L76.4901 43.2697L82.0213 45.5947L94.3693 16.2187L88.8381 13.8937ZM79.2557 41.4322H73.8917V47.4322H79.2557V41.4322ZM76.6429 45.6284L80.9629 35.6924L75.4605 33.3001L71.1405 43.2361L76.6429 45.6284ZM80.9864 33.3555L72.9944 13.9155L67.445 16.1969L75.437 35.6369L80.9864 33.3555ZM70.2197 18.0562H75.8717V12.0562H70.2197V18.0562ZM73.0577 16.0961L78.2057 30.0281L83.8337 27.9484L78.6857 14.0164L73.0577 16.0961ZM83.829 30.0408L89.049 16.1088L83.4304 14.0037L78.2104 27.9357L83.829 30.0408ZM86.2397 18.0562H91.6037V12.0562H86.2397V18.0562ZM11.916 59.7762L9.31321 58.2844L9.30732 58.2948L11.916 59.7762ZM16.488 55.2042L17.9588 57.819L17.9695 57.8129L16.488 55.2042ZM34.812 61.6842V64.6842H38.9619L37.6607 60.7436L34.812 61.6842ZM29.016 61.6842L26.3114 62.9824L27.1283 64.6842H29.016V61.6842ZM26.568 58.9842L25.0601 61.5778L25.073 61.5853L25.086 61.5926L26.568 58.9842ZM19.044 59.1282L20.5794 61.7055L20.5874 61.7008L20.5953 61.696L19.044 59.1282ZM16.38 62.0082L13.7175 60.6258L13.707 60.6461L13.6967 60.6666L16.38 62.0082ZM16.38 70.7922L13.6866 72.1135L13.7017 72.1443L13.7175 72.1747L16.38 70.7922ZM19.044 73.7082L17.4687 76.2614L17.5003 76.2809L17.5324 76.2996L19.044 73.7082ZM26.568 73.8162L28.0759 76.4098L28.085 76.4044L28.0942 76.399L26.568 73.8162ZM29.016 71.0802V68.0802H27.1283L26.3114 69.7821L29.016 71.0802ZM34.812 71.0802L37.6633 72.0129L38.9497 68.0802H34.812V71.0802ZM30.384 77.0922L32.0678 79.5751L32.074 79.5709L30.384 77.0922ZM16.488 77.5962L14.9926 80.197L15.0117 80.208L15.0311 80.2187L16.488 77.5962ZM11.916 73.0242L9.30732 74.5057L9.31419 74.5178L9.32118 74.5299L11.916 73.0242ZM13.26 66.4002C13.26 64.3914 13.7036 62.7036 14.5247 61.2577L9.30732 58.2948C7.92042 60.7369 7.26 63.4651 7.26 66.4002H13.26ZM14.5188 61.2681C15.386 59.755 16.525 58.6255 17.9588 57.819L15.0172 52.5895C12.611 53.943 10.702 55.8615 9.31323 58.2844L14.5188 61.2681ZM17.9695 57.8129C19.4287 56.9842 21.0839 56.5482 23.004 56.5482V50.5482C20.1241 50.5482 17.4353 51.2163 15.0065 52.5956L17.9695 57.8129ZM23.004 56.5482C25.2711 56.5482 27.129 57.1199 28.694 58.1869L32.074 53.2296C29.415 51.4166 26.3529 50.5482 23.004 50.5482V56.5482ZM28.694 58.1869C30.2338 59.2368 31.3193 60.6747 31.9633 62.6249L37.6607 60.7436C36.6247 57.6058 34.7582 55.0597 32.074 53.2296L28.694 58.1869ZM34.812 58.6842H29.016V64.6842H34.812V58.6842ZM31.7206 60.386C30.9066 58.6903 29.6885 57.3068 28.05 56.3759L25.086 61.5926C25.5595 61.8617 25.9734 62.2782 26.3114 62.9824L31.7206 60.386ZM28.0759 56.3907C26.5225 55.4876 24.7872 55.0842 22.968 55.0842V61.0842C23.8848 61.0842 24.5495 61.2809 25.0601 61.5778L28.0759 56.3907ZM22.968 55.0842C21.0068 55.0842 19.1534 55.5571 17.4927 56.5605L20.5953 61.696C21.2386 61.3074 22.0012 61.0842 22.968 61.0842V55.0842ZM17.5086 56.5509C15.8668 57.529 14.6037 58.919 13.7175 60.6258L19.0425 63.3907C19.4523 62.6014 19.9652 62.0715 20.5794 61.7055L17.5086 56.5509ZM13.6967 60.6666C12.8261 62.4078 12.444 64.3485 12.444 66.4002H18.444C18.444 65.092 18.6859 64.1047 19.0633 63.3499L13.6967 60.6666ZM12.444 66.4002C12.444 68.4372 12.8295 70.3663 13.6866 72.1135L19.0734 69.471C18.6825 68.6742 18.444 67.6752 18.444 66.4002H12.444ZM13.7175 72.1747C14.5996 73.8735 15.8507 75.263 17.4687 76.2614L20.6193 71.1551C19.9813 70.7615 19.4564 70.207 19.0425 69.4098L13.7175 72.1747ZM17.5324 76.2996C19.1872 77.2649 21.0262 77.7162 22.968 77.7162V71.7162C21.9818 71.7162 21.2048 71.4956 20.5556 71.1169L17.5324 76.2996ZM22.968 77.7162C24.7872 77.7162 26.5225 77.3129 28.0759 76.4098L25.0601 71.2227C24.5495 71.5196 23.8848 71.7162 22.968 71.7162V77.7162ZM28.0942 76.399C29.7052 75.4471 30.9105 74.0661 31.7206 72.3784L26.3114 69.7821C25.9695 70.4944 25.5428 70.9374 25.0418 71.2335L28.0942 76.399ZM29.016 74.0802H34.812V68.0802H29.016V74.0802ZM31.9607 70.1476C31.314 72.1246 30.2264 73.5687 28.694 74.6136L32.074 79.5709C34.7656 77.7357 36.63 75.1719 37.6633 72.0129L31.9607 70.1476ZM28.7002 74.6093C27.1687 75.6479 25.312 76.2162 23.004 76.2162V82.2162C26.3601 82.2162 29.4233 81.3685 32.0678 79.5751L28.7002 74.6093ZM23.004 76.2162C21.0723 76.2162 19.4083 75.7867 17.9449 74.9738L15.0311 80.2187C17.4557 81.5657 20.1357 82.2162 23.004 82.2162V76.2162ZM17.9834 74.9955C16.5266 74.1579 15.3788 73.0146 14.5108 71.5186L9.32118 74.5299C10.7092 76.9219 12.6094 78.8266 14.9926 80.197L17.9834 74.9955ZM14.5247 71.5428C13.7036 70.0969 13.26 68.4091 13.26 66.4002H7.26C7.26 69.3354 7.92042 72.0636 9.30732 74.5057L14.5247 71.5428ZM54.5608 59.7762L53.0724 62.381L53.0926 62.3925L53.113 62.4038L54.5608 59.7762ZM57.2968 62.6922L54.6135 64.0339L54.6285 64.0639L54.6442 64.0936L57.2968 62.6922ZM58.3048 79.0002V82.0002H61.3048V79.0002H58.3048ZM53.2648 79.0002H50.2648V82.0002H53.2648V79.0002ZM52.0768 64.3482L49.8653 66.3754L49.8796 66.391L49.894 66.4063L52.0768 64.3482ZM45.5248 64.3482L43.3438 62.2884L43.342 62.2902L45.5248 64.3482ZM44.3368 79.0002V82.0002H47.3368V79.0002H44.3368ZM39.2968 79.0002H36.2968V82.0002H39.2968V79.0002ZM39.2968 52.3602V49.3602H36.2968V52.3602H39.2968ZM44.3368 52.3602H47.3368V49.3602H44.3368V52.3602ZM44.3368 61.5402H41.3368V70.5402L46.7368 63.3402L44.3368 61.5402ZM46.9288 59.5242L48.1472 62.2657L48.1725 62.2545L48.1975 62.2428L46.9288 59.5242ZM50.5288 61.7682C51.5808 61.7682 52.4007 61.9971 53.0724 62.381L56.0492 57.1715C54.3689 56.2113 52.5008 55.7682 50.5288 55.7682V61.7682ZM53.113 62.4038C53.7137 62.7348 54.2149 63.2366 54.6135 64.0339L59.9801 61.3506C59.0827 59.5559 57.7599 58.1137 56.0086 57.1487L53.113 62.4038ZM54.6442 64.0936C55.0378 64.8386 55.3048 65.8684 55.3048 67.3002H61.3048C61.3048 65.1321 60.8998 63.0899 59.9494 61.2909L54.6442 64.0936ZM55.3048 67.3002V79.0002H61.3048V67.3002H55.3048ZM58.3048 76.0002H53.2648V82.0002H58.3048V76.0002ZM56.2648 79.0002V67.9842H50.2648V79.0002H56.2648ZM56.2648 67.9842C56.2648 65.9236 55.7456 63.8663 54.2596 62.2902L49.894 66.4063C49.992 66.5102 50.2648 66.8769 50.2648 67.9842H56.2648ZM54.2883 62.3211C52.8318 60.7322 50.8918 60.0522 48.8368 60.0522V66.0522C49.5178 66.0522 49.7379 66.2363 49.8653 66.3754L54.2883 62.3211ZM48.8368 60.0522C46.7733 60.0522 44.8241 60.7209 43.3438 62.2884L47.7059 66.4081C47.8575 66.2476 48.1163 66.0522 48.8368 66.0522V60.0522ZM43.342 62.2902C41.856 63.8663 41.3368 65.9236 41.3368 67.9842H47.3368C47.3368 66.8769 47.6096 66.5102 47.7076 66.4063L43.342 62.2902ZM41.3368 67.9842V79.0002H47.3368V67.9842H41.3368ZM44.3368 76.0002H39.2968V82.0002H44.3368V76.0002ZM42.2968 79.0002V52.3602H36.2968V79.0002H42.2968ZM39.2968 55.3602H44.3368V49.3602H39.2968V55.3602ZM41.3368 52.3602V61.5402H47.3368V52.3602H41.3368ZM46.7368 63.3402C47.0493 62.9236 47.4897 62.5579 48.1472 62.2657L45.7104 56.7828C44.2079 57.4506 42.9203 58.4289 41.9368 59.7402L46.7368 63.3402ZM48.1975 62.2428C48.8393 61.9433 49.5996 61.7682 50.5288 61.7682V55.7682C48.818 55.7682 47.1784 56.0972 45.6602 56.8057L48.1975 62.2428ZM66.9496 78.0642L65.4788 80.679L65.4944 80.6878L65.5102 80.6964L66.9496 78.0642ZM63.3136 74.4282L60.6892 75.8817L60.6977 75.8971L60.7064 75.9123L63.3136 74.4282ZM63.3496 63.6282L60.7597 62.1142L60.751 62.1291L60.7424 62.1441L63.3496 63.6282ZM67.0576 60.0282L68.4799 62.6697L68.4955 62.6612L68.5111 62.6526L67.0576 60.0282ZM77.4976 60.0282L76.0441 62.6526L76.0596 62.6612L76.0753 62.6697L77.4976 60.0282ZM81.1696 63.6282L78.5624 65.1123L78.571 65.1274L78.5797 65.1423L81.1696 63.6282ZM81.1336 74.4282L78.5611 72.8848L78.5523 72.8994L78.5437 72.9142L81.1336 74.4282ZM77.3896 78.0642L78.8119 80.7057L78.819 80.7018L78.8261 80.6979L77.3896 78.0642ZM74.6896 74.2842L76.1262 76.9179L76.1396 76.9106L76.1531 76.9031L74.6896 74.2842ZM76.6336 72.2682L79.2727 73.6948L76.6336 72.2682ZM75.8416 64.6722L73.6704 66.7425L73.695 66.7683L73.7203 66.7936L75.8416 64.6722ZM68.5696 64.6722L66.3984 62.602L66.3972 62.6033L68.5696 64.6722ZM68.5336 73.4202L66.3114 75.4357L66.336 75.4628L66.3612 75.4892L68.5336 73.4202ZM72.1336 76.3242C70.6669 76.3242 69.4419 76.0079 68.389 75.4321L65.5102 80.6964C67.5293 81.8006 69.7603 82.3242 72.1336 82.3242V76.3242ZM68.4204 75.4495C67.3679 74.8575 66.5448 74.0404 65.9208 72.9441L60.7064 75.9123C61.8584 77.9361 63.4593 79.543 65.4788 80.679L68.4204 75.4495ZM65.938 72.9747C65.3539 71.9202 65.0176 70.6338 65.0176 69.0282H59.0176C59.0176 71.5027 59.5453 73.8163 60.6892 75.8817L65.938 72.9747ZM65.0176 69.0282C65.0176 67.4365 65.3597 66.1612 65.9568 65.1123L60.7424 62.1441C59.5635 64.2152 59.0176 66.54 59.0176 69.0282H65.0176ZM65.9395 65.1423C66.5791 64.0483 67.4153 63.2429 68.4799 62.6697L65.6353 57.3868C63.5798 58.4936 61.9441 60.0882 60.7597 62.1142L65.9395 65.1423ZM68.5111 62.6526C69.5924 62.0537 70.826 61.7322 72.2776 61.7322V55.7322C69.8892 55.7322 67.6428 56.2748 65.6041 57.4039L68.5111 62.6526ZM72.2776 61.7322C73.7292 61.7322 74.9628 62.0537 76.0441 62.6526L78.9511 57.4039C76.9124 56.2748 74.666 55.7322 72.2776 55.7322V61.7322ZM76.0753 62.6697C77.1327 63.239 77.9491 64.0349 78.5624 65.1123L83.7768 62.1441C82.6141 60.1016 80.9825 58.4975 78.9199 57.3868L76.0753 62.6697ZM78.5797 65.1423C79.1899 66.186 79.5376 67.4504 79.5376 69.0282H85.5376C85.5376 66.5261 84.9733 64.1904 83.7595 62.1142L78.5797 65.1423ZM79.5376 69.0282C79.5376 70.5921 79.1845 71.8458 78.5611 72.8848L83.7061 75.9717C84.9547 73.8907 85.5376 71.5443 85.5376 69.0282H79.5376ZM78.5437 72.9142C77.9067 74.0037 77.0572 74.8283 75.953 75.4306L78.8261 80.6979C80.89 79.5722 82.5365 77.9727 83.7235 75.9423L78.5437 72.9142ZM75.9673 75.4228C74.8859 76.0051 73.6304 76.3242 72.1336 76.3242V82.3242C74.5247 82.3242 76.7733 81.8034 78.8119 80.7057L75.9673 75.4228ZM72.1336 77.9322C73.5418 77.9322 74.8885 77.593 76.1262 76.9179L73.253 71.6506C72.9067 71.8395 72.5494 71.9322 72.1336 71.9322V77.9322ZM76.1531 76.9031C77.506 76.147 78.5445 75.0421 79.2727 73.6948L73.9945 70.8417C73.7627 71.2704 73.5052 71.5094 73.2261 71.6654L76.1531 76.9031ZM79.2727 73.6948C80.0434 72.2691 80.3536 70.6714 80.3536 69.0282H74.3536C74.3536 69.9291 74.1838 70.4914 73.9945 70.8417L79.2727 73.6948ZM80.3536 69.0282C80.3536 66.6081 79.7001 64.2882 77.9629 62.5509L73.7203 66.7936C73.999 67.0723 74.3536 67.6564 74.3536 69.0282H80.3536ZM78.0128 62.602C76.4564 60.9696 74.4568 60.1242 72.2056 60.1242V66.1242C72.8343 66.1242 73.2588 66.3108 73.6704 66.7425L78.0128 62.602ZM72.2056 60.1242C69.9543 60.1242 67.9548 60.9696 66.3984 62.602L70.7408 66.7425C71.1524 66.3108 71.5769 66.1242 72.2056 66.1242V60.1242ZM66.3972 62.6033C64.738 64.3454 64.1296 66.6458 64.1296 69.0282H70.1296C70.1296 67.6187 70.4812 67.0151 70.742 66.7412L66.3972 62.6033ZM64.1296 69.0282C64.1296 71.3976 64.7182 73.679 66.3114 75.4357L70.7558 71.4048C70.477 71.0975 70.1296 70.4509 70.1296 69.0282H64.1296ZM66.3612 75.4892C67.909 77.1144 69.9044 77.9322 72.1336 77.9322V71.9322C71.4827 71.9322 71.0782 71.742 70.706 71.3513L66.3612 75.4892ZM90.0866 78.0642L88.6158 80.679L88.6315 80.6878L88.6472 80.6964L90.0866 78.0642ZM86.4506 74.4282L83.8262 75.8817L83.8348 75.8971L83.8434 75.9123L86.4506 74.4282ZM86.4866 63.6282L83.8967 62.1142L83.888 62.1291L83.8794 62.1441L86.4866 63.6282ZM90.1946 60.0282L91.6169 62.6697L91.6326 62.6612L91.6481 62.6526L90.1946 60.0282ZM100.635 60.0282L99.1811 62.6526L99.1967 62.6612L99.2123 62.6697L100.635 60.0282ZM104.307 63.6282L101.699 65.1123L101.708 65.1274L101.717 65.1423L104.307 63.6282ZM104.271 74.4282L101.698 72.8848L101.689 72.8994L101.681 72.9142L104.271 74.4282ZM100.527 78.0642L101.949 80.7057L101.956 80.7018L101.963 80.6979L100.527 78.0642ZM97.8266 74.2842L99.2632 76.9179L99.2767 76.9106L99.2901 76.9031L97.8266 74.2842ZM99.7706 72.2682L102.41 73.6948L99.7706 72.2682ZM98.9786 64.6722L96.8074 66.7425L96.8321 66.7683L96.8573 66.7936L98.9786 64.6722ZM91.7066 64.6722L89.5354 62.602L89.5342 62.6033L91.7066 64.6722ZM91.6706 73.4202L89.4485 75.4357L89.473 75.4628L89.4982 75.4892L91.6706 73.4202ZM95.2706 76.3242C93.8039 76.3242 92.579 76.0079 91.5261 75.4321L88.6472 80.6964C90.6663 81.8006 92.8973 82.3242 95.2706 82.3242V76.3242ZM91.5574 75.4495C90.5049 74.8575 89.6818 74.0404 89.0578 72.9441L83.8434 75.9123C84.9954 77.9361 86.5963 79.543 88.6158 80.679L91.5574 75.4495ZM89.075 72.9747C88.4909 71.9202 88.1546 70.6338 88.1546 69.0282H82.1546C82.1546 71.5027 82.6823 73.8163 83.8262 75.8817L89.075 72.9747ZM88.1546 69.0282C88.1546 67.4365 88.4968 66.1612 89.0938 65.1123L83.8794 62.1441C82.7005 64.2152 82.1546 66.54 82.1546 69.0282H88.1546ZM89.0765 65.1423C89.7161 64.0483 90.5524 63.2429 91.6169 62.6697L88.7723 57.3868C86.7169 58.4936 85.0811 60.0882 83.8967 62.1142L89.0765 65.1423ZM91.6481 62.6526C92.7294 62.0537 93.963 61.7322 95.4146 61.7322V55.7322C93.0263 55.7322 90.7798 56.2748 88.7411 57.4039L91.6481 62.6526ZM95.4146 61.7322C96.8663 61.7322 98.0998 62.0537 99.1811 62.6526L102.088 57.4039C100.049 56.2748 97.803 55.7322 95.4146 55.7322V61.7322ZM99.2123 62.6697C100.27 63.239 101.086 64.0349 101.699 65.1123L106.914 62.1441C105.751 60.1016 104.12 58.4975 102.057 57.3868L99.2123 62.6697ZM101.717 65.1423C102.327 66.186 102.675 67.4504 102.675 69.0282H108.675C108.675 66.5261 108.11 64.1904 106.897 62.1142L101.717 65.1423ZM102.675 69.0282C102.675 70.5921 102.322 71.8458 101.698 72.8848L106.843 75.9717C108.092 73.8907 108.675 71.5443 108.675 69.0282H102.675ZM101.681 72.9142C101.044 74.0037 100.194 74.8283 99.0901 75.4306L101.963 80.6979C104.027 79.5722 105.674 77.9727 106.861 75.9423L101.681 72.9142ZM99.1043 75.4228C98.0229 76.0051 96.7675 76.3242 95.2706 76.3242V82.3242C97.6618 82.3242 99.9103 81.8034 101.949 80.7057L99.1043 75.4228ZM95.2706 77.9322C96.6789 77.9322 98.0255 77.593 99.2632 76.9179L96.3901 71.6506C96.0437 71.8395 95.6864 71.9322 95.2706 71.9322V77.9322ZM99.2901 76.9031C100.643 76.147 101.681 75.0421 102.41 73.6948L97.1315 70.8417C96.8998 71.2704 96.6423 71.5094 96.3632 71.6654L99.2901 76.9031ZM102.41 73.6948C103.18 72.2691 103.491 70.6714 103.491 69.0282H97.4906C97.4906 69.9291 97.3208 70.4914 97.1315 70.8417L102.41 73.6948ZM103.491 69.0282C103.491 66.6081 102.837 64.2882 101.1 62.5509L96.8573 66.7936C97.1361 67.0723 97.4906 67.6564 97.4906 69.0282H103.491ZM101.15 62.602C99.5934 60.9696 97.5939 60.1242 95.3426 60.1242V66.1242C95.9714 66.1242 96.3959 66.3108 96.8074 66.7425L101.15 62.602ZM95.3426 60.1242C93.0914 60.1242 91.0919 60.9696 89.5354 62.602L93.8778 66.7425C94.2894 66.3108 94.7139 66.1242 95.3426 66.1242V60.1242ZM89.5342 62.6033C87.875 64.3454 87.2666 66.6458 87.2666 69.0282H93.2666C93.2666 67.6187 93.6182 67.0151 93.879 66.7412L89.5342 62.6033ZM87.2666 69.0282C87.2666 71.3976 87.8552 73.679 89.4485 75.4357L93.8928 71.4048C93.614 71.0975 93.2666 70.4509 93.2666 69.0282H87.2666ZM89.4982 75.4892C91.0461 77.1144 93.0415 77.9322 95.2706 77.9322V71.9322C94.6198 71.9322 94.2152 71.742 93.843 71.3513L89.4982 75.4892ZM112.792 78.4602L111.531 81.1826L111.552 81.1923L111.573 81.2017L112.792 78.4602ZM109.696 76.0482L107.282 77.8298L107.296 77.8482L107.309 77.8664L109.696 76.0482ZM108.472 72.7002V69.7002H105.29L105.477 72.8764L108.472 72.7002ZM113.548 72.7002L116.524 72.3281L116.196 69.7002H113.548V72.7002ZM114.664 74.6082L112.822 76.9763L112.843 76.9925L112.864 77.0082L114.664 74.6082ZM119.38 74.7882L117.666 72.3255L117.641 72.3435L117.615 72.362L119.38 74.7882ZM119.2 71.8722L117.819 74.5355L117.877 74.5657L117.936 74.5933L119.2 71.8722ZM116.068 70.7922L116.841 67.8935L116.807 67.8846L116.773 67.8764L116.068 70.7922ZM112.396 69.6762L111.257 72.4518L111.269 72.4568L111.281 72.4617L112.396 69.6762ZM109.948 67.9122L107.66 69.8532L107.677 69.873L107.694 69.8926L109.948 67.9122ZM109.876 61.6842L107.43 59.9466L107.415 59.9683L107.4 59.9902L109.876 61.6842ZM112.612 59.5242L111.403 56.7783L111.393 56.7828L111.383 56.7874L112.612 59.5242ZM122.512 60.5322L120.572 62.8209L120.583 62.8306L120.595 62.8401L122.512 60.5322ZM124.852 65.3202V68.3202H128.074L127.844 65.1065L124.852 65.3202ZM120.028 65.3202L117.04 65.5919L117.288 68.3202H120.028V65.3202ZM119.02 63.4482L117.099 65.7529L117.151 65.796L117.204 65.8367L119.02 63.4482ZM114.556 63.2322L112.892 60.7361L112.863 60.755L112.835 60.7745L114.556 63.2322ZM114.844 66.1842L113.427 68.8287L113.464 68.8486L113.502 68.8675L114.844 66.1842ZM117.976 67.2282L117.236 70.1358L117.248 70.1387L117.976 67.2282ZM123.952 70.1442L121.636 72.0514L121.666 72.0885L121.698 72.1246L123.952 70.1442ZM125.032 73.3122H128.032V73.285L128.031 73.2577L125.032 73.3122ZM124.06 76.4082L121.614 74.6706L121.599 74.6923L121.584 74.7142L124.06 76.4082ZM121.324 78.5682L122.505 81.3257L122.519 81.32L122.532 81.3142L121.324 78.5682ZM117.184 76.3242C115.908 76.3242 114.869 76.1005 114.01 75.7188L111.573 81.2017C113.306 81.972 115.195 82.3242 117.184 82.3242V76.3242ZM114.052 75.7378C113.142 75.3167 112.518 74.8024 112.082 74.2301L107.309 77.8664C108.409 79.3101 109.849 80.4038 111.531 81.1826L114.052 75.7378ZM112.109 74.2667C111.703 73.7154 111.504 73.1547 111.466 72.5241L105.477 72.8764C105.584 74.6938 106.201 76.365 107.282 77.8298L112.109 74.2667ZM108.472 75.7002H113.548V69.7002H108.472V75.7002ZM110.571 73.0723C110.772 74.6815 111.588 76.0167 112.822 76.9763L116.505 72.2402C116.475 72.2167 116.464 72.2041 116.465 72.2051C116.466 72.2066 116.476 72.2178 116.488 72.2386C116.501 72.2596 116.511 72.2821 116.517 72.3028C116.524 72.3231 116.525 72.3331 116.524 72.3281L110.571 73.0723ZM112.864 77.0082C114.14 77.9656 115.63 78.3642 117.148 78.3642V72.3642C116.697 72.3642 116.531 72.2589 116.464 72.2082L112.864 77.0082ZM117.148 78.3642C118.457 78.3642 119.913 78.1097 121.144 77.2145L117.615 72.362C117.705 72.2965 117.746 72.2973 117.676 72.3154C117.601 72.3348 117.435 72.3642 117.148 72.3642V78.3642ZM121.093 77.251C122.338 76.3849 123.208 75.0246 123.208 73.3122H117.208C117.208 73.132 117.255 72.8944 117.384 72.6635C117.507 72.4449 117.641 72.3434 117.666 72.3255L121.093 77.251ZM123.208 73.3122C123.208 72.4409 122.972 71.5432 122.413 70.7459C121.872 69.9726 121.153 69.4718 120.463 69.1512L117.936 74.5933C117.918 74.5847 117.703 74.4799 117.498 74.1866C117.276 73.8693 117.208 73.5356 117.208 73.3122H123.208ZM120.581 69.209C119.628 68.7152 118.321 68.2883 116.841 67.8935L115.295 73.6909C116.694 74.0642 117.475 74.3573 117.819 74.5355L120.581 69.209ZM116.773 67.8764C115.365 67.5357 114.29 67.2029 113.51 66.8908L111.281 72.4617C112.421 72.9175 113.794 73.3288 115.362 73.7081L116.773 67.8764ZM113.534 66.9007C113.044 66.6998 112.605 66.3915 112.201 65.9319L107.694 69.8926C108.682 71.017 109.875 71.8847 111.257 72.4518L113.534 66.9007ZM112.235 65.9713C112.144 65.8643 111.94 65.5543 111.94 64.7082H105.94C105.94 66.5502 106.407 68.3762 107.66 69.8532L112.235 65.9713ZM111.94 64.7082C111.94 64.2094 112.069 63.7918 112.352 63.3783L107.4 59.9902C106.435 61.4007 105.94 62.999 105.94 64.7082H111.94ZM112.321 63.4219C112.615 63.008 113.076 62.6041 113.84 62.2611L111.383 56.7874C109.795 57.5004 108.432 58.5365 107.43 59.9466L112.321 63.4219ZM113.82 62.2702C114.563 61.9431 115.54 61.7322 116.824 61.7322V55.7322C114.892 55.7322 113.06 56.0493 111.403 56.7783L113.82 62.2702ZM116.824 61.7322C118.693 61.7322 119.835 62.1965 120.572 62.8209L124.451 58.2436C122.356 56.4679 119.706 55.7322 116.824 55.7322V61.7322ZM120.595 62.8401C121.317 63.4397 121.767 64.245 121.859 65.534L127.844 65.1065C127.648 62.3635 126.538 59.9768 124.428 58.2244L120.595 62.8401ZM124.852 62.3202H120.028V68.3202H124.852V62.3202ZM123.015 65.0486C122.872 63.47 122.146 62.0564 120.835 61.0598L117.204 65.8367C117.199 65.8323 117.179 65.8163 117.153 65.7865C117.127 65.7564 117.102 65.7202 117.08 65.6805C117.034 65.5952 117.036 65.5496 117.04 65.5919L123.015 65.0486ZM120.94 61.1436C119.676 60.0902 118.144 59.7282 116.68 59.7282V65.7282C116.932 65.7282 117.068 65.7594 117.12 65.7756C117.164 65.7891 117.143 65.7891 117.099 65.7529L120.94 61.1436ZM116.68 59.7282C115.456 59.7282 114.079 59.9444 112.892 60.7361L116.22 65.7284C116.123 65.7931 116.082 65.7911 116.157 65.7732C116.236 65.7546 116.401 65.7282 116.68 65.7282V59.7282ZM112.835 60.7745C111.531 61.6878 110.836 63.0854 110.836 64.6362H116.836C116.836 64.7448 116.811 64.9583 116.685 65.2042C116.558 65.4527 116.39 65.6102 116.276 65.6899L112.835 60.7745ZM110.836 64.6362C110.836 65.4982 111.06 66.3748 111.574 67.1643C112.075 67.9343 112.751 68.4664 113.427 68.8287L116.26 63.5398C116.265 63.542 116.436 63.6362 116.602 63.8902C116.78 64.1636 116.836 64.4463 116.836 64.6362H110.836ZM113.502 68.8675C114.471 69.3518 115.769 69.7625 117.236 70.1357L118.715 64.3207C117.351 63.9739 116.561 63.6887 116.185 63.501L113.502 68.8675ZM117.248 70.1387C118.606 70.4782 119.645 70.8094 120.401 71.1198L122.678 65.5687C121.563 65.1111 120.225 64.6983 118.703 64.3178L117.248 70.1387ZM120.401 71.1198C120.858 71.3073 121.264 71.5998 121.636 72.0514L126.267 68.2371C125.295 67.0567 124.093 66.1492 122.678 65.5687L120.401 71.1198ZM121.698 72.1246C121.817 72.2593 122.018 72.5723 122.032 73.3668L128.031 73.2577C127.998 71.4122 127.479 69.6132 126.205 68.1639L121.698 72.1246ZM122.032 73.3122C122.032 73.8613 121.89 74.2821 121.614 74.6706L126.505 78.1459C127.525 76.7104 128.032 75.0672 128.032 73.3122H122.032ZM121.584 74.7142C121.331 75.0842 120.9 75.4773 120.115 75.8223L122.532 81.3142C124.148 80.6032 125.541 79.5563 126.536 78.1023L121.584 74.7142ZM120.142 75.8108C119.417 76.1215 118.455 76.3242 117.184 76.3242V82.3242C119.08 82.3242 120.878 82.023 122.505 81.3257L120.142 75.8108ZM147.745 70.5402V73.5402H150.286L150.704 71.0334L147.745 70.5402ZM133.165 70.5402V67.5402H129.904L130.175 70.7894L133.165 70.5402ZM134.677 73.9242L132.647 76.1332L134.677 73.9242ZM141.949 72.7362V69.7362H140.082L139.258 71.4107L141.949 72.7362ZM147.385 72.7362L150.258 73.5983L151.417 69.7362H147.385V72.7362ZM144.073 77.4882L145.873 79.8882L145.884 79.8798L145.895 79.8713L144.073 77.4882ZM132.877 78.0642L131.388 80.669L131.413 80.6829L131.437 80.6964L132.877 78.0642ZM129.313 74.4282L126.671 75.8505L126.68 75.8662L126.688 75.8817L129.313 74.4282ZM129.313 63.5922L126.671 62.1699L129.313 63.5922ZM132.841 59.9922L134.298 62.6147L132.841 59.9922ZM143.137 59.9562L141.694 62.5867L141.703 62.5915L141.712 62.5963L143.137 59.9562ZM146.629 63.4482L143.989 64.873L144.002 64.8982L144.016 64.923L146.629 63.4482ZM142.669 67.1562V70.1562H145.725L145.668 67.1007L142.669 67.1562ZM141.265 64.0602L139.298 66.3253L139.315 66.3403L139.332 66.355L141.265 64.0602ZM134.749 64.0242L136.738 66.27L136.742 66.2665L134.749 64.0242ZM133.201 67.1562L130.231 66.732L129.742 70.1562H133.201V67.1562ZM144.889 68.5962C144.889 69.1875 144.849 69.6664 144.786 70.047L150.704 71.0334C150.833 70.262 150.889 69.445 150.889 68.5962H144.889ZM147.745 67.5402H133.165V73.5402H147.745V67.5402ZM130.175 70.7894C130.345 72.8227 131.098 74.71 132.647 76.1332L136.707 71.7153C136.48 71.5065 136.225 71.1378 136.154 70.2911L130.175 70.7894ZM132.647 76.1332C134.132 77.4979 135.966 78.1482 137.953 78.1482V72.1482C137.347 72.1482 136.998 71.9826 136.707 71.7153L132.647 76.1332ZM137.953 78.1482C139.324 78.1482 140.685 77.8505 141.906 77.1136C143.135 76.372 144.03 75.3005 144.64 74.0618L139.258 71.4107C139.076 71.7799 138.909 71.9145 138.806 71.9769C138.694 72.0439 138.454 72.1482 137.953 72.1482V78.1482ZM141.949 75.7362H147.385V69.7362H141.949V75.7362ZM144.511 71.8742C144.122 73.1732 143.394 74.2306 142.25 75.1052L145.895 79.8713C148.016 78.2499 149.496 76.1393 150.258 73.5983L144.511 71.8742ZM142.273 75.0882C141.242 75.8611 139.899 76.3242 138.061 76.3242V82.3242C140.975 82.3242 143.639 81.5634 145.873 79.8882L142.273 75.0882ZM138.061 76.3242C136.594 76.3242 135.369 76.0079 134.316 75.4321L131.437 80.6964C133.457 81.8006 135.688 82.3242 138.061 82.3242V76.3242ZM134.365 75.4595C133.342 74.8748 132.542 74.0664 131.937 72.9747L126.688 75.8817C127.812 77.9101 129.388 79.5257 131.388 80.669L134.365 75.4595ZM131.954 73.0059C131.383 71.9452 131.053 70.6475 131.053 69.0282H125.053C125.053 71.489 125.563 73.7913 126.671 75.8505L131.954 73.0059ZM131.053 69.0282C131.053 67.3785 131.386 66.0703 131.954 65.0145L126.671 62.1699C125.56 64.2342 125.053 66.55 125.053 69.0282H131.053ZM131.954 65.0145C132.529 63.9466 133.3 63.169 134.298 62.6147L131.384 57.3698C129.358 58.4954 127.776 60.1179 126.671 62.1699L131.954 65.0145ZM134.298 62.6147C135.306 62.0547 136.531 61.7322 138.061 61.7322V55.7322C135.654 55.7322 133.4 56.2497 131.384 57.3698L134.298 62.6147ZM138.061 61.7322C139.513 61.7322 140.698 62.0405 141.694 62.5867L144.579 57.3258C142.599 56.24 140.401 55.7322 138.061 55.7322V61.7322ZM141.712 62.5963C142.709 63.1344 143.451 63.876 143.989 64.873L149.269 62.0234C148.175 59.9965 146.589 58.4101 144.562 57.3162L141.712 62.5963ZM144.016 64.923C144.569 65.902 144.889 67.0968 144.889 68.5962H150.889C150.889 66.2077 150.369 63.9705 149.241 61.9735L144.016 64.923ZM145.668 67.1007C145.63 65.0243 144.834 63.1436 143.197 61.7655L139.332 66.355C139.52 66.5129 139.66 66.6962 139.669 67.2118L145.668 67.1007ZM143.232 61.7951C141.722 60.4839 139.887 59.8722 137.917 59.8722V65.8722C138.586 65.8722 138.984 66.0526 139.298 66.3253L143.232 61.7951ZM137.917 59.8722C135.998 59.8722 134.215 60.4853 132.756 61.782L136.742 66.2665C137.011 66.0272 137.34 65.8722 137.917 65.8722V59.8722ZM132.76 61.7785C131.281 63.088 130.502 64.8378 130.231 66.732L136.171 67.5805C136.284 66.7867 136.536 66.4485 136.738 66.27L132.76 61.7785ZM133.201 70.1562H142.669V64.1562H133.201V70.1562ZM16.452 97.8722H19.452V94.8722H16.452V97.8722ZM17.784 117.348L15.6346 119.441L15.6485 119.455L15.6627 119.47L17.784 117.348ZM25.308 117.348L27.4293 119.47L27.4435 119.455L27.4574 119.441L25.308 117.348ZM26.64 97.8722V94.8722H23.64V97.8722H26.64ZM31.716 97.8722H34.716V94.8722H31.716V97.8722ZM30.312 118.824L27.7726 117.227L27.7657 117.238L30.312 118.824ZM26.604 122.136L25.3126 119.428L25.3044 119.432L25.2962 119.436L26.604 122.136ZM16.344 122.136L15.0195 124.828L15.0278 124.832L15.0362 124.836L16.344 122.136ZM12.744 118.824L10.1679 120.362L10.1734 120.371L10.179 120.38L12.744 118.824ZM11.412 97.8722V94.8722H8.412V97.8722H11.412ZM13.452 97.8722V113.424H19.452V97.8722H13.452ZM13.452 113.424C13.452 115.638 14.037 117.8 15.6346 119.441L19.9334 115.255C19.755 115.072 19.452 114.618 19.452 113.424H13.452ZM15.6627 119.47C17.2595 121.066 19.3581 121.68 21.528 121.68V115.68C20.4819 115.68 20.0845 115.406 19.9053 115.227L15.6627 119.47ZM21.528 121.68C23.7072 121.68 25.8245 121.074 27.4293 119.47L23.1867 115.227C23.0155 115.398 22.6128 115.68 21.528 115.68V121.68ZM27.4574 119.441C29.055 117.8 29.64 115.638 29.64 113.424H23.64C23.64 114.618 23.337 115.072 23.1586 115.255L27.4574 119.441ZM29.64 113.424V97.8722H23.64V113.424H29.64ZM26.64 100.872H31.716V94.8722H26.64V100.872ZM28.716 97.8722V113.388H34.716V97.8722H28.716ZM28.716 113.388C28.716 115.081 28.3486 116.311 27.7726 117.227L32.8514 120.422C34.1474 118.361 34.716 115.967 34.716 113.388H28.716ZM27.7657 117.238C27.157 118.215 26.3569 118.93 25.3126 119.428L27.8954 124.844C29.9711 123.854 31.643 122.361 32.8583 120.41L27.7657 117.238ZM25.2962 119.436C24.2113 119.962 22.9498 120.252 21.456 120.252V126.252C23.7542 126.252 25.9247 125.799 27.9118 124.836L25.2962 119.436ZM21.456 120.252C19.9925 120.252 18.7419 119.964 17.6518 119.436L15.0362 124.836C17.0181 125.796 19.1755 126.252 21.456 126.252V120.252ZM17.6685 119.444C16.6786 118.957 15.9054 118.252 15.309 117.268L10.179 120.38C11.3586 122.325 12.9854 123.827 15.0195 124.828L17.6685 119.444ZM15.3201 117.287C14.7674 116.361 14.412 115.108 14.412 113.388H8.412C8.412 115.94 8.94458 118.312 10.1679 120.362L15.3201 117.287ZM14.412 113.388V97.8722H8.412V113.388H14.412ZM11.412 100.872H16.452V94.8722H11.412V100.872ZM40.0056 122.46L38.7452 125.183L38.7661 125.192L38.7871 125.202L40.0056 122.46ZM36.9096 120.048L34.4958 121.83L34.5094 121.848L34.5233 121.866L36.9096 120.048ZM35.6856 116.7V113.7H32.5039L32.6907 116.876L35.6856 116.7ZM40.7616 116.7L43.7384 116.328L43.4099 113.7H40.7616V116.7ZM41.8776 118.608L40.0357 120.976L40.0565 120.992L40.0776 121.008L41.8776 118.608ZM46.5936 118.788L44.8804 116.326L44.8545 116.344L44.829 116.362L46.5936 118.788ZM46.4136 115.872L45.0326 118.536L45.0908 118.566L45.1502 118.593L46.4136 115.872ZM43.2816 114.792L44.0546 111.894L44.0209 111.885L43.987 111.876L43.2816 114.792ZM39.6096 113.676L38.4709 116.452L38.4831 116.457L38.4954 116.462L39.6096 113.676ZM37.1616 111.912L34.874 113.853L34.8909 113.873L34.9081 113.893L37.1616 111.912ZM37.0896 105.684L34.644 103.947L34.6286 103.968L34.6136 103.99L37.0896 105.684ZM39.8256 103.524L38.6173 100.778L38.6071 100.783L38.5968 100.787L39.8256 103.524ZM49.7256 104.532L47.786 106.821L47.7974 106.831L47.8089 106.84L49.7256 104.532ZM52.0656 109.32V112.32H55.2875L55.0579 109.107L52.0656 109.32ZM47.2416 109.32L44.2539 109.592L44.5019 112.32H47.2416V109.32ZM46.2336 107.448L44.313 109.753L44.3647 109.796L44.4183 109.837L46.2336 107.448ZM41.7696 107.232L40.1055 104.736L40.0771 104.755L40.0492 104.775L41.7696 107.232ZM42.0576 110.184L40.6409 112.829L40.6781 112.849L40.7159 112.868L42.0576 110.184ZM45.1896 111.228L44.4504 114.136L44.462 114.139L45.1896 111.228ZM51.1656 114.144L48.8498 116.051L48.8803 116.088L48.9121 116.125L51.1656 114.144ZM52.2456 117.312H55.2456V117.285L55.2451 117.258L52.2456 117.312ZM51.2736 120.408L48.828 118.671L48.8126 118.692L48.7976 118.714L51.2736 120.408ZM48.5376 122.568L49.7193 125.326L49.7326 125.32L49.7458 125.314L48.5376 122.568ZM44.3976 120.324C43.1224 120.324 42.0828 120.101 41.224 119.719L38.7871 125.202C40.5203 125.972 42.4087 126.324 44.3976 126.324V120.324ZM41.2659 119.738C40.3563 119.317 39.7319 118.802 39.2959 118.23L34.5233 121.866C35.6232 123.31 37.0629 124.404 38.7452 125.183L41.2659 119.738ZM39.3233 118.267C38.9164 117.715 38.7175 117.155 38.6804 116.524L32.6907 116.876C32.7976 118.694 33.4147 120.365 34.4958 121.83L39.3233 118.267ZM35.6856 119.7H40.7616V113.7H35.6856V119.7ZM37.7847 117.072C37.9859 118.681 38.802 120.017 40.0357 120.976L43.7194 116.24C43.6892 116.217 43.6781 116.204 43.679 116.205C43.6804 116.207 43.69 116.218 43.7021 116.239C43.7144 116.26 43.7245 116.282 43.7314 116.303C43.7381 116.323 43.739 116.333 43.7384 116.328L37.7847 117.072ZM40.0776 121.008C41.3541 121.966 42.8438 122.364 44.3616 122.364V116.364C43.9114 116.364 43.745 116.259 43.6776 116.208L40.0776 121.008ZM44.3616 122.364C45.6709 122.364 47.1271 122.11 48.3581 121.214L44.829 116.362C44.9191 116.297 44.96 116.297 44.8899 116.315C44.8147 116.335 44.6486 116.364 44.3616 116.364V122.364ZM48.3068 121.251C49.5516 120.385 50.4216 119.025 50.4216 117.312H44.4216C44.4216 117.132 44.4686 116.894 44.5981 116.663C44.7207 116.445 44.8547 116.343 44.8804 116.326L48.3068 121.251ZM50.4216 117.312C50.4216 116.441 50.1854 115.543 49.6273 114.746C49.086 113.973 48.3674 113.472 47.6769 113.151L45.1502 118.593C45.1318 118.585 44.9171 118.48 44.7119 118.187C44.4897 117.869 44.4216 117.536 44.4216 117.312H50.4216ZM47.7945 113.209C46.8423 112.715 45.5348 112.288 44.0546 111.894L42.5086 117.691C43.9083 118.064 44.6889 118.357 45.0326 118.536L47.7945 113.209ZM43.987 111.876C42.5788 111.536 41.5041 111.203 40.7237 110.891L38.4954 116.462C39.635 116.918 41.0083 117.329 42.5761 117.708L43.987 111.876ZM40.7482 110.901C40.2584 110.7 39.819 110.392 39.4151 109.932L34.9081 113.893C35.8961 115.017 37.0887 115.885 38.4709 116.452L40.7482 110.901ZM39.4491 109.971C39.3583 109.864 39.1536 109.554 39.1536 108.708H33.1536C33.1536 110.55 33.6208 112.376 34.874 113.853L39.4491 109.971ZM39.1536 108.708C39.1536 108.209 39.2825 107.792 39.5655 107.378L34.6136 103.99C33.6486 105.401 33.1536 106.999 33.1536 108.708H39.1536ZM39.5351 107.422C39.8292 107.008 40.2903 106.604 41.0543 106.261L38.5968 100.787C37.0088 101.5 35.646 102.536 34.644 103.947L39.5351 107.422ZM41.0338 106.27C41.7771 105.943 42.7537 105.732 44.0376 105.732V99.7322C42.1054 99.7322 40.2741 100.049 38.6173 100.778L41.0338 106.27ZM44.0376 105.732C45.9067 105.732 47.0492 106.197 47.786 106.821L51.6651 102.244C49.5699 100.468 46.9204 99.7322 44.0376 99.7322V105.732ZM47.8089 106.84C48.5308 107.44 48.9811 108.245 49.0732 109.534L55.0579 109.107C54.862 106.364 53.7523 103.977 51.6423 102.224L47.8089 106.84ZM52.0656 106.32H47.2416V112.32H52.0656V106.32ZM50.2292 109.049C50.0857 107.47 49.3602 106.056 48.0488 105.06L44.4183 109.837C44.4124 109.832 44.3927 109.816 44.367 109.787C44.3409 109.756 44.3155 109.72 44.2942 109.681C44.2482 109.595 44.25 109.55 44.2539 109.592L50.2292 109.049ZM48.1541 105.144C46.8901 104.09 45.3575 103.728 43.8936 103.728V109.728C44.1459 109.728 44.2818 109.759 44.3343 109.776C44.3782 109.789 44.3565 109.789 44.313 109.753L48.1541 105.144ZM43.8936 103.728C42.6699 103.728 41.293 103.944 40.1055 104.736L43.4337 109.728C43.3366 109.793 43.2957 109.791 43.3712 109.773C43.4496 109.755 43.6148 109.728 43.8936 109.728V103.728ZM40.0492 104.775C38.7445 105.688 38.0496 107.085 38.0496 108.636H44.0496C44.0496 108.745 44.0251 108.958 43.899 109.204C43.7716 109.453 43.6039 109.61 43.4899 109.69L40.0492 104.775ZM38.0496 108.636C38.0496 109.498 38.2735 110.375 38.7876 111.164C39.289 111.934 39.9647 112.466 40.6409 112.829L43.4742 107.54C43.4784 107.542 43.6502 107.636 43.8156 107.89C43.9936 108.164 44.0496 108.446 44.0496 108.636H38.0496ZM40.7159 112.868C41.6845 113.352 42.9824 113.763 44.4504 114.136L45.9288 108.321C44.5647 107.974 43.7746 107.689 43.3992 107.501L40.7159 112.868ZM44.462 114.139C45.8202 114.478 46.8585 114.809 47.6149 115.12L49.8922 109.569C48.7767 109.111 47.439 108.698 45.9172 108.318L44.462 114.139ZM47.6149 115.12C48.0721 115.307 48.4779 115.6 48.8498 116.051L53.4814 112.237C52.5093 111.057 51.3071 110.149 49.8922 109.569L47.6149 115.12ZM48.9121 116.125C49.0304 116.259 49.2316 116.572 49.2461 117.367L55.2451 117.258C55.2115 115.412 54.6927 113.613 53.4191 112.164L48.9121 116.125ZM49.2456 117.312C49.2456 117.861 49.1041 118.282 48.828 118.671L53.7191 122.146C54.7391 120.71 55.2456 119.067 55.2456 117.312H49.2456ZM48.7976 118.714C48.5445 119.084 48.1135 119.477 47.3293 119.822L49.7458 125.314C51.3616 124.603 52.7546 123.556 53.7495 122.102L48.7976 118.714ZM47.3558 119.811C46.6308 120.122 45.6691 120.324 44.3976 120.324V126.324C46.294 126.324 48.0923 126.023 49.7193 125.326L47.3558 119.811ZM69.5948 99.0602L67.582 101.285L67.6005 101.302L67.6192 101.318L69.5948 99.0602ZM69.6308 110.04L71.5183 112.372L71.5294 112.363L71.5404 112.354L69.6308 110.04ZM63.6188 111.876V108.876H60.7705L60.6228 111.721L63.6188 111.876ZM63.4748 114.648V117.648H66.323L66.4707 114.804L63.4748 114.648ZM59.0468 114.648L56.048 114.736L56.1337 117.648H59.0468V114.648ZM58.8667 108.528V105.528H55.7772L55.868 108.616L58.8667 108.528ZM65.3107 107.7L63.9921 105.006L65.3107 107.7ZM66.0667 102.156L63.9043 104.236L63.9246 104.257L63.9454 104.278L66.0667 102.156ZM60.9907 102.12L58.9114 99.9577L58.8902 99.9781L58.8694 99.9989L60.9907 102.12ZM60.0908 104.604V107.604H63.0908V104.604H60.0908ZM55.3387 104.604L52.3392 104.653L52.3875 107.604H55.3387V104.604ZM56.2747 100.68L58.8895 102.151V102.151L56.2747 100.68ZM59.1188 97.9802L57.757 95.3071L57.7466 95.3124L57.7363 95.3178L59.1188 97.9802ZM58.9748 122.424L56.8534 124.546L56.8976 124.59L56.9436 124.632L58.9748 122.424ZM58.9748 118.212L61.0505 120.378L61.0523 120.376L58.9748 118.212ZM63.4388 118.212L61.3174 120.334L61.34 120.356L61.363 120.378L63.4388 118.212ZM63.4388 122.424L65.5145 124.59L65.5375 124.568L65.5601 124.546L63.4388 122.424ZM63.5828 100.008C65.5096 100.008 66.7387 100.522 67.582 101.285L71.6075 96.8356C69.4268 94.8626 66.6479 94.0082 63.5828 94.0082V100.008ZM67.6192 101.318C68.3948 101.997 68.8988 102.973 68.8988 104.64H74.8988C74.8988 101.556 73.8667 98.8119 71.5703 96.8025L67.6192 101.318ZM68.8988 104.64C68.8988 106.295 68.4035 107.163 67.7211 107.727L71.5404 112.354C73.882 110.421 74.8988 107.69 74.8988 104.64H68.8988ZM67.7432 107.709C66.9009 108.39 65.6252 108.876 63.6188 108.876V114.876C66.6043 114.876 69.3366 114.138 71.5183 112.372L67.7432 107.709ZM60.6228 111.721L60.4788 114.493L66.4707 114.804L66.6147 112.032L60.6228 111.721ZM63.4748 111.648H59.0468V117.648H63.4748V111.648ZM62.0455 114.56L61.8655 108.44L55.868 108.616L56.048 114.736L62.0455 114.56ZM58.8667 111.528H60.4868V105.528H58.8667V111.528ZM60.4868 111.528C62.7662 111.528 64.9051 111.239 66.6294 110.395L63.9921 105.006C63.4604 105.266 62.3833 105.528 60.4868 105.528V111.528ZM66.6294 110.395C67.6914 109.875 68.5917 109.078 69.1978 107.995C69.7886 106.939 70.0028 105.787 70.0028 104.676H64.0028C64.0028 105.03 63.9349 105.113 63.9617 105.065C63.9746 105.042 63.9954 105.015 64.0175 104.995C64.0379 104.976 64.037 104.984 63.9921 105.006L66.6294 110.395ZM70.0028 104.676C70.0028 102.992 69.483 101.33 68.1881 100.035L63.9454 104.278C63.9476 104.28 63.9483 104.277 63.9565 104.299C63.9683 104.331 64.0028 104.443 64.0028 104.676H70.0028ZM68.2292 100.077C66.943 98.7392 65.2626 98.2202 63.5828 98.2202V104.22C63.8176 104.22 63.9205 104.255 63.9379 104.262C63.9465 104.265 63.9416 104.264 63.9294 104.256C63.9171 104.248 63.908 104.239 63.9043 104.236L68.2292 100.077ZM63.5828 98.2202C61.9261 98.2202 60.2364 98.6837 58.9114 99.9577L63.0701 104.283C63.0522 104.3 63.0445 104.295 63.0908 104.279C63.1485 104.259 63.2985 104.22 63.5828 104.22V98.2202ZM58.8694 99.9989C57.5763 101.292 57.0908 102.958 57.0908 104.604H63.0908C63.0908 104.357 63.126 104.242 63.1363 104.213C63.1413 104.2 63.142 104.201 63.135 104.213C63.1278 104.224 63.1191 104.235 63.1121 104.242L58.8694 99.9989ZM60.0908 101.604H55.3387V107.604H60.0908V101.604ZM58.3383 104.555C58.3221 103.564 58.5296 102.791 58.8895 102.151L53.66 99.2095C52.7239 100.874 52.3074 102.716 52.3392 104.653L58.3383 104.555ZM58.8895 102.151C59.2328 101.541 59.7364 101.04 60.5012 100.643L57.7363 95.3178C56.0051 96.2167 54.6127 97.5158 53.66 99.2095L58.8895 102.151ZM60.4805 100.653C61.2565 100.258 62.2611 100.008 63.5828 100.008V94.0082C61.4964 94.0082 59.525 94.4064 57.757 95.3071L60.4805 100.653ZM61.2428 120.252C61.0914 120.252 61.0281 120.23 61.0206 120.227C61.0154 120.225 61.0155 120.225 61.0174 120.226C61.0193 120.227 61.0157 120.225 61.0059 120.216L56.9436 124.632C58.1644 125.755 59.6747 126.252 61.2428 126.252V120.252ZM61.0961 120.303C61.0886 120.295 61.0847 120.291 61.0834 120.289C61.0822 120.288 61.0832 120.289 61.0857 120.293C61.0882 120.296 61.0916 120.302 61.0953 120.309C61.099 120.316 61.1026 120.323 61.1056 120.331C61.1087 120.338 61.1109 120.345 61.1124 120.35C61.1138 120.355 61.1143 120.357 61.1141 120.357C61.114 120.356 61.1108 120.338 61.1108 120.3H55.1108C55.1108 121.908 55.6955 123.388 56.8534 124.546L61.0961 120.303ZM61.1108 120.3C61.1108 120.262 61.114 120.247 61.1134 120.25C61.1126 120.254 61.1089 120.271 61.0988 120.295C61.0886 120.32 61.0759 120.343 61.0633 120.361C61.0511 120.379 61.0444 120.384 61.0505 120.378L56.899 116.046C55.6985 117.197 55.1108 118.691 55.1108 120.3H61.1108ZM61.0523 120.376C61.0645 120.365 61.0691 120.362 61.0661 120.364C61.0629 120.366 61.0597 120.368 61.0597 120.368C61.0601 120.368 61.0715 120.363 61.0984 120.358C61.1259 120.354 61.1727 120.348 61.2428 120.348V114.348C59.638 114.348 58.1121 114.882 56.8972 116.048L61.0523 120.376ZM61.2428 120.348C61.3025 120.348 61.3383 120.353 61.3544 120.356C61.3699 120.359 61.3699 120.36 61.3594 120.356C61.3485 120.352 61.3356 120.345 61.324 120.337C61.3126 120.33 61.3105 120.327 61.3174 120.334L65.5601 116.091C64.368 114.899 62.8474 114.348 61.2428 114.348V120.348ZM61.363 120.378C61.3691 120.384 61.3624 120.379 61.3502 120.361C61.3376 120.343 61.3249 120.32 61.3147 120.295C61.3046 120.271 61.3009 120.254 61.3001 120.25C61.2995 120.247 61.3027 120.262 61.3027 120.3H67.3027C67.3027 118.691 66.715 117.197 65.5145 116.046L61.363 120.378ZM61.3027 120.3C61.3027 120.338 61.2995 120.356 61.2994 120.357C61.2992 120.357 61.2997 120.355 61.3011 120.35C61.3026 120.345 61.3048 120.338 61.3079 120.331C61.311 120.323 61.3145 120.316 61.3182 120.309C61.3219 120.302 61.3253 120.296 61.3278 120.293C61.3303 120.289 61.3313 120.288 61.3301 120.289C61.3288 120.291 61.3249 120.295 61.3174 120.303L65.5601 124.546C66.718 123.388 67.3027 121.908 67.3027 120.3H61.3027ZM61.363 120.258C61.359 120.262 61.3624 120.258 61.3729 120.252C61.3836 120.245 61.3935 120.24 61.3993 120.238C61.4141 120.233 61.3736 120.252 61.2428 120.252V126.252C62.8092 126.252 64.3149 125.74 65.5145 124.59L61.363 120.258Z" fill="#6C5FD4" mask="url(#path-1-outside-1_2_2952)"/>
</g>
<defs>
<filter id="filter0_d_2_2952" x="0.87851" y="5.36035" width="155.538" height="133.964" filterUnits="userSpaceOnUse" color-interpolation-filters="sRGB">
<feFlood flood-opacity="0" result="BackgroundImageFix"/>
<feColorMatrix in="SourceAlpha" type="matrix" values="0 0 0 0 0 0 0 0 0 0 0 0 0 0 0 0 0 0 127 0" result="hardAlpha"/>
<feOffset dy="8"/>
<feGaussianBlur stdDeviation="2.5"/>
<feComposite in2="hardAlpha" operator="out"/>
<feColorMatrix type="matrix" values="0 0 0 0 0.423529 0 0 0 0 0.372549 0 0 0 0 0.831373 0 0 0 1 0"/>
<feBlend mode="normal" in2="BackgroundImageFix" result="effect1_dropShadow_2_2952"/>
<feBlend mode="normal" in="SourceGraphic" in2="effect1_dropShadow_2_2952" result="shape"/>
</filter>
</defs>
</svg>
