<svg width="148" height="75" viewBox="0 0 148 75" fill="none" xmlns="http://www.w3.org/2000/svg">
<path d="M4.01843 43.6259H8.20554V64.1566H4.01843V43.6259Z" fill="#939393"/>
<path d="M10.6349 57.1222C10.6321 55.6476 11.0669 54.2052 11.8841 52.9777C12.7014 51.7502 13.8644 50.7928 15.2261 50.2265C16.5876 49.6603 18.0866 49.5107 19.5333 49.7967C20.98 50.0827 22.3093 50.7914 23.353 51.8333C24.3967 52.875 25.108 54.203 25.3966 55.6491C25.6854 57.0952 25.5386 58.5945 24.9749 59.9572C24.4112 61.3198 23.456 62.4846 22.23 63.3042C21.0041 64.1239 19.5626 64.5612 18.088 64.5612C17.1071 64.5725 16.1342 64.3879 15.2258 64.0181C14.3174 63.6484 13.492 63.1011 12.7978 62.4082C12.1037 61.7155 11.5548 60.891 11.1834 59.9832C10.812 59.0756 10.6255 58.1029 10.6349 57.1222ZM21.3259 57.1222C21.3094 56.4856 21.1056 55.868 20.74 55.3467C20.3743 54.8252 19.8631 54.4234 19.2701 54.191C18.6771 53.9587 18.0288 53.9065 17.4064 54.0407C16.7839 54.1749 16.2149 54.4897 15.7703 54.9457C15.3258 55.4017 15.0257 55.9787 14.9073 56.6045C14.789 57.2301 14.8579 57.8769 15.1052 58.4637C15.3526 59.0505 15.7675 59.5514 16.2979 59.9036C16.8285 60.2558 17.4511 60.4438 18.088 60.4439C18.5235 60.4562 18.957 60.378 19.361 60.2142C19.7649 60.0505 20.1306 59.8048 20.4349 59.4927C20.7391 59.1805 20.9754 58.8088 21.1287 58.4009C21.2821 57.9928 21.3492 57.5575 21.3259 57.1222Z" fill="#939393"/>
<path d="M42.3729 50.088V63.4587C42.3729 68.1902 38.6743 70.1861 34.9339 70.1861C33.6186 70.2839 32.3017 70.0179 31.1274 69.4172C29.9531 68.8165 28.9668 67.9043 28.2764 66.7806L31.8773 64.701C32.163 65.2768 32.6152 65.7538 33.175 66.0698C33.7349 66.3858 34.3768 66.5265 35.0177 66.4734C35.4392 66.5438 35.8714 66.5163 36.2808 66.393C36.6902 66.2699 37.0658 66.0544 37.3787 65.7631C37.6914 65.4718 37.9332 65.1125 38.0853 64.713C38.2374 64.3135 38.2956 63.8844 38.2556 63.4587V62.1607C37.7634 62.7664 37.1352 63.2475 36.4224 63.5651C35.7095 63.8828 34.9318 64.0281 34.1523 63.9892C32.257 63.9892 30.4395 63.2363 29.0992 61.8962C27.7591 60.556 27.0062 58.7384 27.0062 56.8431C27.0062 54.9478 27.7591 53.1303 29.0992 51.7902C30.4395 50.4501 32.257 49.6972 34.1523 49.6972C34.9314 49.6616 35.7079 49.8083 36.4203 50.1257C37.1327 50.4431 37.7612 50.9225 38.2556 51.5255V50.1298L42.3729 50.088ZM38.2556 56.8431C38.2835 56.1644 38.1076 55.4928 37.7508 54.9146C37.3939 54.3365 36.8723 53.8783 36.253 53.5992C35.6337 53.3198 34.945 53.2322 34.2754 53.3474C33.6059 53.4626 32.9861 53.7755 32.4959 54.2456C32.0055 54.7159 31.667 55.3221 31.5239 55.9862C31.3807 56.6502 31.4395 57.3421 31.6927 57.9725C31.9459 58.603 32.3818 59.1432 32.9445 59.5239C33.5071 59.9048 34.1708 60.1085 34.8501 60.1091C35.2936 60.1404 35.7387 60.0786 36.1566 59.9274C36.5748 59.7762 36.9565 59.5393 37.2774 59.2316C37.5981 58.9239 37.851 58.5523 38.0195 58.141C38.188 57.7296 38.2684 57.2875 38.2556 56.8431Z" fill="#939393"/>
<path d="M44.7872 57.1223C44.7844 55.6477 45.2192 54.2053 46.0364 52.9778C46.8538 51.7503 48.0168 50.7928 49.3784 50.2266C50.7399 49.6604 52.2389 49.5108 53.6856 49.7968C55.1323 50.0828 56.4616 50.7915 57.5054 51.8334C58.549 52.8751 59.2603 54.2031 59.5491 55.6491C59.8377 57.0952 59.691 58.5945 59.1272 59.9573C58.5635 61.3199 57.6083 62.4847 56.3824 63.3043C55.1564 64.124 53.7149 64.5613 52.2403 64.5613C51.2596 64.5725 50.2865 64.3879 49.3781 64.0181C48.4697 63.6485 47.6442 63.1012 46.9501 62.4083C46.2561 61.7155 45.7071 60.8911 45.3357 59.9833C44.9643 59.0756 44.7777 58.103 44.7872 57.1223ZM55.4783 57.1223C55.4618 56.4857 55.2579 55.868 54.8923 55.3468C54.5266 54.8253 54.0154 54.4234 53.4224 54.1911C52.8295 53.9587 52.1813 53.9066 51.5588 54.0408C50.9362 54.175 50.3672 54.4898 49.9226 54.9458C49.4781 55.4017 49.178 55.9787 49.0596 56.6045C48.9413 57.2302 49.0102 57.877 49.2575 58.4637C49.5049 59.0505 49.9198 59.5514 50.4502 59.9036C50.9808 60.2558 51.6034 60.4438 52.2403 60.444C52.6736 60.4523 53.104 60.3713 53.5047 60.2057C53.9052 60.0402 54.2675 59.794 54.5687 59.4822C54.87 59.1707 55.1036 58.8001 55.2554 58.3941C55.4071 57.9881 55.4734 57.5551 55.4504 57.1223H55.4783Z" fill="#939393"/>
<path d="M61.6329 46.3196C61.6329 45.8173 61.7819 45.3261 62.061 44.9084C62.3402 44.4907 62.7369 44.1651 63.201 43.9728C63.6652 43.7805 64.1759 43.7303 64.6686 43.8283C65.1614 43.9263 65.614 44.1682 65.9693 44.5234C66.3246 44.8787 66.5664 45.3313 66.6644 45.8241C66.7625 46.3168 66.7121 46.8276 66.52 47.2917C66.3277 47.7558 66.0021 48.1527 65.5844 48.4317C65.1666 48.7108 64.6756 48.8598 64.1731 48.8598C63.5006 48.8562 62.8566 48.5874 62.381 48.1117C61.9053 47.6363 61.6366 46.9923 61.6329 46.3196ZM62.0655 50.088H66.2526V64.1567H62.0655V50.088Z" fill="#939393"/>
<path d="M84.5088 57.1222C84.5595 58.0522 84.4259 58.9831 84.1156 59.8611C83.805 60.7392 83.3241 61.5473 82.7001 62.2387C82.076 62.9301 81.3215 63.4913 80.4798 63.8899C79.638 64.2885 78.7258 64.5168 77.7955 64.5614C77.0146 64.5988 76.2348 64.4646 75.5114 64.1679C74.7879 63.8713 74.1383 63.4196 73.6085 62.8447V69.8231H69.4214V50.0879H73.6085V51.4138C74.1383 50.8389 74.7879 50.3872 75.5114 50.0906C76.2348 49.7939 77.0146 49.6597 77.7955 49.6971C78.7246 49.7417 79.6357 49.9695 80.4764 50.3672C81.3172 50.7651 82.0712 51.325 82.6949 52.0149C83.3188 52.7049 83.8 53.5111 84.1113 54.3876C84.4227 55.2641 84.5578 56.1934 84.5088 57.1222ZM80.3218 57.1222C80.3052 56.4672 80.0968 55.8313 79.7224 55.2935C79.3481 54.7558 78.8242 54.3394 78.2157 54.0964C77.6072 53.8533 76.9407 53.794 76.2989 53.926C75.657 54.0579 75.0679 54.3752 74.6045 54.8385C74.1411 55.3019 73.824 55.8909 73.692 56.5328C73.5601 57.1747 73.6194 57.8411 73.8624 58.4496C74.1055 59.0581 74.5217 59.5821 75.0596 59.9563C75.5974 60.3307 76.2333 60.5391 76.8883 60.5557C77.3455 60.5848 77.8035 60.5156 78.2319 60.353C78.66 60.1903 79.0485 59.9379 79.3711 59.6127C79.6936 59.2874 79.943 58.8969 80.1021 58.4674C80.2612 58.0379 80.3266 57.5792 80.2938 57.1222H80.3218Z" fill="#939393"/>
<path d="M97.5449 59.9416C97.5449 63.1797 94.7536 64.5613 91.683 64.5613C90.4564 64.67 89.2253 64.409 88.1483 63.812C87.0714 63.215 86.1976 62.3094 85.6396 61.2117L89.2964 59.1321C89.4448 59.6398 89.7626 60.0815 90.1967 60.3836C90.6309 60.6857 91.1553 60.8302 91.683 60.793C92.7019 60.793 93.2043 60.472 93.2043 59.9137C93.2043 58.3644 86.2258 59.188 86.2258 54.3309C86.2258 51.2604 88.8218 49.7111 91.8086 49.7111C92.9108 49.6777 94.0018 49.9394 94.9688 50.4696C95.9357 50.9996 96.7431 51.7787 97.3077 52.7258L93.6371 54.652C93.4749 54.2833 93.2092 53.9697 92.8722 53.7492C92.5352 53.5287 92.1416 53.4107 91.7388 53.4097C91.0131 53.4097 90.5665 53.6889 90.5665 54.2053C90.6223 55.8103 97.5449 54.7356 97.5449 59.9416Z" fill="#939393"/>
<path d="M112.953 50.088V64.1566H108.766V62.8447C108.279 63.4277 107.661 63.887 106.962 64.1854C106.264 64.4839 105.505 64.6126 104.747 64.5614C101.955 64.5614 99.4849 62.5376 99.4849 58.7274V50.088H103.672V58.1133C103.635 58.4553 103.675 58.8012 103.789 59.1259C103.902 59.4506 104.086 59.7459 104.328 59.9905C104.57 60.2351 104.864 60.4227 105.187 60.5398C105.51 60.657 105.856 60.7004 106.198 60.6675C107.734 60.6675 108.808 59.7741 108.808 57.7784V50.088H112.953Z" fill="#939393"/>
<path d="M137.154 55.531V64.1565H132.967V55.894C132.967 54.4984 132.283 53.5771 130.943 53.5771C129.603 53.5771 128.738 54.5681 128.738 56.229V64.1565H124.551V55.894C124.551 54.4984 123.881 53.5771 122.527 53.5771C121.173 53.5771 120.336 54.5681 120.336 56.229V64.1565H116.149V50.0879H120.336V51.3859C120.774 50.8126 121.348 50.3578 122.006 50.063C122.664 49.768 123.385 49.6422 124.104 49.6972C124.827 49.662 125.546 49.8147 126.191 50.1398C126.837 50.4651 127.387 50.9521 127.789 51.5534C128.256 50.9248 128.875 50.4248 129.588 50.1002C130.3 49.7756 131.084 49.6369 131.864 49.6972C135.047 49.6972 137.154 52.014 137.154 55.531Z" fill="#939393"/>
<path d="M140.728 50.0043C142.455 50.0043 143.854 48.6045 143.854 46.8778C143.854 45.1512 142.455 43.7515 140.728 43.7515C139.002 43.7515 137.602 45.1512 137.602 46.8778C137.602 48.6045 139.002 50.0043 140.728 50.0043Z" fill="#939393"/>
<path d="M51.403 32.9768C59.489 32.9768 66.0438 26.4218 66.0438 18.3359C66.0438 10.25 59.489 3.69501 51.403 3.69501C43.3171 3.69501 36.7621 10.25 36.7621 18.3359C36.7621 26.4218 43.3171 32.9768 51.403 32.9768Z" fill="#939393"/>
<path d="M84.1314 32.9768C92.2174 32.9768 98.7722 26.4218 98.7722 18.3359C98.7722 10.25 92.2174 3.69501 84.1314 3.69501C76.0455 3.69501 69.4905 10.25 69.4905 18.3359C69.4905 26.4218 76.0455 32.9768 84.1314 32.9768Z" fill="#939393"/>
<path d="M33.3145 3.69501H4.04675V32.9628H33.3145V3.69501Z" fill="#939393"/>
</svg>
