<svg width="150" height="75" viewBox="0 0 150 75" fill="none" xmlns="http://www.w3.org/2000/svg">
<path d="M11.6418 16.2037C10.7209 13.8632 11.1207 11.172 11.969 8.90861C12.8615 6.52693 14.4156 4.15177 16.7384 2.89917C16.8537 5.409 16.087 7.88868 15.2493 10.1247C14.4959 12.1358 13.5715 14.2785 12.0451 15.9418C11.8106 17.202 11.6308 18.4588 11.5044 19.7098C12.0103 18.3882 12.8306 17.1836 13.8542 16.215C15.172 14.9678 17.1323 14.0054 18.9724 14.5745C18.4334 16.6086 17.2049 18.5584 15.75 19.9263C14.6048 21.0029 13.093 22.3825 11.3123 22.4367C11.239 24.2777 11.2804 26.1018 11.4319 27.9012C11.6831 26.5844 12.2214 25.3444 12.9991 24.421C14.0674 23.1522 15.6515 21.602 17.6746 21.8613C17.5641 23.92 16.7429 26.0293 15.5993 27.6143C14.6906 28.8739 13.4909 30.4792 11.7881 30.8939C12.0608 32.662 12.4406 34.4008 12.9224 36.1021C12.927 34.7994 13.2148 33.5207 13.7856 32.4951C14.5901 31.0489 15.8432 29.2453 17.8685 29.1042C18.1654 31.1239 17.7632 33.3318 16.9517 35.0879C16.3031 36.4915 15.4384 38.2815 13.8623 39.0221C14.5242 40.8526 15.3074 42.632 16.2054 44.3495C15.8901 42.8691 15.9027 41.3092 16.2759 39.9057C16.79 37.9708 18.0664 35.9383 20.1156 35.3485C20.8399 37.4846 20.74 39.8686 20.3192 42.0398C19.9729 43.8275 19.2925 45.9271 17.7672 47.0883C18.7644 48.6975 19.8675 50.2419 21.0706 51.7114C20.4242 50.2702 20.1029 48.6941 20.2753 47.251C20.5264 45.1488 21.1171 42.8999 23.2644 41.7791C24.4826 43.881 24.7648 46.239 24.8683 48.5681C24.952 50.451 24.6808 52.7734 23.3731 54.3051C24.8115 55.8007 26.3636 57.2004 28.0214 58.4911C26.9511 57.1182 26.2017 55.5072 26.043 53.9139C25.8188 51.6628 25.9284 49.1847 27.9261 47.5328C29.6346 49.3172 30.6541 51.9452 31.1538 54.2277C31.5956 56.2459 32.0569 58.6345 31.0049 60.6206C33.1147 61.9977 35.3669 63.211 37.7481 64.2385C36.0726 63.0445 34.7009 61.4063 34.0475 59.7149C33.1912 57.4977 32.6615 54.8559 34.3296 52.6354C36.5644 54.0668 38.2069 56.5091 39.501 58.7366C40.6114 60.6479 41.7608 63.2858 41.1905 65.5621C42.5089 66.0095 43.8614 66.4023 45.2462 66.7375L45.1638 67.0774C43.7738 66.7409 42.4161 66.3468 41.0924 65.8981C40.1649 68.6389 37.1267 69.5443 34.6696 69.9441C31.1687 70.5137 27.0001 69.4101 24.0113 67.187C25.5888 64.9576 28.8073 64.7315 31.2342 64.5609L31.2658 64.5587C33.9245 64.3719 36.8001 64.6215 39.4737 65.3161C36.3851 64.1404 33.495 62.6621 30.8301 60.9241L30.7908 60.9862C29.3305 63.3541 26.3985 63.4464 24.0972 63.2967C20.9743 63.0935 17.3689 61.1946 15.2822 58.5699C17.2449 56.8477 20.144 57.3297 22.3903 57.7031L22.4011 57.7049C24.9082 58.1216 27.6478 59.0308 29.9474 60.4307C29.7284 60.2582 29.514 60.0757 29.3057 59.8844C27.0698 58.2902 25.0074 56.5071 23.1358 54.5629C23.114 54.5846 23.092 54.6062 23.0698 54.6277C21.25 56.4584 18.5996 55.979 16.5311 55.3832C13.7632 54.5859 10.8925 52.1806 9.51687 49.4193C11.6486 48.2248 14.1973 49.2091 16.1798 49.9877C18.3556 50.8422 20.6577 52.2092 22.4278 53.9517C22.2453 53.7215 22.0712 53.4811 21.9067 53.2322C20.2614 51.3752 18.7814 49.3868 17.4802 47.2891L17.415 47.33C15.3562 48.6585 13.0237 47.6964 11.1751 46.7503C8.66857 45.4675 6.65436 42.6484 5.78402 39.8759C8.00755 39.1637 10.2044 40.5615 11.9122 41.6686C13.78 42.8793 15.672 44.6061 16.9707 46.5863C16.8753 46.3912 16.7864 46.1918 16.7045 45.9885C15.4567 43.8115 14.3966 41.5261 13.5385 39.1553L13.4943 39.1704L13.4906 39.1717C11.6188 39.8833 9.53427 38.7769 8.17527 37.5636C6.28645 35.8775 4.95514 33.2851 4.64304 30.7526C6.59463 30.4998 8.4333 32.0097 9.69039 33.2975C11.1374 34.7797 12.4361 36.5315 13.2345 38.4773C13.1762 38.266 13.1262 38.0513 13.0842 37.8344C12.3576 35.6065 11.8072 33.3089 11.4444 30.96L11.4161 30.9635L11.4066 30.9651C9.42758 31.2954 7.5979 29.7909 6.50476 28.3307C4.97109 26.2817 4.18048 23.4459 4.37864 20.8756C6.34994 21.0135 7.851 22.8888 8.8244 24.4058C9.95103 26.162 10.8853 28.1495 11.2945 30.2288C11.282 30.0634 11.2747 29.897 11.272 29.7302C10.9715 27.3395 10.8644 24.8998 10.9624 22.43L10.9568 22.4297C8.94472 22.3572 7.45772 20.4891 6.69002 18.8321C5.59151 16.4609 5.41466 13.4635 6.14787 10.9375C8.06554 11.4757 9.13461 13.6755 9.76562 15.3687C10.4932 17.321 11.001 19.4504 11.005 21.5673C11.1097 19.7913 11.3205 18.0012 11.6418 16.2037Z" fill="#939393"/>
<path d="M51.2698 11.822V20.3019C51.2698 24.0315 47.892 25.826 42.7725 25.826C37.9872 25.826 34.5566 24.0492 34.5566 19.8621V11.822H39.3243V19.8621C39.3243 21.3575 40.6085 22.2898 42.966 22.2898C45.2179 22.2898 46.555 21.3222 46.555 19.8796V11.822H51.2698Z" fill="#939393"/>
<path d="M67.1488 21.9556V25.6325H53.9717V11.822H58.7394V21.9556H67.1488Z" fill="#939393"/>
<path d="M81.3178 15.2879V11.822H64.8331V15.2879H70.6564V25.6325H75.4769V15.2879H81.3178Z" fill="#939393"/>
<path fill-rule="evenodd" clip-rule="evenodd" d="M98.2287 13.2296C98.8622 13.8804 99.1623 14.7777 99.1623 16.0267C99.1623 17.1 98.8984 18.0148 98.4578 18.6305C97.9649 19.299 97.2082 19.8621 96.2761 20.0028L100.447 25.6325H95.2034L91.7722 20.7592H87.4977V25.6325H82.8003V11.822H93.7959C95.9775 11.822 97.4025 12.3498 98.2287 13.2296ZM94.4293 17.188C94.5526 16.9768 94.5874 16.6953 94.5874 16.4667C94.5874 16.2027 94.5526 15.9212 94.4293 15.7454C94.1829 15.2879 93.6901 15.1648 92.9508 15.1648H87.5152V17.6806H93.0392C93.7959 17.6806 94.2539 17.5398 94.4293 17.188Z" fill="#939393"/>
<path fill-rule="evenodd" clip-rule="evenodd" d="M106.793 23.0816H114.253L115.466 25.6325H120.551L113.584 11.822H107.902L100.531 25.6325H105.509L106.793 23.0816ZM112.757 19.9851H108.341L110.084 16.6602L110.611 15.3934L111.104 16.6425L112.757 19.9851Z" fill="#939393"/>
<path fill-rule="evenodd" clip-rule="evenodd" d="M97.7259 28.2334C94.7745 28.2334 93.222 29.6323 93.222 31.6878C93.222 34.0079 94.8513 35.1848 97.7259 35.1848C100.89 35.1848 102.221 33.8201 102.221 31.6878C102.221 29.5214 100.719 28.2334 97.7259 28.2334ZM97.7259 33.4705C96.0458 33.4705 95.5587 32.7796 95.5587 31.7134C95.5587 30.6644 96.0878 29.9735 97.7172 29.9735C99.5002 29.9735 99.9002 30.7496 99.9002 31.7134C99.9002 32.737 99.4146 33.4705 97.7259 33.4705Z" fill="#939393"/>
<path d="M88.8476 35.0825V31.1164H84.3953V32.5579H86.7749C86.758 32.6688 86.6726 32.882 86.5617 33.0099C86.3144 33.3 85.6576 33.5558 84.8046 33.5558C83.9176 33.5558 83.3462 33.3255 83.0392 32.9673C82.8345 32.7029 82.715 32.3276 82.715 31.7647C82.715 31.1762 82.8345 30.7754 83.0647 30.5109C83.3974 30.1356 83.9602 29.9736 84.7877 29.9736C85.5297 29.9736 86.0414 30.1441 86.2803 30.3573C86.4338 30.4853 86.5531 30.6645 86.5788 30.7838H88.7878C88.7794 30.5705 88.7112 30.2294 88.5917 29.9821C88.0629 28.9074 86.8347 28.2677 84.7451 28.2677C82.9283 28.2677 81.7086 28.822 81.0348 29.658C80.5912 30.2294 80.3866 30.9458 80.3866 31.7476C80.3866 32.6347 80.6253 33.3938 81.0177 33.8971C81.6829 34.7586 82.8686 35.1849 84.2929 35.1849C85.5468 35.1849 86.4082 34.8864 86.9541 34.4344L87.0138 35.0825H88.8476Z" fill="#939393"/>
<path d="M65.6132 31.0312C67.3446 31.2188 68.0866 31.833 68.0866 33.0015C68.0866 34.4173 66.7049 35.1849 63.984 35.1849C61.4508 35.1849 60.3591 34.4685 59.9411 33.5303C59.8473 33.3085 59.8047 33.0356 59.779 32.8649H62.2355C62.2526 32.9673 62.3123 33.1208 62.3975 33.2231C62.6022 33.4706 63.1737 33.6155 64.146 33.6155C65.3999 33.6155 65.6984 33.4364 65.6984 33.1038C65.6984 32.7455 65.3914 32.6688 64.2569 32.5494C63.805 32.5067 63.0884 32.4385 62.79 32.4129C60.6235 32.2167 59.8218 31.5429 59.8218 30.3915C59.8218 29.1973 61.2376 28.2848 63.8219 28.2848C66.1163 28.2848 67.1825 28.9671 67.6261 29.8201C67.7625 30.0759 67.8477 30.3658 67.8734 30.5705H65.4169C65.4084 30.4767 65.3743 30.3829 65.2805 30.2635C65.0928 30.0162 64.6151 29.8541 63.7622 29.8541C62.5596 29.8541 62.244 29.9991 62.244 30.3061C62.244 30.6473 62.645 30.7242 63.984 30.8691C64.5042 30.9117 65.3317 30.997 65.6132 31.0312Z" fill="#939393"/>
<path fill-rule="evenodd" clip-rule="evenodd" d="M41.126 28.9585C41.578 29.3167 41.8338 29.9224 41.8338 30.8008C41.8338 31.5173 41.6548 32.0546 41.3136 32.4299C40.853 32.9587 40.0939 33.1976 39.1045 33.2061C38.7974 33.2147 36.1704 33.2061 36.1704 33.2061V35.0825H33.876V28.3871H39.0703C39.9915 28.3871 40.691 28.5747 41.126 28.9585ZM39.4287 31.3211C39.4968 31.2018 39.531 31.0481 39.531 30.8349C39.531 30.6132 39.4882 30.4255 39.4116 30.3232C39.2666 30.1099 38.9936 30.0076 38.5501 30.0076H36.1533V31.6452H38.533C39.0106 31.6452 39.2921 31.5343 39.4287 31.3211Z" fill="#939393"/>
<path fill-rule="evenodd" clip-rule="evenodd" d="M50.2269 29.0694C50.5341 29.385 50.679 29.82 50.679 30.4255C50.679 30.9458 50.551 31.3893 50.3378 31.6878C50.099 32.0119 49.7323 32.2849 49.2802 32.3532L51.3016 35.0825H48.7599L47.0966 32.7199H45.024V35.0825H42.7467V28.3871H48.0776C49.1352 28.3871 49.8261 28.6429 50.2269 29.0694ZM48.3846 30.9885C48.4443 30.8862 48.4613 30.7496 48.4613 30.6387C48.4613 30.5109 48.4443 30.3743 48.3846 30.2891C48.2652 30.0673 48.0264 30.0076 47.6682 30.0076H45.0326V31.2273H47.7108C48.0776 31.2273 48.2994 31.159 48.3846 30.9885Z" fill="#939393"/>
<path d="M59.0876 35.0825V33.4194H54.2857V32.5493H58.8915V30.9203H54.2857V30.0588H59.0279V28.3871H52.0339V35.0825H59.0876Z" fill="#939393"/>
<path d="M76.3869 30.0673V28.3871H68.395V30.0673H71.218V35.0825H73.5551V30.0673H76.3869Z" fill="#939393"/>
<path d="M79.4598 28.3871V35.0825H77.1142V28.3871H79.4598Z" fill="#939393"/>
<path d="M92.2959 28.3871V35.0825H89.9498V28.3871H92.2959Z" fill="#939393"/>
<path d="M111.271 28.3871V32.4981C111.271 34.3064 109.633 35.1764 107.151 35.1764C104.832 35.1764 103.168 34.3149 103.168 32.2849V28.3871H105.48V32.2849C105.48 33.0098 106.102 33.462 107.245 33.462C108.337 33.462 108.985 32.9929 108.985 32.2935V28.3871H111.271Z" fill="#939393"/>
<path d="M120.479 33.0015C120.479 31.833 119.737 31.2188 118.006 31.0312C117.723 30.997 116.897 30.9117 116.376 30.8691C115.037 30.7242 114.635 30.6473 114.635 30.3061C114.635 29.9991 114.951 29.8541 116.155 29.8541C117.007 29.8541 117.485 30.0162 117.672 30.2635C117.767 30.3829 117.8 30.4767 117.809 30.5705H120.266C120.24 30.3658 120.154 30.0759 120.018 29.8201C119.574 28.9671 118.509 28.2848 116.214 28.2848C113.629 28.2848 112.213 29.1973 112.213 30.3915C112.213 31.5429 113.016 32.2167 115.182 32.4129L115.321 32.4253L115.553 32.4464L116.649 32.5494C117.784 32.6688 118.09 32.7455 118.09 33.1038C118.09 33.4364 117.793 33.6155 116.539 33.6155C115.566 33.6155 114.995 33.4706 114.789 33.2231C114.705 33.1208 114.644 32.9673 114.628 32.8649H112.171C112.197 33.0356 112.239 33.3085 112.334 33.5303C112.751 34.4685 113.843 35.1849 116.376 35.1849C119.097 35.1849 120.479 34.4173 120.479 33.0015Z" fill="#939393"/>
<path fill-rule="evenodd" clip-rule="evenodd" d="M60.8345 37.6461C58.9165 37.6461 57.9076 38.5553 57.9076 39.8913C57.9076 41.399 58.9664 42.1639 60.8345 42.1639C62.8912 42.1639 63.7559 41.2771 63.7559 39.8913C63.7559 38.4833 62.7803 37.6461 60.8345 37.6461ZM60.8345 41.0498C59.7425 41.0498 59.4265 40.6007 59.4265 39.9078C59.4265 39.226 59.7702 38.7769 60.829 38.7769C61.9875 38.7769 62.2481 39.2814 62.2481 39.9078C62.2481 40.573 61.9321 41.0498 60.8345 41.0498Z" fill="#939393"/>
<path d="M50.1681 40.7449C50.1681 39.9855 49.6858 39.5862 48.5605 39.4643C48.3776 39.4422 47.8399 39.3868 47.5017 39.3591C46.6314 39.2647 46.3709 39.2149 46.3709 38.9932C46.3709 38.7936 46.576 38.6994 47.3577 38.6994C47.912 38.6994 48.2223 38.8046 48.3444 38.9654C48.4053 39.0431 48.4275 39.104 48.4331 39.165H50.0295C50.0129 39.0319 49.9575 38.8435 49.8688 38.6772C49.5805 38.1229 48.8876 37.6794 47.3964 37.6794C45.7169 37.6794 44.7967 38.2725 44.7967 39.0486C44.7967 39.797 45.3176 40.2349 46.7256 40.3624C46.9197 40.379 47.3853 40.4234 47.6792 40.4511C48.4164 40.5286 48.6159 40.5786 48.6159 40.8114C48.6159 41.0276 48.4219 41.144 47.6071 41.144C46.9751 41.144 46.6037 41.0498 46.4706 40.889C46.4153 40.8225 46.3764 40.7227 46.3654 40.6562H44.7688C44.7855 40.7671 44.8132 40.9444 44.8742 41.0886C45.1459 41.6983 45.8554 42.1639 47.5017 42.1639C49.2701 42.1639 50.1681 41.6651 50.1681 40.7449Z" fill="#939393"/>
<path fill-rule="evenodd" clip-rule="evenodd" d="M39.1001 40.8668C39.1001 41.1662 39.0169 41.46 38.8507 41.654C38.5957 41.9645 38.1189 42.0974 37.5037 42.0974H33.6399V37.7458H37.3983C37.997 37.7458 38.3795 37.8901 38.5902 38.1062C38.7786 38.2947 38.8618 38.5441 38.8618 38.8268C38.8618 39.1096 38.7953 39.3424 38.6512 39.5142C38.5346 39.6584 38.3352 39.7692 38.1246 39.797C38.4349 39.8357 38.7287 39.991 38.895 40.2071C39.0336 40.3679 39.1001 40.6118 39.1001 40.8668ZM37.232 39.3424C37.2874 39.2814 37.3208 39.1927 37.3208 39.0874C37.3208 38.9821 37.2874 38.8933 37.2154 38.8325C37.1378 38.7603 36.9936 38.7326 36.783 38.7326H35.0923V39.4422H36.8218C37.0103 39.4422 37.1545 39.4145 37.232 39.3424ZM36.9826 41.1108C37.2431 41.1108 37.3983 41.0775 37.487 40.9944C37.5424 40.9389 37.5646 40.8558 37.5646 40.7504C37.5646 40.6395 37.5369 40.5565 37.4704 40.4899C37.3873 40.4179 37.2431 40.3845 36.9992 40.3845H35.0923V41.1108H36.9826Z" fill="#939393"/>
<path d="M44.3197 41.0166V42.0974H39.7353V37.7458H44.2808V38.8325H41.1987V39.3923H44.1921V40.4511H41.1987V41.0166H44.3197Z" fill="#939393"/>
<path d="M55.5627 37.7458V38.838H53.7222V42.0974H52.2035V38.838H50.3686V37.7458H55.5627Z" fill="#939393"/>
<path d="M68.8286 37.7458V38.849H65.874V39.4643H68.69V40.5565H65.874V42.0974H64.3828V37.7458H68.8286Z" fill="#939393"/>
<path d="M76.3394 38.838V37.7458H71.1454V38.838H72.9803V42.0974H74.4991V38.838H76.3394Z" fill="#939393"/>
<path d="M82.0064 37.7458V42.0974H80.5207V40.5176H78.2923V42.0974H76.8067V37.7458H78.2923V39.3313H80.5207V37.7458H82.0064Z" fill="#939393"/>
<path d="M87.4704 42.0974V41.0166H84.3494V40.4511H87.3428V39.3923H84.3494V38.8325H87.4316V37.7458H82.8861V42.0974H87.4704Z" fill="#939393"/>
<path d="M96.6604 37.7458H98.0955L96.5053 42.0974H94.876C94.876 42.0974 94.0048 39.4977 93.999 39.4255C93.9946 39.4977 93.1176 42.0974 93.1176 42.0974H91.4941L89.8643 37.7458H91.4767C91.4767 37.7458 92.4204 40.4843 92.4204 40.5508C92.4204 40.4843 93.2901 37.7458 93.2901 37.7458H94.8484C94.8484 37.7458 95.724 40.4843 95.724 40.5508C95.724 40.4843 96.6604 37.7458 96.6604 37.7458Z" fill="#939393"/>
<path fill-rule="evenodd" clip-rule="evenodd" d="M100.943 37.6461C99.0247 37.6461 98.0158 38.5553 98.0158 39.8913C98.0158 41.399 99.074 42.1639 100.943 42.1639C103 42.1639 103.863 41.2771 103.863 39.8913C103.863 38.4833 102.888 37.6461 100.943 37.6461ZM100.943 41.0498C99.851 41.0498 99.535 40.6007 99.535 39.9078C99.535 39.226 99.8785 38.7769 100.937 38.7769C102.096 38.7769 102.356 39.2814 102.356 39.9078C102.356 40.573 102.04 41.0498 100.943 41.0498Z" fill="#939393"/>
<path fill-rule="evenodd" clip-rule="evenodd" d="M109.353 38.1894C109.552 38.3945 109.646 38.6772 109.646 39.0708C109.646 39.409 109.563 39.6971 109.424 39.8912C109.269 40.1019 109.031 40.2793 108.737 40.3235L110.05 42.0974H108.399L107.318 40.562H105.971V42.0974H104.491V37.7458H107.956C108.643 37.7458 109.092 37.9123 109.353 38.1894ZM108.156 39.4367C108.194 39.3701 108.205 39.2814 108.205 39.2094C108.205 39.1262 108.194 39.0376 108.156 38.9821C108.078 38.838 107.922 38.7991 107.689 38.7991H105.977V39.5919H107.717C107.956 39.5919 108.099 39.5475 108.156 39.4367Z" fill="#939393"/>
<path d="M114.679 42.0974V40.9389H112.029V37.7458H110.527V42.0974H114.679Z" fill="#939393"/>
<path fill-rule="evenodd" clip-rule="evenodd" d="M120.557 39.8412C120.557 40.5176 120.49 40.8835 120.292 41.2272C119.992 41.7759 119.399 42.0974 118.351 42.0974H115.269V37.7458H118.317C119.36 37.7458 119.976 38.0397 120.28 38.5441C120.496 38.8823 120.557 39.2426 120.557 39.8412ZM118.068 41.0276C118.539 41.0276 118.806 40.9167 118.967 40.6729C119.067 40.5231 119.094 40.1739 119.094 39.8691C119.089 39.5919 119.055 39.2981 118.967 39.165C118.794 38.9045 118.535 38.8103 118.08 38.8103H116.755V41.0276H118.068Z" fill="#939393"/>
<path d="M61.093 63.261H58.796C58.796 63.261 57.2971 67.6425 57.2971 67.7489C57.2971 67.6425 55.8958 63.261 55.8958 63.261H53.4035C53.4035 63.261 52.011 67.6425 52.011 67.7489C52.011 67.6425 50.5033 63.261 50.5033 63.261H47.9223L50.5298 70.2233H53.1285C53.1285 70.2233 54.5299 66.0637 54.5387 65.9485C54.5477 66.0637 55.94 70.2233 55.94 70.2233H58.5476L61.093 63.261Z" fill="#939393"/>
<path d="M64.2364 70.2233V63.261H61.7973V70.2233H64.2364Z" fill="#939393"/>
<path d="M73.7234 63.261V70.2233H71.3463L67.8963 66.3475V70.2233H65.6081V63.261H68.1091L71.4527 67.0483V63.261H73.7234Z" fill="#939393"/>
<path d="M83.2246 70.2233V63.261H80.9541V67.0483L77.6105 63.261H75.1093V70.2233H77.3975V66.3475L80.8477 70.2233H83.2246Z" fill="#939393"/>
<path d="M91.9463 68.4938V70.2233H84.6108V63.261H91.884V64.9994H86.9523V65.8953H91.7419V67.5893H86.9523V68.4938H91.9463Z" fill="#939393"/>
<path fill-rule="evenodd" clip-rule="evenodd" d="M101.321 65.3808C101.321 64.7511 101.17 64.2988 100.851 63.9706C100.434 63.5272 99.7164 63.261 98.6161 63.261H93.0729V70.2233H95.4415V67.7665H97.5971L99.3264 70.2233H101.969L99.8671 67.3853C100.337 67.3143 100.718 67.0304 100.967 66.6934C101.188 66.383 101.321 65.9218 101.321 65.3808ZM99.0148 65.6026C99.0148 65.7178 98.9974 65.8597 98.9351 65.9661C98.8466 66.1436 98.6161 66.2145 98.2349 66.2145H95.4502V64.9462H98.19C98.5625 64.9462 98.8118 65.0082 98.9351 65.2389C98.9974 65.3276 99.0148 65.4695 99.0148 65.6026Z" fill="#939393"/>
<path d="M54.0111 50.9778L53.0493 48.0174L52.0873 50.9778H48.9746L51.4928 52.8073L50.531 55.7677L53.0493 53.9381L55.5674 55.7677L54.6055 52.8073L57.1238 50.9778H54.0111Z" fill="#939393"/>
<path d="M64.1541 48.0155L65.1356 50.9759H68.3118L65.7423 52.8055L66.7238 55.7658L64.1541 53.9362L61.5845 55.7658L62.566 52.8055L59.9964 50.9759H63.1726L64.1541 48.0155Z" fill="#939393"/>
<path d="M76.1516 50.9759L75.1702 48.0155L74.1887 50.9759H71.0124L73.5821 52.8055L72.6005 55.7658L75.1702 53.9362L77.7398 55.7658L76.7583 52.8055L79.328 50.9759H76.1516Z" fill="#939393"/>
<path d="M86.1868 48.0155L87.1683 50.9759H90.3445L87.775 52.8055L88.7565 55.7658L86.1868 53.9362L83.6173 55.7658L84.5988 52.8055L82.0291 50.9759H85.2054L86.1868 48.0155Z" fill="#939393"/>
<path d="M98.2535 50.9759L97.291 48.0155L96.3285 50.9759H93.2162L95.7341 52.8055L94.7731 55.7658L97.291 53.9362L99.809 55.7658L98.8479 52.8055L101.366 50.9759H98.2535Z" fill="#939393"/>
<path d="M138.636 16.268C139.557 13.9276 139.157 11.2361 138.309 8.97272C137.416 6.59118 135.862 4.21573 133.54 2.96313C133.424 5.47311 134.191 7.95264 135.028 10.1886C135.782 12.1997 136.706 14.3422 138.232 16.0053C138.467 17.2653 138.647 18.5218 138.773 19.7725C138.267 18.4515 137.448 17.2474 136.424 16.2791C135.107 15.0317 133.145 14.0695 131.306 14.6386C131.845 16.6725 133.073 18.6225 134.528 19.9904C135.673 21.067 137.185 22.4464 138.965 22.5008C139.039 24.3419 138.997 26.1662 138.845 27.9657C138.594 26.6489 138.057 25.409 137.278 24.4856C136.21 23.2166 134.625 21.6665 132.603 21.9259C132.713 23.9846 133.535 26.0939 134.679 27.6789C135.586 28.9384 136.787 30.5439 138.49 30.9586C138.217 32.7264 137.838 34.4649 137.355 36.1661C137.351 34.8635 137.064 33.5848 136.492 32.5592C135.688 31.1131 134.434 29.3094 132.409 29.1683C132.112 31.1881 132.515 33.3959 133.327 35.152C133.975 36.5556 134.84 38.3456 136.416 39.0862C135.753 40.917 134.97 42.6968 134.072 44.4144C134.388 42.9338 134.375 41.3736 134.002 39.9697C133.487 38.0348 132.212 36.0022 130.162 35.4125C129.437 37.5489 129.537 39.9326 129.959 42.1038C130.306 43.8916 130.985 45.9912 132.51 47.1524C131.513 48.7625 130.41 50.3076 129.205 51.7778C129.853 50.336 130.174 48.759 130.001 47.3154C129.75 45.2129 129.16 42.9641 127.014 41.8436C125.794 43.9455 125.512 46.3036 125.409 48.6326C125.325 50.5156 125.596 52.8382 126.905 54.3701C125.465 55.8652 123.914 57.2645 122.257 58.555C123.327 57.182 124.077 55.5711 124.235 53.978C124.459 51.7269 124.351 49.249 122.352 47.5969C120.644 49.3813 119.624 52.0093 119.125 54.2918C118.683 56.3098 118.222 58.6986 119.273 60.6847C117.164 62.0621 114.911 63.2756 112.529 64.3033C114.205 63.1091 115.576 61.4707 116.23 59.779C117.087 57.562 117.616 54.9199 115.949 52.6995C113.714 54.1309 112.071 56.5731 110.777 58.8007C109.666 60.7121 108.517 63.3502 109.088 65.6265C107.769 66.0739 106.416 66.4667 105.032 66.8018L105.115 67.1418C106.503 66.8053 107.862 66.4112 109.185 65.9625C110.113 68.7031 113.151 69.6088 115.608 70.0085C119.109 70.578 123.278 69.4746 126.267 67.2514C124.688 65.022 121.47 64.7959 119.044 64.6253L119.012 64.6231C116.353 64.4363 113.477 64.6859 110.804 65.3807C113.892 64.2049 116.782 62.7263 119.448 60.9882L119.484 61.0462C120.944 63.4181 123.878 63.5108 126.18 63.3609C129.304 63.1577 132.909 61.2589 134.995 58.6341C133.032 56.9123 130.135 57.394 127.888 57.7672L127.876 57.7693C125.37 58.1859 122.631 59.0946 120.332 60.4941C120.551 60.3217 120.764 60.1395 120.973 59.9483C123.208 58.3545 125.27 56.5716 127.141 54.6277C127.167 54.6537 127.193 54.6792 127.219 54.7045C129.04 56.521 131.683 56.0418 133.747 55.4473C136.516 54.65 139.386 52.2447 140.762 49.4834C138.629 48.2889 136.081 49.2731 134.099 50.0518C131.92 50.907 129.617 52.2756 127.846 54.0205C128.028 53.79 128.204 53.5491 128.369 53.2997C130.014 51.4418 131.496 49.4522 132.797 47.3532L132.854 47.3881L132.868 47.3973C134.925 48.7211 137.256 47.7598 139.103 46.8144C141.61 45.5317 143.624 42.7125 144.494 39.94C142.271 39.2278 140.074 40.6256 138.367 41.7327C136.497 42.9441 134.604 44.672 133.305 46.6538C133.4 46.4582 133.49 46.2582 133.573 46.0545C134.821 43.8768 135.881 41.5908 136.739 39.2194L136.784 39.2345L136.791 39.2374C138.663 39.9458 140.746 38.8402 142.104 37.6277C143.991 35.9416 145.323 33.3493 145.635 30.8167C143.684 30.5639 141.844 32.0738 140.588 33.3614C139.141 34.8447 137.841 36.5977 137.042 38.545C137.101 38.3325 137.152 38.1167 137.194 37.8985C137.92 35.6708 138.471 33.3733 138.834 31.0247L138.889 31.0319C140.86 31.3511 142.684 29.8509 143.774 28.3948C145.307 26.3458 146.097 23.51 145.899 20.9396C143.929 21.0776 142.427 22.9528 141.454 24.4699C140.327 26.227 139.392 28.2157 138.983 30.2963C138.996 30.1298 139.003 29.9626 139.006 29.7947C139.306 27.4039 139.413 24.9641 139.315 22.4943C141.328 22.4237 142.82 20.5543 143.588 18.8965C144.686 16.5254 144.862 13.5279 144.13 11.002C142.213 11.5402 141.143 13.7397 140.512 15.433C139.784 17.3853 139.277 19.5149 139.273 21.6319C139.168 19.8558 138.957 18.0656 138.636 16.268Z" fill="#939393"/>
</svg>
