<svg width="180" height="75" viewBox="0 0 180 75" fill="none" xmlns="http://www.w3.org/2000/svg">
<path d="M89.9406 24.8682C90.6756 24.8579 91.3005 24.7205 91.2903 23.965V23.8517C91.3005 23.0996 90.6756 22.9622 89.9406 22.952C89.2024 22.9622 88.5774 23.0996 88.5877 23.8517V23.965C88.5774 24.7205 89.2024 24.8579 89.9406 24.8682Z" fill="#939393"/>
<path d="M63.0725 23.3503C63.0725 23.1305 62.8974 22.9554 62.6776 22.9554H60.4832V23.7418H62.6776C62.7875 23.7418 62.8801 23.7039 62.9558 23.6284C63.0347 23.5494 63.0725 23.4568 63.0725 23.3503Z" fill="#939393"/>
<path d="M75.425 22.9451L76.057 24.3085H74.7898L75.425 22.9451Z" fill="#939393"/>
<path d="M103.618 22.9451L104.25 24.3085H102.983L103.618 22.9451Z" fill="#939393"/>
<path d="M58.7272 51.6534L57.7933 49.6381L56.8541 51.6534H58.7272Z" fill="#939393"/>
<path d="M80.7691 51.0747C80.7691 51.76 80.3783 52.3235 79.6879 52.3235H76.774V49.8259H79.6879C80.3783 49.8259 80.7691 50.3843 80.7691 51.0747Z" fill="#939393"/>
<path d="M88.1505 49.6381L89.0846 51.6534H87.2113L88.1505 49.6381Z" fill="#939393"/>
<path d="M99.5015 49.6534C99.8264 49.6534 100.085 49.9124 100.085 50.2373C100.085 50.3946 100.029 50.5317 99.9127 50.6484C99.801 50.7602 99.664 50.816 99.5015 50.816H96.2577V49.6534H99.5015Z" fill="#939393"/>
<path d="M110.233 51.0749C110.233 51.7602 109.841 52.3238 109.151 52.3238H106.237V49.8262H109.151C109.841 49.8262 110.233 50.3846 110.233 51.0749Z" fill="#939393"/>
<path d="M46.3939 38.3548L43.0084 30.5382H37.2V43.5658H41.4318V36.5293L44.4854 43.5658H48.2693L51.3561 36.5293V43.5658H55.5713V30.5382H49.9454L46.3939 38.3548Z" fill="#939393"/>
<path d="M72.8425 43.5658V40.3296H63.4992V38.6368H72.4609V35.4671H63.4992V33.7909H72.7264V30.5382H59.118V43.5658H72.8425Z" fill="#939393"/>
<path d="M76.4123 41.2589C77.7068 42.9351 80.0135 43.7649 82.785 43.7649C84.8663 43.7649 86.3919 43.3421 87.4547 42.6718C87.6376 42.5564 87.8068 42.4336 87.9628 42.3045L88.079 43.5657H91.647V35.8488H82.9842V38.6535H87.6144C87.594 38.7862 87.5232 38.9946 87.4214 39.1931C87.358 39.3172 87.2823 39.4373 87.1994 39.533C86.7182 40.0972 85.4403 40.5951 83.7807 40.5951C82.0548 40.5951 80.9429 40.1471 80.3454 39.45C79.9471 38.9355 79.7148 38.2053 79.7148 37.11C79.7148 35.965 79.9471 35.1849 80.3953 34.6705C81.0424 33.9403 82.1377 33.625 83.7476 33.625C85.1914 33.625 86.1872 33.9569 86.6518 34.3718C86.9506 34.6207 87.1829 34.9692 87.2326 35.2016H91.5309C91.5248 35.0484 91.5028 34.8612 91.4659 34.6619C91.4027 34.3214 91.2958 33.9451 91.1492 33.6416C90.1202 31.5505 87.7305 30.3058 83.6646 30.3058C80.1297 30.3058 77.7565 31.3845 76.4455 33.011C75.5826 34.1228 75.1843 35.5168 75.1843 37.0768C75.1843 38.8028 75.6489 40.2798 76.4123 41.2589Z" fill="#939393"/>
<path d="M80.2549 37.11C80.2549 36.0271 80.4763 35.4008 80.8011 35.0267C81.2898 34.4768 82.1813 34.1646 83.748 34.1646C85.141 34.1646 85.9746 34.4902 86.2927 34.7743L86.2997 34.7804L86.3067 34.7864C86.4161 34.8776 86.5162 34.9899 86.5918 35.0994C86.6666 35.2076 86.6965 35.2828 86.7039 35.309H82.4449V39.1931H86.7803C86.625 39.3686 86.2918 39.5875 85.7623 39.7634C85.2352 39.9385 84.5589 40.0554 83.7812 40.0554C82.1413 40.0554 81.219 39.6309 80.7644 39.1089C80.4673 38.7193 80.2549 38.1219 80.2549 37.11Z" fill="#939393"/>
<path d="M102.922 35.3384L101.685 37.699H104.09L102.922 35.3384Z" fill="#939393"/>
<path fill-rule="evenodd" clip-rule="evenodd" d="M106.369 41.1593L107.515 43.5658H112.311L105.738 30.5382H100.378L93.4249 43.5658H98.1215L99.3329 41.1593H106.369ZM100.793 38.2385L102.436 35.102L102.934 33.9072L103.399 35.0854L104.959 38.2385H100.793Z" fill="#939393"/>
<path fill-rule="evenodd" clip-rule="evenodd" d="M140.999 66.1232H140.992C140.899 66.1232 140.807 66.1227 140.714 66.1218V66.1232H39.2055C30.2481 66.1232 22.258 61.9812 17.0463 55.508H32.0022V53.6124H15.645C13.2048 50.0088 11.5697 45.8157 10.9977 41.2911H32.0022V39.3956H10.8221C10.7886 38.8311 10.7717 38.2622 10.7717 37.6894C10.7717 33.9368 11.4986 30.3541 12.8195 27.0741H32.0022V25.1786H13.665C15.6744 21.0841 18.6394 17.5434 22.2693 14.8477H124.062C125.331 13.9052 126.682 13.0659 128.101 12.3423C127.718 12.5373 127.341 12.7406 126.969 12.952H25.1759C29.3156 10.5992 34.1036 9.25568 39.2054 9.25568H140.714V9.25701C140.809 9.25608 140.904 9.25568 140.999 9.25568C156.702 9.25568 169.433 21.9858 169.433 37.6894C169.433 53.3929 156.702 66.1232 140.999 66.1232ZM151.571 51.0252C152.844 47.1899 153.604 42.6344 153.604 37.6894C153.604 33.0795 152.943 28.8081 151.823 25.143C151.686 24.6954 151.542 24.257 151.393 23.8281C151.142 23.1137 150.873 22.4258 150.589 21.7666C150.205 20.8764 149.791 20.0385 149.353 19.2584C147.278 15.5779 144.912 13.5957 142.705 12.9283V21.7666H148.511C149.002 22.8147 149.451 23.956 149.847 25.1786H142.705V35.9833H151.677C151.698 36.5456 151.709 37.1145 151.709 37.6894C151.709 38.2644 151.698 38.8333 151.677 39.3954H142.705V50.2003H149.846C149.451 51.4229 149.002 52.5641 148.511 53.6123H142.705V62.4507C144.912 61.7835 147.278 59.8011 149.353 56.1204C149.791 55.3404 150.206 54.5025 150.589 53.6123C150.943 52.7928 151.271 51.929 151.571 51.0252ZM155.386 25.1786C156.297 28.4722 156.86 32.1242 156.988 35.9833H165.963C165.699 32.066 164.533 28.3959 162.673 25.1786H155.386ZM160.301 21.7666H154.272C153.177 18.8993 151.796 16.4052 150.201 14.4145C154.165 15.9827 157.631 18.5336 160.301 21.7666ZM139.293 12.9279V21.7666H131.407C131.792 20.8764 132.205 20.0385 132.645 19.2584C134.718 15.5773 137.085 13.5948 139.293 12.9279ZM131.795 14.4144C130.2 16.4051 128.82 18.8992 127.726 21.7666H121.696C124.366 18.5335 127.833 15.9825 131.795 14.4144ZM126.61 25.1786H115.692V27.0741H118.334C117.05 29.8098 116.247 32.8157 116.034 35.9833H125.009C125.138 32.1242 125.699 28.4722 126.61 25.1786ZM139.293 25.1786H130.164C129.189 28.3788 128.565 32.0395 128.424 35.9833H139.293V25.1786ZM156.988 39.3954C156.86 43.2546 156.297 46.9066 155.386 50.2003H162.673C164.533 46.9829 165.699 43.3127 165.963 39.3954H156.988ZM130.164 50.2003C129.189 47.0001 128.565 43.3392 128.424 39.3954H139.293V50.2003H130.164ZM126.61 50.2003C125.699 46.9066 125.138 43.2546 125.009 39.3954H116.034C116.298 43.3127 117.463 46.9829 119.324 50.2003H126.61ZM154.272 53.6123C153.177 56.4796 151.796 58.9735 150.202 60.9643C154.165 59.396 157.631 56.8452 160.301 53.6123H154.272ZM131.407 53.6123H139.293V62.4511C137.085 61.7842 134.718 59.8017 132.645 56.1204C132.205 55.3404 131.792 54.5025 131.407 53.6123ZM127.726 53.6123L115.692 53.6124V55.5079H123.432C125.805 57.8478 128.643 59.7171 131.795 60.9645C130.2 58.9738 128.82 56.4797 127.726 53.6123ZM89.9403 21.489C88.2027 21.4925 86.781 21.9938 86.7879 23.7418V24.0783C86.781 25.8229 88.2027 26.3276 89.9403 26.3311C91.6745 26.3276 93.0962 25.8229 93.0893 24.0783V23.7418C93.0893 21.9972 91.6779 21.489 89.9403 21.489ZM35.9568 21.6024V26.2177H37.7563V21.6024H35.9568ZM43.213 24.0474L41.1869 21.6024H38.7109V26.2177H40.5104V23.3984L42.9898 26.2177H45.0159V21.6024H43.213V24.0474ZM49.5797 23.0721V26.2247H47.7804V23.0721H45.6409V21.6093H51.7192V23.0721H49.5797ZM52.3237 26.2247H57.7254V25.0399H54.123V24.4493H57.7254V23.3812H54.123V22.7906H57.7254V21.6093H52.3237V26.2247ZM58.6834 26.2211V21.6058H63.1306C64.0818 21.5956 64.8888 22.3957 64.8751 23.3503C64.8751 23.6972 64.7823 24.013 64.5969 24.2947C64.4149 24.5728 64.1712 24.7858 63.8689 24.9266L64.8751 26.2211H62.9589L62.0901 25.0948H60.4829V26.2211H58.6834ZM69.9369 24.0474L67.9108 21.6024H65.4348V26.2177H67.2343V23.3984L69.7137 26.2177H71.7398V21.6024H69.9369V24.0474ZM73.9033 26.2247H71.8772L74.3531 21.6093H76.4926L78.9685 26.2247H76.9424L76.5784 25.4348H74.2673L73.9033 26.2247ZM81.7157 26.2247V23.0721H83.8552V21.6093H77.7769V23.0721H79.9164V26.2247H81.7157ZM84.4595 26.2177V21.6024H86.259V26.2177H84.4595ZM96.1045 21.6024L98.1306 24.0474V21.6024H99.9335V26.2177H97.9074L95.428 23.3984V26.2177H93.6285V21.6024H96.1045ZM100.071 26.2247H102.097L102.461 25.4348H104.772L105.137 26.2247H107.162L104.687 21.6093H102.547L100.071 26.2247ZM107.303 26.2177V21.6024H109.102V24.7548H112.705V26.2177H107.303ZM40.6194 49.237C39.7919 49.237 38.7766 49.359 38.7766 49.902C38.7766 50.2016 39.6041 50.2422 40.6752 50.2929L40.687 50.2935C42.5899 50.3899 45.2541 50.5249 45.2491 52.2321C45.2491 54.1815 43.0154 54.6435 40.6194 54.6435C38.2284 54.6384 36.2435 54.349 35.9896 52.2321H38.7766C39.0812 52.7601 39.7868 52.8971 40.6194 52.8971C41.4468 52.8971 42.4621 52.7601 42.4621 52.2321C42.4621 51.9327 41.6347 51.8869 40.5636 51.8362L40.5517 51.8356C38.6487 51.7392 35.9845 51.6043 35.9896 49.902C35.9896 47.9528 38.2233 47.4857 40.6194 47.4857C43.0103 47.5009 44.9952 47.7699 45.2491 49.902H42.4621C42.1575 49.3639 41.4519 49.237 40.6194 49.237ZM51.153 49.8259V54.4861H48.4929V49.8259H45.3303V47.6634H54.3156V49.8259H51.153ZM52.5489 54.4861H55.544L56.0821 53.3185H59.4986L60.0367 54.4861H63.0318L59.3717 47.6634H56.2091L52.5489 54.4861ZM66.9001 47.6532L69.8952 51.2676V47.6532H72.5603V54.476H69.5653L65.9 50.3082V54.476H63.24V47.6532H66.9001ZM74.1136 47.6634V54.4861H80.1852C82.0583 54.5115 83.4493 52.9277 83.434 51.0747C83.4493 49.2117 82.0583 47.638 80.1852 47.6634H74.1136ZM85.9012 54.4861H82.9061L86.5662 47.6634H89.7289L93.3889 54.4861H90.3938L89.8557 53.3185H86.4393L85.9012 54.4861ZM93.597 47.6583V54.4811H96.2572V52.8159H98.6329L99.9172 54.4811H102.75L101.262 52.5672C101.709 52.359 102.07 52.0444 102.339 51.6331C102.613 51.2169 102.75 50.7498 102.75 50.2371C102.77 48.8258 101.577 47.6431 100.171 47.6583H93.597ZM103.577 54.4861V47.6634H109.648C111.522 47.638 112.913 49.2117 112.898 51.0747C112.913 52.9277 111.522 54.5115 109.648 54.4861H103.577ZM56.1104 44.1054H50.8157V39.1029L48.6212 44.1054H44.1307L41.9708 39.1286V44.1054H36.6597V29.9985H43.3622L46.4051 37.024L49.5971 29.9985H56.1104V44.1054ZM73.3821 44.1054H58.5782V29.9985H73.266V34.3306H64.0388V34.9274H73.0005V39.1765H64.0388V39.7898H73.3821V44.1054ZM92.1867 44.1054H87.5867L87.5095 43.2678C86.3563 43.9228 84.7952 44.3046 82.7849 44.3046C79.9251 44.3046 77.4225 43.4492 75.9858 41.5899C75.1311 40.4932 74.6445 38.8899 74.6445 37.0768C74.6445 35.4249 75.0671 33.9065 76.019 32.68L76.0221 32.676L76.0252 32.6722C77.4713 30.8782 80.0266 29.7661 83.6645 29.7661C87.8224 29.7661 90.4725 31.0439 91.6333 33.4033L91.6343 33.4051L91.6351 33.4069C91.905 33.966 92.051 34.7046 92.07 35.1799L92.0752 35.309H92.1867V44.1054ZM99.6653 41.699L98.4539 44.1054H92.5249L100.055 29.9985H106.072L113.188 44.1054H107.173L106.029 41.699H99.6653ZM35.8883 61.479H113.133V59.5834H35.8883V61.479Z" fill="#939393"/>
<path fill-rule="evenodd" clip-rule="evenodd" d="M39.2057 2.43152H140.999C160.471 2.43152 176.257 18.217 176.257 37.6894C176.257 57.1619 160.471 72.9473 140.999 72.9473H39.2057C19.7333 72.9473 3.94781 57.1619 3.94781 37.6894C3.94781 18.217 19.7333 2.43152 39.2057 2.43152ZM39.2057 5.84363C21.6177 5.84363 7.35993 20.1014 7.35993 37.6894C7.35993 55.2774 21.6177 69.5353 39.2057 69.5353H140.999C158.587 69.5353 172.844 55.2774 172.844 37.6894C172.844 20.1014 158.587 5.84363 140.999 5.84363H39.2057Z" fill="#939393"/>
</svg>
