<svg width="209" height="75" viewBox="0 0 209 75" fill="none" xmlns="http://www.w3.org/2000/svg">
<path d="M21.2568 32.4506C21.1982 33.8248 21.169 35.5646 21.169 37.6697C21.169 39.7749 21.1982 41.5291 21.2568 42.9326C21.3151 44.3069 21.4321 45.4033 21.6075 46.222C21.8122 47.0406 22.0899 47.6108 22.4409 47.9325C22.821 48.2541 23.318 48.4149 23.9321 48.4149C24.546 48.4149 25.0284 48.2541 25.3794 47.9325C25.7595 47.6108 26.0372 47.0406 26.2127 46.222C26.4173 45.4033 26.5488 44.3069 26.6074 42.9326C26.6659 41.5291 26.6951 39.7749 26.6951 37.6697C26.6951 35.5646 26.6659 33.8248 26.6074 32.4506C26.5488 31.0471 26.4173 29.936 26.2127 29.1174C26.0372 28.2987 25.7595 27.7285 25.3794 27.407C25.0284 27.0852 24.546 26.9244 23.9321 26.9244C23.318 26.9244 22.821 27.0852 22.4409 27.407C22.0899 27.7285 21.8122 28.2987 21.6075 29.1174C21.4321 29.936 21.3151 31.0471 21.2568 32.4506Z" fill="#939393"/>
<path fill-rule="evenodd" clip-rule="evenodd" d="M22.8107 5.08934C12.2355 5.31564 3.82964 14.0423 3.99932 24.6184L4.20782 37.6131L3.99932 50.6078C3.82964 61.1841 12.2355 69.9107 22.8107 70.1369L35.8073 70.415L48.8039 70.1369C59.3791 69.9107 67.7851 61.1841 67.6155 50.6078L67.407 37.6131L67.6155 24.6184C67.7851 14.0423 59.3791 5.31564 48.8039 5.08934L35.8073 4.8114L22.8107 5.08934ZM36.2564 54.1602L31.3442 58.4145L26.8707 53.5901C26.5198 53.6486 26.1689 53.6926 25.8182 53.7218C25.4964 53.7801 25.1309 53.8095 24.7216 53.8095H23.9322C21.8563 53.8095 20.1019 53.5317 18.6692 52.9761C17.2365 52.4206 16.0816 51.4995 15.2045 50.2131C14.3274 48.8973 13.6987 47.2161 13.3186 45.1695C12.9385 43.0935 12.7484 40.5935 12.7484 37.6697C12.7484 34.7458 12.9385 32.2606 13.3186 30.2138C13.6987 28.1378 14.3274 26.4567 15.2045 25.1701C16.0816 23.8544 17.2365 22.9041 18.6692 22.3194C20.1019 21.7053 21.8563 21.3983 23.9322 21.3983C26.0082 21.3983 27.7625 21.7053 29.1951 22.3194C30.6278 22.9041 31.7829 23.8544 32.66 25.1701C33.5371 26.4567 34.1658 28.1378 34.5459 30.2138C34.926 32.2606 35.1161 34.7458 35.1161 37.6697C35.1161 40.6812 34.9114 43.225 34.502 45.301C34.0927 47.3769 33.4202 49.0728 32.4845 50.3886L36.2564 54.1602ZM50.1008 33.2838V31.5296C50.1008 29.746 49.9253 28.5325 49.5744 27.8894C49.2236 27.2461 48.6535 26.9244 47.8639 26.9244C47.25 26.9244 46.753 27.0852 46.3729 27.407C46.022 27.7285 45.7442 28.2987 45.5395 29.1174C45.3641 29.936 45.2472 31.0471 45.1886 32.4506C45.1301 33.8248 45.1009 35.5646 45.1009 37.6697C45.1009 39.7749 45.1301 41.5291 45.1886 42.9326C45.2472 44.3069 45.3641 45.4033 45.5395 46.222C45.7442 47.0406 46.022 47.6108 46.3729 47.9325C46.753 48.2541 47.25 48.4149 47.8639 48.4149C48.361 48.4149 48.7704 48.298 49.092 48.064C49.4137 47.8008 49.6621 47.3769 49.8376 46.7922C50.013 46.2074 50.13 45.4325 50.1885 44.4676C50.2762 43.4736 50.32 42.231 50.32 40.7397H58.2144V43.0643C58.2144 45.2572 57.922 47.0554 57.3373 48.4587C56.7526 49.8622 55.9778 50.9733 55.0129 51.7919C54.0479 52.5814 52.9369 53.1077 51.6796 53.3708C50.4517 53.6632 49.1797 53.8095 47.8639 53.8095C45.5833 53.8095 43.7122 53.5317 42.2501 52.9761C40.7883 52.4206 39.6479 51.4995 38.8292 50.2131C38.0105 48.8973 37.4403 47.2161 37.1187 45.1695C36.8264 43.0935 36.6801 40.5935 36.6801 37.6697C36.6801 34.6873 36.8556 32.1582 37.2065 30.0823C37.5866 28.0063 38.2153 26.325 39.0924 25.0386C39.9695 23.752 41.1244 22.831 42.5571 22.2754C43.9898 21.6907 45.7588 21.3983 47.8639 21.3983C49.7061 21.3983 51.2703 21.6323 52.5568 22.1001C53.8433 22.568 54.8812 23.2404 55.6708 24.1176C56.4894 24.9655 57.0741 26.0035 57.425 27.2315C57.8051 28.4302 57.9952 29.7899 57.9952 31.3103V33.2838H50.1008Z" fill="#939393"/>
<path fill-rule="evenodd" clip-rule="evenodd" d="M105.943 27.1627L113.093 34.5827L120.243 27.1627H132.666L119.295 39.8828L132.666 52.6028H120.243L113.093 45.1638L105.943 52.6028H93.5017L106.873 39.8828L93.5017 27.1627H105.943ZM105.254 39.8828L90.7114 26.0482H106.419L113.093 32.9749L119.768 26.0482H134.915V26.0293H160.585C166.455 25.9693 171.424 30.8779 171.343 36.7676C171.342 38.8861 170.769 40.8388 169.623 42.5769C168.76 43.8925 167.666 44.9749 166.356 45.798L171.829 52.826V48.2682C171.829 44.6971 174.498 42.4205 177.568 40.9107C180.668 39.3864 184.58 38.4341 187.837 37.6636L187.842 37.6625L187.879 37.6532C189.887 37.1594 191.596 36.739 192.814 36.2856C193.43 36.0558 193.834 35.8478 194.065 35.6711C194.093 35.6486 194.118 35.6287 194.138 35.6116C194.068 35.5468 193.923 35.4501 193.64 35.3386C192.977 35.0793 191.847 34.8839 190.134 34.8834C188.304 34.9024 186.748 35.0512 185.686 35.4236C185.163 35.6072 184.848 35.8164 184.67 36.0127C184.519 36.1812 184.429 36.3812 184.437 36.6949L184.464 37.8362H172.227V36.7217C172.227 34.4337 172.676 32.5207 173.574 30.9533C174.477 29.3788 175.792 28.2292 177.396 27.4047C180.543 25.787 184.878 25.3857 189.712 25.3857C194.661 25.3857 198.77 25.9568 201.679 27.4272C203.152 28.1723 204.348 29.1639 205.171 30.4536C205.995 31.7465 206.4 33.2686 206.4 34.9992C206.4 38.2019 204.467 40.2417 202.098 41.5713C199.798 42.8622 196.903 43.5953 194.499 44.1818H205.983V53.6796H172.493L172.508 53.6985H159.094L154.295 47.4898H147.086V53.6985H135.436L135.457 53.7174H119.767L113.093 46.7739L106.419 53.7174H90.7114L105.254 39.8828ZM134.915 53.2013V26.5642L120.914 39.8828L134.915 53.2013ZM154.845 46.3753L159.644 52.5838H170.226L164.668 45.4477C165.016 45.2865 165.348 45.1082 165.668 44.9132C166.883 44.1687 167.894 43.1796 168.689 41.9649C169.714 40.4127 170.226 38.6713 170.226 36.7596C170.303 31.4973 165.846 27.087 160.592 27.1438H136.031V52.5838H145.968V46.3753H154.845ZM188.65 45.2963C188.998 44.8708 189.628 44.509 190.466 44.1818C191.452 43.7956 192.722 43.4575 194.15 43.1196C199.043 41.927 205.283 40.2992 205.283 34.9992C205.283 28.7906 199.518 26.5002 189.712 26.5002C180.492 26.5002 173.953 28.0023 173.385 35.6071C173.358 35.965 173.343 36.3363 173.343 36.7217H183.321C183.319 36.6797 183.319 36.6383 183.321 36.5976C183.375 34.3364 186.496 33.806 190.129 33.7688C193.675 33.7688 195.306 34.5638 195.306 35.6428C195.306 36.9746 192.159 37.7488 188.208 38.7205L188.1 38.747C181.537 40.2992 172.946 42.4571 172.946 48.2682V52.5649H204.865V45.2963H188.65ZM194.201 35.697C194.201 35.697 194.195 35.69 194.191 35.6736C194.201 35.6884 194.201 35.697 194.201 35.697ZM159.153 36.7596C159.153 36.1637 158.685 35.6974 158.088 35.6974H147.086V37.8028H158.088C158.409 37.8028 158.633 37.7055 158.834 37.5047C159.063 37.276 159.153 37.0473 159.153 36.7596ZM160.269 36.7596C160.269 35.548 159.302 34.5827 158.088 34.5827H145.968V38.9173H158.088C158.694 38.9173 159.207 38.7092 159.624 38.2928C160.061 37.8574 160.269 37.3464 160.269 36.7596Z" fill="#939393"/>
<path d="M94.4214 70.9561H99.1813V64.4387L103.95 70.9561H106.33L111.099 64.4387V70.9561H115.859V58.7393H109.909L105.14 64.8477L100.38 58.7393H94.4214V70.9561Z" fill="#939393"/>
<path d="M125.886 58.4394C121.291 58.4485 117.53 59.7755 117.548 64.4023V65.2931C117.53 69.9108 121.291 71.2471 125.886 71.2561C130.473 71.2471 134.234 69.9108 134.217 65.2931V64.4023C134.217 59.7847 130.483 58.4394 125.886 58.4394ZM129.457 64.9932C129.484 66.993 127.83 67.3566 125.886 67.3838C123.934 67.3566 122.281 66.993 122.308 64.9932V64.6933C122.281 62.7025 123.934 62.3389 125.886 62.3116C127.83 62.3389 129.484 62.7025 129.457 64.6933V64.9932Z" fill="#939393"/>
<path d="M147.551 64.866C147.551 66.0931 146.851 67.102 145.617 67.102H140.403V62.6298H145.617C146.851 62.6298 147.551 63.6296 147.551 64.866ZM135.642 58.7576V70.9742H146.507C149.859 71.0198 152.348 68.1838 152.32 64.866C152.348 61.5299 149.859 58.712 146.507 58.7576H135.642Z" fill="#939393"/>
<path d="M165.573 65.0023C165.6 67.0111 163.948 67.3565 162.003 67.3838C160.051 67.3565 158.407 67.0111 158.425 65.0023V58.7393H153.665V65.3022C153.647 69.9199 157.425 71.247 162.003 71.256C166.582 71.247 170.36 69.9199 170.343 65.3022V58.7393H165.573V65.0023Z" fill="#939393"/>
<path d="M172.485 58.7393V70.9561H186.775V67.0839H177.245V58.7393H172.485Z" fill="#939393"/>
<path d="M188.4 70.9743H202.69V67.8383H193.16V66.2748H202.69V63.4479H193.16V61.8844H202.69V58.7576H188.4V70.9743Z" fill="#939393"/>
<path d="M97.1619 12.1979V9.6233H104.217C104.559 9.6233 104.856 9.74696 105.099 10.0055C105.352 10.253 105.473 10.5564 105.473 10.9161C105.473 11.2648 105.352 11.5682 105.099 11.8269C104.856 12.0742 104.559 12.1979 104.217 12.1979H97.1619ZM91.3858 5.20498V20.3151H97.1619V16.6275H105.661C108.714 16.6725 111.305 14.0304 111.261 10.9161C111.305 7.79079 108.714 5.17113 105.661 5.20498H91.3858Z" fill="#939393"/>
<path d="M122.758 4.8114C117.18 4.82263 112.617 6.46412 112.639 12.1867V13.2885C112.617 18.9998 117.18 20.6524 122.758 20.6636C128.325 20.6524 132.889 18.9998 132.866 13.2885V12.1867C132.866 6.47535 128.336 4.8114 122.758 4.8114ZM127.09 12.9174C127.123 15.3908 125.117 15.8405 122.758 15.8743C120.388 15.8405 118.382 15.3908 118.415 12.9174V12.5464C118.382 10.0842 120.388 9.63453 122.758 9.60085C125.117 9.63453 127.123 10.0842 127.09 12.5464V12.9174Z" fill="#939393"/>
<path d="M155.387 14.7725L151.958 5.20496H145.455L142.016 14.7725L138.587 5.20496H132.084L138.587 20.3151H145.455L148.707 12.76L151.958 20.3151H158.826L165.331 5.20496H158.826L155.387 14.7725Z" fill="#939393"/>
<path d="M165.772 20.3151H183.11V16.4364H171.547V14.5025H183.11V11.0061H171.547V9.07238H183.11V5.20496H165.772V20.3151Z" fill="#939393"/>
<path d="M186.187 5.19362V20.3039H191.962V16.6163H197.121L199.91 20.3039H206.061L202.831 16.0653C203.801 15.6044 204.584 14.9074 205.168 13.9968C205.764 13.0749 206.061 12.0406 206.061 10.9049C206.106 7.77944 203.514 5.15994 200.462 5.19362H186.187ZM199.006 9.61211C199.711 9.61211 200.274 10.1855 200.274 10.9049C200.274 11.2534 200.152 11.557 199.899 11.8156C199.657 12.063 199.359 12.1867 199.006 12.1867H191.962V9.61211H199.006Z" fill="#939393"/>
</svg>
