<svg width="94" height="75" viewBox="0 0 94 75" fill="none" xmlns="http://www.w3.org/2000/svg">
<path d="M30.9938 25.9064C30.9938 25.7149 30.9938 22.9293 30.9938 22.9293H29.3385C29.3385 22.9293 29.3385 25.6717 29.3385 25.7583C29.3385 26.2647 28.8691 26.6044 28.0785 26.6044C27.2508 26.6044 26.8 26.277 26.8 25.752C26.8 25.6656 26.8 22.9293 26.8 22.9293H25.126C25.126 22.9293 25.126 25.5296 25.126 25.752C25.126 27.222 26.3305 27.8459 28.0105 27.8459C29.808 27.8459 30.9938 27.2159 30.9938 25.9064Z" fill="#939393"/>
<path d="M36.5685 27.7779V26.4871H33.6162V22.9293H31.9423V27.7779H36.5685Z" fill="#939393"/>
<path d="M41.5435 24.1462V22.9293H35.756V24.1462H37.8004V27.7779H39.4928V24.1462H41.5435Z" fill="#939393"/>
<path d="M43.7687 27.7779V22.9293H42.0702V27.7779H43.7687Z" fill="#939393"/>
<path d="M51.5615 27.7779V22.9293H49.4676L48.1458 25.8386L46.8859 22.9293H44.724V27.7779H46.299V25.1592L47.4355 27.7779H48.8438L49.9926 25.1592V27.7779H51.5615Z" fill="#939393"/>
<path d="M54.1848 26.8823H56.8037L57.2299 27.7779H59.0149L56.569 22.9293H54.574L51.986 27.7779H53.7339L54.1848 26.8823ZM56.2787 25.7952H54.7284L55.3398 24.6279L55.5251 24.1832L55.6981 24.6217L56.2787 25.7952Z" fill="#939393"/>
<path d="M64.2649 24.1462V22.9293H58.4777V24.1462H60.5221V27.7779H62.2146V24.1462H64.2649Z" fill="#939393"/>
<path d="M69.8933 27.7779V26.5735H66.4171V25.9435H69.7513V24.7638H66.4171V24.1399H69.8506V22.9293H64.7864V27.7779H69.8933Z" fill="#939393"/>
<path d="M37.7496 30.3554H36.1498C36.1498 30.3554 35.1059 33.4066 35.1059 33.4807C35.1059 33.4066 34.13 30.3554 34.13 30.3554H32.3944C32.3944 30.3554 31.4246 33.4066 31.4246 33.4807C31.4246 33.4066 30.3746 30.3554 30.3746 30.3554H28.5772L30.3932 35.204H32.2029C32.2029 35.204 33.1788 32.3072 33.185 32.2269C33.1912 32.3072 34.1609 35.204 34.1609 35.204H35.9768L37.7496 30.3554Z" fill="#939393"/>
<path d="M39.9382 35.204V30.3554H38.2397V35.204H39.9382Z" fill="#939393"/>
<path d="M46.5454 35.204V30.3554H44.9642V32.9928L42.6356 30.3554H40.8937V35.204H42.4874V32.5048L44.8901 35.204H46.5454Z" fill="#939393"/>
<path d="M53.1623 35.204V30.3554H51.5811V32.9928L49.2526 30.3554H47.5108V35.204H49.1043V32.5048L51.507 35.204H53.1623Z" fill="#939393"/>
<path d="M59.2355 35.204V33.9996H55.7581V33.3696H59.0934V32.1899H55.7581V31.566H59.1923V30.3554H54.1274V35.204H59.2355Z" fill="#939393"/>
<path d="M65.7649 31.8316C65.7649 31.3931 65.6594 31.078 65.437 30.8495C65.1468 30.5407 64.6468 30.3554 63.8805 30.3554H60.0206V35.204H61.6697V33.4932H63.1707L64.3755 35.204H66.216L64.7524 33.2275C65.079 33.1781 65.3453 32.9805 65.5175 32.7458C65.672 32.5296 65.7649 32.2083 65.7649 31.8316ZM64.1594 31.986C64.1594 32.0664 64.1468 32.1651 64.1028 32.2393C64.0413 32.3627 63.8805 32.4122 63.6154 32.4122H61.6759V31.5289H63.584C63.844 31.5289 64.0174 31.5721 64.1028 31.7328C64.1468 31.7945 64.1594 31.8934 64.1594 31.986Z" fill="#939393"/>
<path d="M31.6902 39.9743C31.6902 39.8951 31.6902 37.605 31.6902 37.605H31.1119C31.1119 37.605 31.1119 39.8856 31.1119 39.937C31.1119 40.4873 30.5942 40.7999 29.8479 40.7999C28.9665 40.7999 28.5327 40.464 28.5327 39.9324C28.5327 39.881 28.5327 37.605 28.5327 37.605H27.9498C27.9498 37.605 27.9498 39.8251 27.9498 39.9136C27.9498 40.8838 28.7053 41.3128 29.8247 41.3128C30.9813 41.3128 31.6902 40.8558 31.6902 39.9743Z" fill="#939393"/>
<path d="M35.8397 41.2662V40.7299H33.3165V37.605H32.7336V41.2662H35.8397Z" fill="#939393"/>
<path d="M39.1524 38.1367V37.605H35.2626V38.1367H36.9136V41.2662H37.5013V38.1367H39.1524Z" fill="#939393"/>
<path d="M43.2977 38.6404C43.2977 38.3792 43.2417 38.188 43.1438 38.0341C42.9712 37.7775 42.64 37.605 42.0897 37.605H39.7205V41.2662H40.2941V39.7224H41.9637L42.9851 41.2662H43.6567L42.5514 39.6244C42.8312 39.5919 43.0505 39.4332 43.167 39.2281C43.2511 39.0881 43.2977 38.883 43.2977 38.6404ZM42.7193 38.687C42.7193 38.7896 42.696 38.9156 42.6541 38.9996C42.5795 39.1347 42.4068 39.2047 42.1271 39.2094H40.2987C40.2987 39.2001 40.2987 38.1274 40.2987 38.1274H42.0198C42.3695 38.1274 42.5561 38.2113 42.6541 38.3699C42.696 38.4445 42.7193 38.5704 42.7193 38.687Z" fill="#939393"/>
<path d="M44.9573 40.3614H47.238L47.7044 41.2662H48.3294L46.4731 37.605H45.7875L43.8706 41.2662H44.4815L44.9573 40.3614ZM46.9954 39.8437H45.2092L45.9507 38.4399L46.114 38.0994L46.2772 38.4399L46.9954 39.8437Z" fill="#939393"/>
<path d="M54.2447 40.9164C54.3893 40.7485 54.4546 40.5106 54.4546 40.2541C54.4546 40.0116 54.3846 39.769 54.24 39.6198C54.0954 39.48 53.8622 39.3634 53.6057 39.34C53.755 39.3166 53.8715 39.2234 53.9508 39.1254C54.0768 38.9808 54.1513 38.7477 54.1513 38.5145C54.1513 38.2672 54.0768 38.0434 53.9181 37.8895C53.7457 37.717 53.4518 37.605 53.0414 37.605H50.5787V41.2662H53.2233C53.7176 41.2662 54.0628 41.1403 54.2447 40.9164ZM53.5497 38.6311C53.5497 38.7943 53.4984 38.9389 53.4098 39.0228C53.3211 39.1208 53.1719 39.1627 53.0134 39.1627H51.1477V38.1087H52.9061C53.1206 38.1087 53.2838 38.1507 53.3958 38.2533C53.4938 38.3465 53.5497 38.4818 53.5497 38.6311ZM53.7362 40.5619C53.6196 40.6926 53.4191 40.7579 53.1253 40.7579H51.1477V39.6712H53.1394C53.4098 39.6712 53.5964 39.7271 53.7083 39.8344C53.8109 39.9324 53.8529 40.0582 53.8529 40.2028C53.8529 40.3521 53.8203 40.478 53.7362 40.5619Z" fill="#939393"/>
<path d="M58.6886 41.2662V40.7299H55.8437V39.6851H58.5767V39.1535H55.8437V38.1367H58.656V37.605H55.2746V41.2662H58.6886Z" fill="#939393"/>
<path d="M63.2448 40.1842C63.2448 39.5872 62.8491 39.2794 61.8742 39.1674C61.7105 39.1442 61.3559 39.1069 61.1647 39.0835C60.2599 38.9762 59.9848 38.855 59.9848 38.5425C59.9848 38.2394 60.2879 38.0668 61.202 38.0668C61.9106 38.0668 62.2749 38.2067 62.4571 38.4585C62.5086 38.5285 62.5362 38.6125 62.5501 38.6777H63.1744C63.1569 38.5704 63.1141 38.4212 63.0488 38.2999C62.7975 37.8663 62.2799 37.5537 61.202 37.5537C59.9148 37.549 59.3831 38.0155 59.3831 38.5938C59.3831 39.1721 59.7982 39.4659 60.8756 39.5919C61.0622 39.6152 61.3932 39.6525 61.5566 39.6712C62.3918 39.7737 62.6531 39.8997 62.6531 40.2495C62.6531 40.5714 62.3541 40.8045 61.3979 40.8045C60.6144 40.8045 60.1946 40.6646 60.0267 40.3941C59.9755 40.3195 59.9428 40.2029 59.9382 40.1236H59.3224C59.3365 40.2914 59.3831 40.4734 59.4671 40.618C59.7096 41.0611 60.2786 41.3176 61.3793 41.3176C62.6945 41.3176 63.2448 40.8931 63.2448 40.1842Z" fill="#939393"/>
<path d="M67.4272 38.1367V37.605H63.5376V38.1367H65.1884V41.2662H65.7763V38.1367H67.4272Z" fill="#939393"/>
<path d="M26.299 44.4484C26.299 44.0752 26.2244 43.8234 26.0984 43.6321C25.9212 43.3569 25.576 43.2124 24.9743 43.2124H22.6611V46.8736H23.2394V45.6796C23.2394 45.6796 24.8718 45.6796 24.9511 45.6796C25.5154 45.6749 25.9025 45.5444 26.1078 45.2459C26.2383 45.064 26.299 44.8028 26.299 44.4484ZM25.7113 44.4484C25.7113 44.6348 25.6926 44.7748 25.632 44.8681C25.5247 45.0406 25.3055 45.1479 24.8531 45.1479C24.8111 45.1479 23.2394 45.1479 23.2394 45.1479V43.7348H24.8718C25.2962 43.7348 25.5154 43.8326 25.632 44.0239C25.6879 44.1078 25.7113 44.2618 25.7113 44.4484Z" fill="#939393"/>
<path d="M30.5203 46.8736V46.3372H27.6752V45.2925H30.4084V44.7608H27.6752V43.7441H30.4876V43.2124H27.1063V46.8736H30.5203Z" fill="#939393"/>
<path d="M34.9695 44.2477C34.9695 43.9865 34.9136 43.7953 34.8156 43.6414C34.643 43.3849 34.3119 43.2124 33.7616 43.2124H31.3923V46.8736H31.9659V45.3298H33.6357L34.6571 46.8736H35.3287L34.2233 45.2318C34.5032 45.1993 34.7224 45.0406 34.839 44.8354C34.9229 44.6955 34.9695 44.4903 34.9695 44.2477ZM34.3912 44.2943C34.3912 44.397 34.3679 44.523 34.3259 44.6069C34.2513 44.7421 34.0787 44.8121 33.7989 44.8167H31.9706C31.9706 44.8074 31.9706 43.7348 31.9706 43.7348H33.6916C34.0413 43.7348 34.2279 43.8187 34.3259 43.9773C34.3679 44.0519 34.3912 44.1778 34.3912 44.2943Z" fill="#939393"/>
<path d="M39.2933 43.7441V43.2124H36.0378V46.8736H36.6161V45.3159H39.1721V44.7701H36.6161V43.7441H39.2933Z" fill="#939393"/>
<path d="M41.9477 43.1472C41.1688 43.1472 40.6325 43.3384 40.25 43.7395C39.9282 44.052 39.7883 44.4858 39.7883 45.0314C39.7883 45.6284 39.9702 46.0761 40.306 46.3793C40.6652 46.7385 41.2154 46.9249 41.9477 46.9249C42.7033 46.9249 43.2909 46.7385 43.6408 46.3606C43.9439 46.0528 44.1025 45.6144 44.1025 45.0267C44.1025 44.4577 43.9672 44.0239 43.6454 43.7161C43.2769 43.3337 42.7265 43.1472 41.9477 43.1472ZM41.9477 46.4026C41.4347 46.4026 41.0708 46.2907 40.7957 46.0668C40.5159 45.8383 40.3806 45.4884 40.3806 45.0407C40.3806 44.6209 40.4972 44.2712 40.7211 44.0613C40.9776 43.8188 41.3693 43.6742 41.9431 43.6742C42.5353 43.6742 42.9038 43.8141 43.1789 44.0566C43.4122 44.2619 43.5148 44.6256 43.5148 45.036C43.5148 45.4511 43.4076 45.8056 43.1696 46.0201C42.8945 46.2766 42.5074 46.4026 41.9477 46.4026Z" fill="#939393"/>
<path d="M48.4785 44.2477C48.4785 43.9865 48.4225 43.7953 48.3246 43.6414C48.152 43.3849 47.8209 43.2124 47.2706 43.2124H44.9013V46.8736H45.4749V45.3298H47.1446L48.1661 46.8736H48.8376L47.7323 45.2318C48.0121 45.1993 48.2313 45.0406 48.3479 44.8354C48.4319 44.6955 48.4785 44.4903 48.4785 44.2477ZM47.9001 44.2943C47.9001 44.397 47.8769 44.523 47.8349 44.6069C47.7603 44.7421 47.5877 44.8121 47.3079 44.8167H45.4796C45.4796 44.8074 45.4796 43.7348 45.4796 43.7348H47.2006C47.5504 43.7348 47.7369 43.8187 47.8349 43.9773C47.8769 44.0519 47.9001 44.1778 47.9001 44.2943Z" fill="#939393"/>
<path d="M54.0572 46.8736V43.2124H53.3016L51.7952 46.2253L50.3166 43.2124H49.5471V46.8736H50.1022V44.0565L51.4826 46.8736H52.0889L53.5021 44.0565V46.8736H54.0572Z" fill="#939393"/>
<path d="M55.6954 45.9688H57.9761L58.4424 46.8736H59.0674L57.2111 43.2124H56.5255L54.6086 46.8736H55.2196L55.6954 45.9688ZM57.7335 45.451H55.9472L56.6887 44.0472L56.852 43.7068L57.0152 44.0472L57.7335 45.451Z" fill="#939393"/>
<path d="M63.2688 46.8736V43.2124H62.7135V46.0573L60.2888 43.2124H59.6311V46.8736H60.1954V44.0099L62.6394 46.8736H63.2688Z" fill="#939393"/>
<path d="M68.3003 45.5071H67.6935C67.6747 45.675 67.6094 45.843 67.4925 45.9688C67.2413 46.2627 66.8405 46.3886 66.2249 46.3886C65.7073 46.3886 65.152 46.244 64.8857 45.8662C64.7462 45.6891 64.657 45.4279 64.657 45.036C64.657 44.6863 64.7186 44.4251 64.853 44.2478C65.0766 43.8888 65.5477 43.7022 66.2111 43.7022C66.8543 43.7022 67.2601 43.8793 67.4749 44.1266C67.5955 44.2571 67.6659 44.4111 67.6885 44.5929H68.2953C68.2765 44.3878 68.2111 44.1452 68.0717 43.94C67.7727 43.4969 67.2224 43.1472 66.2148 43.1472C65.255 43.1472 64.6809 43.455 64.363 43.9166C64.1583 44.1825 64.0552 44.5556 64.0552 45.0314C64.0552 45.5631 64.1821 45.9549 64.4007 46.23C64.7186 46.6638 65.3291 46.9249 66.2525 46.9249C67.1998 46.9249 67.7639 46.6405 68.044 46.1881C68.2023 45.9688 68.2815 45.7077 68.3003 45.5071Z" fill="#939393"/>
<path d="M72.4737 46.8736V46.3372H69.6281V45.2925H72.3619V44.7608H69.6281V43.7441H72.441V43.2124H69.059V46.8736H72.4737Z" fill="#939393"/>
<path d="M29.8204 50.5106L30.5179 52.6574H32.7751L30.9491 53.9842L31.6466 56.1309L29.8204 54.8042L27.9942 56.1309L28.6918 53.9842L26.8657 52.6574H29.1229L29.8204 50.5106Z" fill="#939393"/>
<path d="M37.8728 50.5108L38.5845 52.6575H40.8879L39.0245 53.9843L39.7362 56.1311L37.8728 54.8043L36.0095 56.1311L36.7212 53.9843L34.8578 52.6575H37.1611L37.8728 50.5108Z" fill="#939393"/>
<path d="M45.8616 50.5108L46.5735 52.6575H48.8767L47.0133 53.9843L47.7251 56.1311L45.8616 54.8043L43.9983 56.1311L44.71 53.9843L42.8466 52.6575H45.1499L45.8616 50.5108Z" fill="#939393"/>
<path d="M53.8505 50.5108L54.5622 52.6575H56.8655L55.0021 53.9843L55.7138 56.1311L53.8505 54.8043L51.9871 56.1311L52.6988 53.9843L50.8354 52.6575H53.1388L53.8505 50.5108Z" fill="#939393"/>
<path d="M61.9032 50.5108L62.6005 52.6575H64.8581L63.0314 53.9843L63.7286 56.1311L61.9032 54.8043L60.0769 56.1311L60.7745 53.9843L58.9484 52.6575H61.2056L61.9032 50.5108Z" fill="#939393"/>
<path d="M33.7329 14.2921L34.2603 15.9152H35.967L34.5864 16.9184L35.1138 18.5414L33.7329 17.5384L32.3523 18.5414L32.8797 16.9184L31.499 15.9152H33.2057L33.7329 14.2921Z" fill="#939393"/>
<path d="M39.8213 14.2898L40.3595 15.913H42.1009L40.692 16.9161L41.2301 18.5392L39.8213 17.536L38.4123 18.5392L38.9505 16.9161L37.5416 15.913H39.2831L39.8213 14.2898Z" fill="#939393"/>
<path d="M45.8613 14.2898L46.3994 15.913H48.1409L46.7321 16.9161L47.2701 18.5392L45.8613 17.536L44.4524 18.5392L44.9906 16.9161L43.5816 15.913H45.3231L45.8613 14.2898Z" fill="#939393"/>
<path d="M51.9025 14.2898L52.4406 15.913H54.1821L52.7733 16.9161L53.3113 18.5392L51.9025 17.536L50.4936 18.5392L51.0318 16.9161L49.6228 15.913H51.3643L51.9025 14.2898Z" fill="#939393"/>
<path d="M57.9898 14.2898L58.5172 15.913H60.2239L58.8432 16.9161L59.3706 18.5392L57.9898 17.536L56.6091 18.5392L57.1365 16.9161L55.7558 15.913H57.4624L57.9898 14.2898Z" fill="#939393"/>
<path fill-rule="evenodd" clip-rule="evenodd" d="M9.42343 43.5067C7.09597 28.9449 13.8886 14.5377 27.4871 8.35083L27.6126 8.62672C14.1509 14.7513 7.41445 29.0175 9.72268 43.4588C12.2764 59.4358 25.1654 69.0177 40.9492 69.4796L40.9402 69.7827C25.0335 69.3171 12.0034 59.6485 9.42343 43.5067Z" fill="#939393"/>
<path d="M24.5388 12.0671C22.0258 12.1244 19.0846 13.5415 17.3491 15.5999C18.7409 16.8923 20.9801 16.4145 22.5916 16.1501C24.8915 15.773 27.3373 15.0423 29.5076 14.008C28.6153 12.1085 26.2114 12.0291 24.5388 12.0671Z" fill="#939393"/>
<path d="M22.5623 8.96708C21.0738 11.2857 19.2999 13.5902 17.3695 15.6195C15.7543 14.1034 16.7292 11.5803 17.3884 10.0113C18.5826 7.16829 21.4456 4.71659 24.4387 3.46216C25.2603 5.33118 23.4759 7.54393 22.5623 8.96708Z" fill="#939393"/>
<path d="M17.2669 18.5692C14.9139 19.4057 12.8918 21.7603 11.8766 24.1241C13.5686 24.9109 15.4921 23.7748 16.8993 23.0183C18.8316 21.9796 20.8028 20.5464 22.3539 18.8878C20.9525 17.4091 18.8245 18.0157 17.2669 18.5692Z" fill="#939393"/>
<path d="M14.4143 16.2523C13.8992 18.8968 13.0356 21.6379 11.9014 24.1362C9.92173 23.2025 9.99711 20.5283 10.0819 18.8265C10.2266 15.9218 11.8517 12.6094 14.1142 10.5043C15.4993 11.9892 14.7425 14.5677 14.4143 16.2523Z" fill="#939393"/>
<path d="M12.7392 26.9637C10.7785 28.5104 9.59002 31.377 9.31476 33.9367C11.1696 34.1497 12.6522 32.4617 13.7553 31.3036C15.2573 29.7268 16.679 27.7491 17.5819 25.6801C15.8138 24.7155 14.0164 25.9561 12.7392 26.9637Z" fill="#939393"/>
<path d="M9.34221 25.6579C9.69184 28.3284 9.69259 31.2176 9.34284 33.9402C7.18574 33.6753 6.47027 31.0853 6.04765 29.4605C5.31798 26.6559 5.80719 23.0332 7.22858 20.3067C9.00489 21.29 9.11883 23.9509 9.34221 25.6579Z" fill="#939393"/>
<path d="M11.2004 36.1266C9.6489 38.3994 9.10328 41.9612 9.80104 44.8241C11.8513 44.3387 12.8677 42.0174 13.6838 40.378C14.7684 38.1992 15.6851 35.6573 16.0133 33.1634C13.7895 32.7005 12.2225 34.6294 11.2004 36.1266Z" fill="#939393"/>
<path d="M7.12748 35.8968C8.33631 38.6955 9.27967 41.7758 9.8317 44.8171C7.48025 45.3223 5.78787 42.8531 4.80468 41.2159C3.05425 38.3015 2.54432 34.2613 3.18554 30.7748C5.33773 31.2063 6.3909 34.192 7.12748 35.8968Z" fill="#939393"/>
<path d="M12.2857 46.0152C11.4527 48.7723 12.0317 52.5205 13.7184 55.1126C15.572 53.9057 15.8286 51.2496 16.0912 49.3452C16.4376 46.832 16.6007 44.0481 16.1704 41.4421C13.7996 41.7447 12.8422 44.1733 12.2857 46.0152Z" fill="#939393"/>
<path d="M8.16576 47.1955C10.2457 49.5821 12.1644 52.3033 13.7467 55.0947C11.6007 56.4345 9.08237 54.6041 7.55507 53.3089C4.84557 51.0112 3.08623 47.1059 2.66913 43.4242C4.92396 43.1212 6.91108 45.7557 8.16576 47.1955Z" fill="#939393"/>
<path d="M16.657 55.3994C16.8358 58.6087 18.9251 61.9762 21.7071 63.893C23.0506 62.0536 22.2085 59.2353 21.7502 57.268C21.1332 54.6194 20.2793 51.8612 19.0103 49.4139C16.7974 50.5833 16.5393 53.2859 16.657 55.3994Z" fill="#939393"/>
<path d="M12.9154 58.1103C15.9295 59.7851 18.9348 61.7614 21.7291 63.8643C20.0557 66.0679 16.7109 65.1892 14.6375 64.4809C10.9836 63.2328 7.72609 59.9425 6.02466 56.287C8.18188 55.1758 11.135 57.1209 12.9154 58.1103Z" fill="#939393"/>
<path d="M25.2411 63.2396C27.0501 66.541 31.1725 68.6947 35.0545 69.2132C35.4723 66.8131 32.8754 64.4368 31.4603 62.8822C29.4455 60.669 27.3461 58.3722 24.9923 56.4586C23.2288 58.5061 24.1611 61.2686 25.2411 63.2396Z" fill="#939393"/>
<path d="M22.6576 67.4237C26.7696 67.8512 30.9514 68.4666 35.061 69.1763C34.6687 72.2046 29.8632 72.6933 27.6816 72.872C23.2084 73.2386 18.2324 71.4406 14.7676 68.4136C16.4885 66.3887 20.4672 67.196 22.6576 67.4237Z" fill="#939393"/>
<path d="M30.578 5.8092C27.8173 6.59679 24.5858 8.09092 22.9894 10.849C25.8871 10.5332 28.735 9.50214 31.5201 8.71657C34.6398 7.83652 37.9247 7.17833 40.9451 5.9636C37.6373 4.6402 33.7379 4.90767 30.578 5.8092Z" fill="#939393"/>
<path fill-rule="evenodd" clip-rule="evenodd" d="M83.9879 43.4588C86.2958 29.0175 79.5594 14.7515 66.098 8.62672L66.2236 8.35083C79.822 14.5378 86.6149 28.9449 84.287 43.5067C81.7077 59.6485 68.6772 69.3171 52.7705 69.7827L52.7617 69.4796C68.5453 69.0177 81.4339 59.4358 83.9879 43.4588Z" fill="#939393"/>
<path d="M69.1723 12.0671C71.6849 12.1244 74.6259 13.5415 76.3622 15.5999C74.9702 16.8923 72.7302 16.4145 71.1196 16.1501C68.8193 15.773 66.3732 15.0423 64.2036 14.008C65.0955 12.1085 67.4989 12.0291 69.1723 12.0671Z" fill="#939393"/>
<path d="M71.1484 8.96708C72.6372 11.2857 74.4111 13.5902 76.3408 15.6195C77.9564 14.1034 76.9815 11.5803 76.3219 10.0113C75.1284 7.16829 72.2653 4.71659 69.2715 3.46216C68.4499 5.33118 70.2351 7.54393 71.1484 8.96708Z" fill="#939393"/>
<path d="M76.445 18.5692C78.7981 19.4057 80.8195 21.7603 81.8346 24.1241C80.1423 24.9109 78.2189 23.7748 76.8118 23.0183C74.8796 21.9796 72.9084 20.5464 71.3582 18.8878C72.7589 17.4091 74.8871 18.0157 76.445 18.5692Z" fill="#939393"/>
<path d="M79.2969 16.2523C79.812 18.8968 80.6751 21.6379 81.8095 24.1362C83.7895 23.2025 83.7141 20.5283 83.6287 18.8265C83.4842 15.9218 81.8598 12.6094 79.5971 10.5043C78.2114 11.9892 78.969 14.5677 79.2969 16.2523Z" fill="#939393"/>
<path d="M80.9716 26.9637C82.9327 28.5104 84.1212 31.377 84.3963 33.9367C82.542 34.1497 81.0595 32.4617 79.9565 31.3036C78.4539 29.7268 77.0318 27.7491 76.1298 25.6801C77.8974 24.7155 79.6952 25.9561 80.9716 26.9637Z" fill="#939393"/>
<path d="M84.3699 25.6579C84.0193 28.3282 84.0193 31.2176 84.3686 33.9402C86.5257 33.6753 87.2418 31.0853 87.6639 29.4605C88.3938 26.6559 87.9039 23.0332 86.483 20.3067C84.7065 21.29 84.5922 23.9509 84.3699 25.6579Z" fill="#939393"/>
<path d="M82.5105 36.1266C84.062 38.3994 84.6072 41.9612 83.91 44.8241C81.8597 44.3387 80.8433 42.0175 80.0267 40.378C78.9425 38.1992 78.0254 35.6573 77.6975 33.1634C79.9212 32.7005 81.4891 34.6294 82.5105 36.1266Z" fill="#939393"/>
<path d="M86.5835 35.8968C85.3749 38.6955 84.4314 41.7758 83.8799 44.8171C86.2304 45.3223 87.9227 42.8531 88.9064 41.2159C90.6564 38.3015 91.1665 34.2613 90.5258 30.7748C88.3737 31.2063 87.3197 34.192 86.5835 35.8968Z" fill="#939393"/>
<path d="M81.425 46.0152C82.2579 48.7723 81.68 52.5205 79.9928 55.1126C78.1397 53.9057 77.8822 51.2496 77.6196 49.3452C77.2741 46.832 77.1108 44.0481 77.5404 41.4421C79.9111 41.7447 80.8684 44.1733 81.425 46.0152Z" fill="#939393"/>
<path d="M85.5446 47.1955C83.4654 49.5823 81.547 52.3033 79.9641 55.0947C82.1098 56.4345 84.6288 54.6041 86.1564 53.3089C88.865 51.0112 90.6251 47.1059 91.0422 43.4242C88.7872 43.1212 86.7997 45.7557 85.5446 47.1955Z" fill="#939393"/>
<path d="M77.053 55.3994C76.8746 58.6087 74.7853 61.9762 72.0039 63.893C70.6596 62.0536 71.5026 59.2354 71.9599 57.268C72.5767 54.6194 73.431 51.8612 74.6999 49.4139C76.9135 50.5833 77.1711 53.2859 77.053 55.3994Z" fill="#939393"/>
<path d="M80.7957 58.1103C77.7818 59.7851 74.7767 61.7614 71.9827 63.8643C73.6561 66.0679 77.0004 65.1892 79.0733 64.4809C82.7279 63.2328 85.9856 59.9425 87.6866 56.287C85.5295 55.1758 82.5759 57.1209 80.7957 58.1103Z" fill="#939393"/>
<path d="M68.47 63.2396C66.6609 66.541 62.5389 68.6947 58.6564 69.2132C58.2385 66.8131 60.8353 64.4368 62.2512 62.8822C64.2651 60.669 66.3644 58.3722 68.7187 56.4586C70.4826 58.5061 69.5492 61.2686 68.47 63.2396Z" fill="#939393"/>
<path d="M71.0529 67.4237C66.941 67.8512 62.7599 68.4666 58.6495 69.1763C59.042 72.2046 63.8479 72.6933 66.0289 72.872C70.5026 73.2386 75.4789 71.4406 78.9426 68.4136C77.2227 66.3887 73.2439 67.196 71.0529 67.4237Z" fill="#939393"/>
<path d="M63.133 5.8092C65.8931 6.59679 69.1256 8.09092 70.7211 10.849C67.8241 10.5332 64.976 9.50214 62.1908 8.71657C59.0711 7.83652 55.7862 7.17833 52.7657 5.9636C56.0738 4.6402 59.973 4.90767 63.133 5.8092Z" fill="#939393"/>
<path d="M48.6507 4.38187L47.2342 1.25629L45.8444 4.32371L42.612 2.31963L44.6891 6.68445H49.8545L51.8566 2.31963L48.6507 4.38187Z" fill="#939393"/>
<path d="M49.8214 7.36273H44.6478V8.12619H49.8214V7.36273Z" fill="#939393"/>
<path d="M47.6041 66.4237L48.4378 68.9894H51.1355L48.953 70.575L49.7866 73.1406L47.6041 71.555L45.4217 73.1406L46.2553 70.575L44.0729 68.9894H46.7706L47.6041 66.4237Z" fill="#939393"/>
</svg>
