<svg width="1440" height="206" viewBox="0 0 1440 206" fill="none" xmlns="http://www.w3.org/2000/svg">
<rect width="1440" height="204.52" transform="translate(0 0.584229)" fill="#6C5FD4"/>
<path d="M49.6806 117.811V120.056H42.5612V125.003H48.1119V127.248H42.5612V134.584H39.81V117.811H49.6806ZM51.4338 127.875C51.4338 126.54 51.7073 125.357 52.2544 124.328C52.8175 123.298 53.5737 122.501 54.5229 121.938C55.4883 121.359 56.5501 121.07 57.7085 121.07C58.7543 121.07 59.6633 121.279 60.4356 121.697C61.224 122.099 61.8514 122.606 62.318 123.217V121.287H65.0934V134.584H62.318V132.605C61.8514 133.233 61.2159 133.756 60.4115 134.174C59.607 134.592 58.69 134.801 57.6603 134.801C56.5179 134.801 55.4722 134.512 54.5229 133.933C53.5737 133.337 52.8175 132.517 52.2544 131.471C51.7073 130.409 51.4338 129.211 51.4338 127.875ZM62.318 127.923C62.318 127.006 62.1249 126.21 61.7388 125.534C61.3688 124.858 60.8781 124.344 60.2667 123.99C59.6553 123.636 58.9956 123.459 58.2877 123.459C57.5798 123.459 56.9202 123.636 56.3088 123.99C55.6974 124.328 55.1987 124.834 54.8125 125.51C54.4425 126.17 54.2574 126.958 54.2574 127.875C54.2574 128.792 54.4425 129.597 54.8125 130.288C55.1987 130.98 55.6974 131.511 56.3088 131.881C56.9363 132.235 57.5959 132.412 58.2877 132.412C58.9956 132.412 59.6553 132.235 60.2667 131.881C60.8781 131.527 61.3688 131.012 61.7388 130.337C62.1249 129.645 62.318 128.84 62.318 127.923ZM73.6543 134.801C72.6085 134.801 71.6673 134.616 70.8307 134.246C70.0102 133.86 69.3586 133.345 68.8759 132.702C68.3932 132.042 68.1358 131.31 68.1036 130.506H70.9514C70.9996 131.069 71.2651 131.543 71.7478 131.93C72.2465 132.3 72.866 132.485 73.606 132.485C74.3783 132.485 74.9736 132.34 75.3919 132.05C75.8263 131.745 76.0435 131.358 76.0435 130.892C76.0435 130.393 75.8022 130.023 75.3195 129.782C74.8529 129.54 74.1048 129.275 73.0751 128.985C72.0776 128.712 71.2651 128.446 70.6376 128.189C70.0102 127.931 69.4631 127.537 68.9966 127.006C68.5461 126.475 68.3208 125.776 68.3208 124.907C68.3208 124.199 68.53 123.555 68.9483 122.976C69.3666 122.381 69.9619 121.914 70.7342 121.576C71.5225 121.238 72.4235 121.07 73.4371 121.07C74.9495 121.07 76.1642 121.456 77.0813 122.228C78.0144 122.984 78.5132 124.022 78.5775 125.341H75.8263C75.7781 124.746 75.5367 124.271 75.1023 123.917C74.6679 123.563 74.0807 123.386 73.3406 123.386C72.6166 123.386 72.0615 123.523 71.6754 123.797C71.2892 124.07 71.0962 124.432 71.0962 124.883C71.0962 125.237 71.2249 125.534 71.4823 125.776C71.7397 126.017 72.0535 126.21 72.4235 126.355C72.7936 126.483 73.3406 126.652 74.0646 126.862C75.0299 127.119 75.8183 127.384 76.4297 127.658C77.0571 127.915 77.5961 128.301 78.0466 128.816C78.4971 129.331 78.7304 130.015 78.7465 130.868C78.7465 131.624 78.5373 132.3 78.119 132.895C77.7007 133.49 77.1054 133.957 76.3331 134.295C75.5769 134.632 74.684 134.801 73.6543 134.801ZM85.0496 123.531V130.892C85.0496 131.391 85.1623 131.753 85.3875 131.978C85.6288 132.187 86.0311 132.292 86.5942 132.292H88.2835V134.584H86.1115C84.8727 134.584 83.9234 134.295 83.2638 133.715C82.6041 133.136 82.2743 132.195 82.2743 130.892V123.531H80.7056V121.287H82.2743V117.98H85.0496V121.287H88.2835V123.531H85.0496ZM103.127 127.61C103.127 128.108 103.095 128.559 103.031 128.961H92.8706C92.951 130.023 93.3452 130.876 94.0531 131.519C94.761 132.163 95.6298 132.485 96.6595 132.485C98.1397 132.485 99.1855 131.865 99.7969 130.626H102.765C102.363 131.849 101.631 132.855 100.569 133.643C99.5233 134.415 98.2201 134.801 96.6595 134.801C95.3885 134.801 94.2462 134.52 93.2326 133.957C92.235 133.378 91.4467 132.573 90.8675 131.543C90.3044 130.498 90.0228 129.291 90.0228 127.923C90.0228 126.556 90.2963 125.357 90.8434 124.328C91.4065 123.282 92.1868 122.477 93.1843 121.914C94.1979 121.351 95.3563 121.07 96.6595 121.07C97.9144 121.07 99.0326 121.343 100.014 121.89C100.995 122.437 101.76 123.209 102.307 124.207C102.854 125.188 103.127 126.323 103.127 127.61ZM100.255 126.741C100.239 125.727 99.8773 124.915 99.1694 124.303C98.4615 123.692 97.5846 123.386 96.5388 123.386C95.5896 123.386 94.7771 123.692 94.1014 124.303C93.4256 124.899 93.0234 125.711 92.8947 126.741H100.255ZM108.707 123.217C109.109 122.542 109.64 122.019 110.299 121.649C110.975 121.263 111.772 121.07 112.689 121.07V123.917H111.989C110.911 123.917 110.09 124.191 109.527 124.738C108.98 125.285 108.707 126.234 108.707 127.586V134.584H105.955V121.287H108.707V123.217ZM130.44 134.584L126.579 127.875H124.479V134.584H121.728V117.811H127.52C128.807 117.811 129.893 118.037 130.778 118.487C131.679 118.938 132.347 119.541 132.781 120.297C133.232 121.053 133.457 121.898 133.457 122.831C133.457 123.925 133.135 124.923 132.491 125.824C131.864 126.709 130.891 127.312 129.571 127.634L133.722 134.584H130.44ZM124.479 125.679H127.52C128.55 125.679 129.322 125.422 129.837 124.907C130.368 124.392 130.633 123.7 130.633 122.831C130.633 121.962 130.376 121.287 129.861 120.804C129.346 120.305 128.566 120.056 127.52 120.056H124.479V125.679ZM149.284 127.61C149.284 128.108 149.252 128.559 149.188 128.961H139.028C139.108 130.023 139.502 130.876 140.21 131.519C140.918 132.163 141.787 132.485 142.817 132.485C144.297 132.485 145.343 131.865 145.954 130.626H148.922C148.52 131.849 147.788 132.855 146.726 133.643C145.68 134.415 144.377 134.801 142.817 134.801C141.546 134.801 140.403 134.52 139.39 133.957C138.392 133.378 137.604 132.573 137.025 131.543C136.461 130.498 136.18 129.291 136.18 127.923C136.18 126.556 136.453 125.357 137 124.328C137.564 123.282 138.344 122.477 139.341 121.914C140.355 121.351 141.513 121.07 142.817 121.07C144.072 121.07 145.19 121.343 146.171 121.89C147.153 122.437 147.917 123.209 148.464 124.207C149.011 125.188 149.284 126.323 149.284 127.61ZM146.412 126.741C146.396 125.727 146.034 124.915 145.326 124.303C144.619 123.692 143.742 123.386 142.696 123.386C141.747 123.386 140.934 123.692 140.258 124.303C139.583 124.899 139.18 125.711 139.052 126.741H146.412ZM154.864 116.725V134.584H152.112V116.725H154.864ZM170.784 127.61C170.784 128.108 170.752 128.559 170.687 128.961H160.527C160.608 130.023 161.002 130.876 161.71 131.519C162.418 132.163 163.286 132.485 164.316 132.485C165.796 132.485 166.842 131.865 167.453 130.626H170.422C170.02 131.849 169.288 132.855 168.226 133.643C167.18 134.415 165.877 134.801 164.316 134.801C163.045 134.801 161.903 134.52 160.889 133.957C159.892 133.378 159.103 132.573 158.524 131.543C157.961 130.498 157.679 129.291 157.679 127.923C157.679 126.556 157.953 125.357 158.5 124.328C159.063 123.282 159.843 122.477 160.841 121.914C161.854 121.351 163.013 121.07 164.316 121.07C165.571 121.07 166.689 121.343 167.671 121.89C168.652 122.437 169.416 123.209 169.963 124.207C170.51 125.188 170.784 126.323 170.784 127.61ZM167.912 126.741C167.896 125.727 167.534 124.915 166.826 124.303C166.118 123.692 165.241 123.386 164.195 123.386C163.246 123.386 162.434 123.692 161.758 124.303C161.082 124.899 160.68 125.711 160.551 126.741H167.912ZM172.695 127.875C172.695 126.54 172.968 125.357 173.515 124.328C174.079 123.298 174.835 122.501 175.784 121.938C176.749 121.359 177.811 121.07 178.97 121.07C180.015 121.07 180.924 121.279 181.697 121.697C182.485 122.099 183.112 122.606 183.579 123.217V121.287H186.354V134.584H183.579V132.605C183.112 133.233 182.477 133.756 181.673 134.174C180.868 134.592 179.951 134.801 178.921 134.801C177.779 134.801 176.733 134.512 175.784 133.933C174.835 133.337 174.079 132.517 173.515 131.471C172.968 130.409 172.695 129.211 172.695 127.875ZM183.579 127.923C183.579 127.006 183.386 126.21 183 125.534C182.63 124.858 182.139 124.344 181.528 123.99C180.916 123.636 180.257 123.459 179.549 123.459C178.841 123.459 178.181 123.636 177.57 123.99C176.958 124.328 176.46 124.834 176.074 125.51C175.704 126.17 175.519 126.958 175.519 127.875C175.519 128.792 175.704 129.597 176.074 130.288C176.46 130.98 176.958 131.511 177.57 131.881C178.197 132.235 178.857 132.412 179.549 132.412C180.257 132.412 180.916 132.235 181.528 131.881C182.139 131.527 182.63 131.012 183 130.337C183.386 129.645 183.579 128.84 183.579 127.923ZM194.915 134.801C193.87 134.801 192.928 134.616 192.092 134.246C191.271 133.86 190.62 133.345 190.137 132.702C189.654 132.042 189.397 131.31 189.365 130.506H192.212C192.261 131.069 192.526 131.543 193.009 131.93C193.508 132.3 194.127 132.485 194.867 132.485C195.639 132.485 196.235 132.34 196.653 132.05C197.087 131.745 197.305 131.358 197.305 130.892C197.305 130.393 197.063 130.023 196.581 129.782C196.114 129.54 195.366 129.275 194.336 128.985C193.339 128.712 192.526 128.446 191.899 128.189C191.271 127.931 190.724 127.537 190.258 127.006C189.807 126.475 189.582 125.776 189.582 124.907C189.582 124.199 189.791 123.555 190.209 122.976C190.628 122.381 191.223 121.914 191.995 121.576C192.784 121.238 193.685 121.07 194.698 121.07C196.211 121.07 197.425 121.456 198.342 122.228C199.275 122.984 199.774 124.022 199.839 125.341H197.087C197.039 124.746 196.798 124.271 196.363 123.917C195.929 123.563 195.342 123.386 194.602 123.386C193.878 123.386 193.323 123.523 192.936 123.797C192.55 124.07 192.357 124.432 192.357 124.883C192.357 125.237 192.486 125.534 192.743 125.776C193.001 126.017 193.315 126.21 193.685 126.355C194.055 126.483 194.602 126.652 195.326 126.862C196.291 127.119 197.079 127.384 197.691 127.658C198.318 127.915 198.857 128.301 199.308 128.816C199.758 129.331 199.991 130.015 200.008 130.868C200.008 131.624 199.798 132.3 199.38 132.895C198.962 133.49 198.366 133.957 197.594 134.295C196.838 134.632 195.945 134.801 194.915 134.801ZM215.288 127.61C215.288 128.108 215.256 128.559 215.192 128.961H205.032C205.112 130.023 205.506 130.876 206.214 131.519C206.922 132.163 207.791 132.485 208.821 132.485C210.301 132.485 211.347 131.865 211.958 130.626H214.926C214.524 131.849 213.792 132.855 212.73 133.643C211.684 134.415 210.381 134.801 208.821 134.801C207.55 134.801 206.407 134.52 205.394 133.957C204.396 133.378 203.608 132.573 203.029 131.543C202.465 130.498 202.184 129.291 202.184 127.923C202.184 126.556 202.457 125.357 203.004 124.328C203.568 123.282 204.348 122.477 205.345 121.914C206.359 121.351 207.517 121.07 208.821 121.07C210.076 121.07 211.194 121.343 212.175 121.89C213.157 122.437 213.921 123.209 214.468 124.207C215.015 125.188 215.288 126.323 215.288 127.61ZM212.416 126.741C212.4 125.727 212.038 124.915 211.33 124.303C210.623 123.692 209.746 123.386 208.7 123.386C207.751 123.386 206.938 123.692 206.262 124.303C205.587 124.899 205.184 125.711 205.056 126.741H212.416ZM223.589 127.923C223.589 126.556 223.863 125.357 224.41 124.328C224.973 123.282 225.745 122.477 226.726 121.914C227.708 121.351 228.834 121.07 230.105 121.07C231.714 121.07 233.041 121.456 234.087 122.228C235.149 122.984 235.865 124.07 236.235 125.486H233.267C233.025 124.826 232.639 124.311 232.108 123.941C231.577 123.571 230.91 123.386 230.105 123.386C228.979 123.386 228.078 123.789 227.402 124.593C226.743 125.381 226.413 126.491 226.413 127.923C226.413 129.355 226.743 130.474 227.402 131.278C228.078 132.082 228.979 132.485 230.105 132.485C231.698 132.485 232.752 131.785 233.267 130.385H236.235C235.849 131.736 235.125 132.814 234.063 133.619C233.001 134.407 231.682 134.801 230.105 134.801C228.834 134.801 227.708 134.52 226.726 133.957C225.745 133.378 224.973 132.573 224.41 131.543C223.863 130.498 223.589 129.291 223.589 127.923ZM251.068 121.287L242.911 140.835H240.063L242.766 134.367L237.529 121.287H240.594L244.334 131.423L248.22 121.287H251.068ZM252.347 127.923C252.347 126.556 252.621 125.357 253.168 124.328C253.731 123.282 254.503 122.477 255.485 121.914C256.466 121.351 257.592 121.07 258.864 121.07C260.472 121.07 261.8 121.456 262.846 122.228C263.907 122.984 264.623 124.07 264.993 125.486H262.025C261.784 124.826 261.398 124.311 260.867 123.941C260.336 123.571 259.668 123.386 258.864 123.386C257.737 123.386 256.836 123.789 256.161 124.593C255.501 125.381 255.171 126.491 255.171 127.923C255.171 129.355 255.501 130.474 256.161 131.278C256.836 132.082 257.737 132.485 258.864 132.485C260.456 132.485 261.51 131.785 262.025 130.385H264.993C264.607 131.736 263.883 132.814 262.821 133.619C261.76 134.407 260.44 134.801 258.864 134.801C257.592 134.801 256.466 134.52 255.485 133.957C254.503 133.378 253.731 132.573 253.168 131.543C252.621 130.498 252.347 129.291 252.347 127.923ZM270.607 116.725V134.584H267.856V116.725H270.607ZM286.527 127.61C286.527 128.108 286.495 128.559 286.431 128.961H276.27C276.351 130.023 276.745 130.876 277.453 131.519C278.161 132.163 279.03 132.485 280.059 132.485C281.54 132.485 282.585 131.865 283.197 130.626H286.165C285.763 131.849 285.031 132.855 283.969 133.643C282.923 134.415 281.62 134.801 280.059 134.801C278.788 134.801 277.646 134.52 276.632 133.957C275.635 133.378 274.847 132.573 274.267 131.543C273.704 130.498 273.423 129.291 273.423 127.923C273.423 126.556 273.696 125.357 274.243 124.328C274.806 123.282 275.587 122.477 276.584 121.914C277.598 121.351 278.756 121.07 280.059 121.07C281.314 121.07 282.433 121.343 283.414 121.89C284.395 122.437 285.16 123.209 285.707 124.207C286.254 125.188 286.527 126.323 286.527 127.61ZM283.655 126.741C283.639 125.727 283.277 124.915 282.569 124.303C281.861 123.692 280.985 123.386 279.939 123.386C278.99 123.386 278.177 123.692 277.501 124.303C276.826 124.899 276.423 125.711 276.295 126.741H283.655Z" fill="white"/>
<path d="M39.5599 72.5906C39.715 69.4877 40.801 67.0985 42.8179 65.423C44.8658 63.7164 47.5498 62.8631 50.8698 62.8631C53.1349 62.8631 55.0742 63.2665 56.6877 64.0732C58.3012 64.849 59.5113 65.9194 60.3181 67.2847C61.1558 68.6189 61.5747 70.1393 61.5747 71.8459C61.5747 73.8007 61.0628 75.4608 60.0388 76.826C59.0459 78.1603 57.8513 79.0601 56.455 79.5255V79.7117C58.2547 80.2702 59.6509 81.2631 60.6439 82.6905C61.6678 84.1178 62.1798 85.9485 62.1798 88.1825C62.1798 90.0443 61.7454 91.7043 60.8766 93.1626C60.0388 94.621 58.7821 95.769 57.1066 96.6068C55.4621 97.4136 53.4762 97.8169 51.1491 97.8169C47.6428 97.8169 44.7882 96.9326 42.5852 95.164C40.3821 93.3954 39.2186 90.7889 39.0944 87.3448H45.4243C45.4863 88.8652 45.9983 90.0908 46.9602 91.0217C47.9531 91.9215 49.3029 92.3714 51.0095 92.3714C52.5919 92.3714 53.802 91.937 54.6398 91.0682C55.5086 90.1684 55.943 89.0203 55.943 87.624C55.943 85.7623 55.3535 84.4281 54.1744 83.6213C52.9953 82.8146 51.1646 82.4112 48.6823 82.4112H47.3326V77.0587H48.6823C53.0884 77.0587 55.2914 75.5849 55.2914 72.6372C55.2914 71.3029 54.888 70.2635 54.0813 69.5188C53.3056 68.7741 52.173 68.4017 50.6837 68.4017C49.2253 68.4017 48.0928 68.8051 47.286 69.6119C46.5103 70.3876 46.0604 71.3805 45.9363 72.5906H39.5599ZM82.5486 97.5842L77.2426 89.5788L72.5418 97.5842H65.5603L73.9846 84.6453L65.4673 71.7994H72.8211L78.0804 79.7582L82.8278 71.7994H89.8093L81.3384 84.6453L89.9024 97.5842H82.5486Z" fill="white"/>
<rect width="2" height="153.52" transform="translate(336 25.5842)" fill="white"/>
<path d="M376.522 118.844L372.661 112.135H370.561V118.844H367.81V102.072H373.602C374.889 102.072 375.975 102.297 376.86 102.747C377.761 103.198 378.429 103.801 378.863 104.557C379.314 105.313 379.539 106.158 379.539 107.091C379.539 108.185 379.217 109.183 378.574 110.084C377.946 110.969 376.973 111.572 375.653 111.894L379.804 118.844H376.522ZM370.561 109.939H373.602C374.632 109.939 375.404 109.682 375.919 109.167C376.45 108.652 376.715 107.96 376.715 107.091C376.715 106.222 376.458 105.547 375.943 105.064C375.428 104.565 374.648 104.316 373.602 104.316H370.561V109.939ZM395.366 111.87C395.366 112.368 395.334 112.819 395.27 113.221H385.11C385.19 114.283 385.584 115.136 386.292 115.779C387 116.423 387.869 116.745 388.899 116.745C390.379 116.745 391.425 116.125 392.036 114.886H395.004C394.602 116.109 393.87 117.115 392.808 117.903C391.763 118.675 390.459 119.061 388.899 119.061C387.628 119.061 386.485 118.78 385.472 118.217C384.474 117.638 383.686 116.833 383.107 115.803C382.544 114.758 382.262 113.551 382.262 112.183C382.262 110.816 382.535 109.617 383.083 108.588C383.646 107.542 384.426 106.737 385.423 106.174C386.437 105.611 387.595 105.33 388.899 105.33C390.154 105.33 391.272 105.603 392.253 106.15C393.235 106.697 393.999 107.469 394.546 108.467C395.093 109.448 395.366 110.583 395.366 111.87ZM392.495 111.001C392.478 109.987 392.116 109.175 391.409 108.563C390.701 107.952 389.824 107.646 388.778 107.646C387.829 107.646 387.016 107.952 386.341 108.563C385.665 109.159 385.263 109.971 385.134 111.001H392.495ZM397.277 112.135C397.277 110.8 397.551 109.617 398.098 108.588C398.661 107.558 399.417 106.761 400.367 106.198C401.332 105.619 402.402 105.33 403.576 105.33C404.445 105.33 405.298 105.523 406.134 105.909C406.987 106.279 407.663 106.778 408.162 107.405V100.985H410.937V118.844H408.162V116.841C407.711 117.485 407.084 118.016 406.279 118.434C405.491 118.852 404.582 119.061 403.552 119.061C402.394 119.061 401.332 118.772 400.367 118.193C399.417 117.597 398.661 116.777 398.098 115.731C397.551 114.669 397.277 113.471 397.277 112.135ZM408.162 112.183C408.162 111.266 407.969 110.47 407.582 109.794C407.212 109.118 406.722 108.604 406.11 108.25C405.499 107.896 404.839 107.719 404.131 107.719C403.423 107.719 402.764 107.896 402.152 108.25C401.541 108.588 401.042 109.094 400.656 109.77C400.286 110.43 400.101 111.218 400.101 112.135C400.101 113.052 400.286 113.857 400.656 114.548C401.042 115.24 401.541 115.771 402.152 116.141C402.78 116.495 403.44 116.672 404.131 116.672C404.839 116.672 405.499 116.495 406.11 116.141C406.722 115.787 407.212 115.272 407.582 114.597C407.969 113.905 408.162 113.1 408.162 112.183ZM426.714 105.547V118.844H423.963V117.276C423.528 117.823 422.957 118.257 422.249 118.579C421.557 118.884 420.817 119.037 420.029 119.037C418.983 119.037 418.042 118.82 417.205 118.386C416.385 117.951 415.733 117.308 415.25 116.455C414.784 115.602 414.551 114.573 414.551 113.366V105.547H417.278V112.956C417.278 114.146 417.575 115.063 418.171 115.707C418.766 116.334 419.578 116.648 420.608 116.648C421.638 116.648 422.45 116.334 423.046 115.707C423.657 115.063 423.963 114.146 423.963 112.956V105.547H426.714ZM429.547 112.183C429.547 110.816 429.821 109.617 430.368 108.588C430.931 107.542 431.703 106.737 432.685 106.174C433.666 105.611 434.792 105.33 436.063 105.33C437.672 105.33 439 105.716 440.046 106.488C441.107 107.244 441.823 108.33 442.193 109.746H439.225C438.984 109.086 438.598 108.571 438.067 108.201C437.536 107.831 436.868 107.646 436.063 107.646C434.937 107.646 434.036 108.049 433.361 108.853C432.701 109.641 432.371 110.751 432.371 112.183C432.371 113.615 432.701 114.734 433.361 115.538C434.036 116.342 434.937 116.745 436.063 116.745C437.656 116.745 438.71 116.045 439.225 114.645H442.193C441.807 115.996 441.083 117.074 440.021 117.879C438.96 118.667 437.64 119.061 436.063 119.061C434.792 119.061 433.666 118.78 432.685 118.217C431.703 117.638 430.931 116.833 430.368 115.803C429.821 114.758 429.547 113.551 429.547 112.183ZM448.266 107.791V115.152C448.266 115.651 448.378 116.013 448.603 116.238C448.845 116.447 449.247 116.552 449.81 116.552H451.499V118.844H449.327C448.089 118.844 447.139 118.555 446.48 117.975C445.82 117.396 445.49 116.455 445.49 115.152V107.791H443.922V105.547H445.49V102.24H448.266V105.547H451.499V107.791H448.266ZM455.556 103.785C455.057 103.785 454.639 103.616 454.301 103.278C453.963 102.94 453.794 102.522 453.794 102.023C453.794 101.524 453.963 101.106 454.301 100.768C454.639 100.43 455.057 100.261 455.556 100.261C456.038 100.261 456.449 100.43 456.786 100.768C457.124 101.106 457.293 101.524 457.293 102.023C457.293 102.522 457.124 102.94 456.786 103.278C456.449 103.616 456.038 103.785 455.556 103.785ZM456.907 105.547V118.844H454.156V105.547H456.907ZM466.408 119.061C465.153 119.061 464.018 118.78 463.005 118.217C461.991 117.638 461.195 116.833 460.616 115.803C460.036 114.758 459.747 113.551 459.747 112.183C459.747 110.832 460.045 109.633 460.64 108.588C461.235 107.542 462.048 106.737 463.077 106.174C464.107 105.611 465.257 105.33 466.528 105.33C467.799 105.33 468.95 105.611 469.979 106.174C471.009 106.737 471.822 107.542 472.417 108.588C473.012 109.633 473.31 110.832 473.31 112.183C473.31 113.535 473.004 114.734 472.393 115.779C471.781 116.825 470.945 117.638 469.883 118.217C468.837 118.78 467.679 119.061 466.408 119.061ZM466.408 116.672C467.116 116.672 467.775 116.503 468.387 116.165C469.014 115.828 469.521 115.321 469.907 114.645C470.293 113.969 470.486 113.149 470.486 112.183C470.486 111.218 470.301 110.406 469.931 109.746C469.561 109.07 469.07 108.563 468.459 108.226C467.848 107.888 467.188 107.719 466.48 107.719C465.772 107.719 465.113 107.888 464.501 108.226C463.906 108.563 463.431 109.07 463.077 109.746C462.723 110.406 462.546 111.218 462.546 112.183C462.546 113.615 462.908 114.725 463.632 115.514C464.372 116.286 465.298 116.672 466.408 116.672ZM482.859 105.33C483.905 105.33 484.838 105.547 485.659 105.981C486.495 106.416 487.147 107.059 487.614 107.912C488.08 108.765 488.314 109.794 488.314 111.001V118.844H485.586V111.411C485.586 110.221 485.289 109.312 484.693 108.684C484.098 108.041 483.286 107.719 482.256 107.719C481.226 107.719 480.406 108.041 479.794 108.684C479.199 109.312 478.901 110.221 478.901 111.411V118.844H476.15V105.547H478.901V107.067C479.352 106.52 479.923 106.094 480.615 105.788C481.323 105.482 482.071 105.33 482.859 105.33ZM499.733 103.785C499.234 103.785 498.816 103.616 498.478 103.278C498.14 102.94 497.971 102.522 497.971 102.023C497.971 101.524 498.14 101.106 498.478 100.768C498.816 100.43 499.234 100.261 499.733 100.261C500.216 100.261 500.626 100.43 500.964 100.768C501.302 101.106 501.471 101.524 501.471 102.023C501.471 102.522 501.302 102.94 500.964 103.278C500.626 103.616 500.216 103.785 499.733 103.785ZM501.084 105.547V118.844H498.333V105.547H501.084ZM511.526 105.33C512.572 105.33 513.505 105.547 514.326 105.981C515.162 106.416 515.814 107.059 516.281 107.912C516.747 108.765 516.98 109.794 516.98 111.001V118.844H514.253V111.411C514.253 110.221 513.956 109.312 513.36 108.684C512.765 108.041 511.953 107.719 510.923 107.719C509.893 107.719 509.073 108.041 508.461 108.684C507.866 109.312 507.568 110.221 507.568 111.411V118.844H504.817V105.547H507.568V107.067C508.019 106.52 508.59 106.094 509.282 105.788C509.99 105.482 510.738 105.33 511.526 105.33ZM543.097 105.33C544.143 105.33 545.076 105.547 545.897 105.981C546.733 106.416 547.385 107.059 547.851 107.912C548.334 108.765 548.575 109.794 548.575 111.001V118.844H545.848V111.411C545.848 110.221 545.551 109.312 544.955 108.684C544.36 108.041 543.548 107.719 542.518 107.719C541.488 107.719 540.668 108.041 540.056 108.684C539.461 109.312 539.163 110.221 539.163 111.411V118.844H536.436V111.411C536.436 110.221 536.139 109.312 535.543 108.684C534.948 108.041 534.136 107.719 533.106 107.719C532.076 107.719 531.256 108.041 530.644 108.684C530.049 109.312 529.751 110.221 529.751 111.411V118.844H527V105.547H529.751V107.067C530.202 106.52 530.773 106.094 531.465 105.788C532.157 105.482 532.897 105.33 533.685 105.33C534.747 105.33 535.696 105.555 536.533 106.005C537.369 106.456 538.013 107.107 538.464 107.96C538.866 107.156 539.493 106.52 540.346 106.054C541.199 105.571 542.116 105.33 543.097 105.33ZM551.28 112.135C551.28 110.8 551.553 109.617 552.1 108.588C552.664 107.558 553.42 106.761 554.369 106.198C555.334 105.619 556.396 105.33 557.555 105.33C558.6 105.33 559.509 105.539 560.282 105.957C561.07 106.359 561.697 106.866 562.164 107.477V105.547H564.939V118.844H562.164V116.865C561.697 117.493 561.062 118.016 560.258 118.434C559.453 118.852 558.536 119.061 557.506 119.061C556.364 119.061 555.318 118.772 554.369 118.193C553.42 117.597 552.664 116.777 552.1 115.731C551.553 114.669 551.28 113.471 551.28 112.135ZM562.164 112.183C562.164 111.266 561.971 110.47 561.585 109.794C561.215 109.118 560.724 108.604 560.113 108.25C559.501 107.896 558.842 107.719 558.134 107.719C557.426 107.719 556.766 107.896 556.155 108.25C555.543 108.588 555.045 109.094 554.659 109.77C554.289 110.43 554.103 111.218 554.103 112.135C554.103 113.052 554.289 113.857 554.659 114.548C555.045 115.24 555.543 115.771 556.155 116.141C556.782 116.495 557.442 116.672 558.134 116.672C558.842 116.672 559.501 116.495 560.113 116.141C560.724 115.787 561.215 115.272 561.585 114.597C561.971 113.905 562.164 113.1 562.164 112.183ZM575.383 105.33C576.429 105.33 577.362 105.547 578.182 105.981C579.019 106.416 579.67 107.059 580.137 107.912C580.604 108.765 580.837 109.794 580.837 111.001V118.844H578.11V111.411C578.11 110.221 577.812 109.312 577.217 108.684C576.622 108.041 575.809 107.719 574.779 107.719C573.75 107.719 572.929 108.041 572.318 108.684C571.723 109.312 571.425 110.221 571.425 111.411V118.844H568.674V105.547H571.425V107.067C571.875 106.52 572.447 106.094 573.138 105.788C573.846 105.482 574.594 105.33 575.383 105.33ZM596.51 105.547V118.844H593.758V117.276C593.324 117.823 592.753 118.257 592.045 118.579C591.353 118.884 590.613 119.037 589.825 119.037C588.779 119.037 587.838 118.82 587.001 118.386C586.18 117.951 585.529 117.308 585.046 116.455C584.58 115.602 584.346 114.573 584.346 113.366V105.547H587.073V112.956C587.073 114.146 587.371 115.063 587.966 115.707C588.562 116.334 589.374 116.648 590.404 116.648C591.433 116.648 592.246 116.334 592.841 115.707C593.453 115.063 593.758 114.146 593.758 112.956V105.547H596.51ZM599.343 112.135C599.343 110.8 599.617 109.617 600.164 108.588C600.727 107.558 601.483 106.761 602.432 106.198C603.398 105.619 604.459 105.33 605.618 105.33C606.664 105.33 607.573 105.539 608.345 105.957C609.133 106.359 609.761 106.866 610.227 107.477V105.547H613.003V118.844H610.227V116.865C609.761 117.493 609.125 118.016 608.321 118.434C607.516 118.852 606.599 119.061 605.57 119.061C604.427 119.061 603.381 118.772 602.432 118.193C601.483 117.597 600.727 116.777 600.164 115.731C599.617 114.669 599.343 113.471 599.343 112.135ZM610.227 112.183C610.227 111.266 610.034 110.47 609.648 109.794C609.278 109.118 608.787 108.604 608.176 108.25C607.565 107.896 606.905 107.719 606.197 107.719C605.489 107.719 604.829 107.896 604.218 108.25C603.607 108.588 603.108 109.094 602.722 109.77C602.352 110.43 602.167 111.218 602.167 112.135C602.167 113.052 602.352 113.857 602.722 114.548C603.108 115.24 603.607 115.771 604.218 116.141C604.846 116.495 605.505 116.672 606.197 116.672C606.905 116.672 607.565 116.495 608.176 116.141C608.787 115.787 609.278 115.272 609.648 114.597C610.034 113.905 610.227 113.1 610.227 112.183ZM619.488 100.985V118.844H616.737V100.985H619.488ZM366.893 143.135C366.893 141.8 367.166 140.617 367.713 139.588C368.277 138.558 369.033 137.761 369.982 137.198C370.947 136.619 372.009 136.33 373.168 136.33C374.213 136.33 375.122 136.539 375.895 136.957C376.683 137.359 377.311 137.866 377.777 138.477V136.547H380.552V149.844H377.777V147.865C377.311 148.493 376.675 149.016 375.871 149.434C375.066 149.852 374.149 150.061 373.119 150.061C371.977 150.061 370.931 149.772 369.982 149.193C369.033 148.597 368.277 147.777 367.713 146.731C367.166 145.669 366.893 144.471 366.893 143.135ZM377.777 143.183C377.777 142.266 377.584 141.47 377.198 140.794C376.828 140.118 376.337 139.604 375.726 139.25C375.114 138.896 374.455 138.719 373.747 138.719C373.039 138.719 372.379 138.896 371.768 139.25C371.157 139.588 370.658 140.094 370.272 140.77C369.902 141.43 369.717 142.218 369.717 143.135C369.717 144.052 369.902 144.857 370.272 145.548C370.658 146.24 371.157 146.771 371.768 147.141C372.395 147.495 373.055 147.672 373.747 147.672C374.455 147.672 375.114 147.495 375.726 147.141C376.337 146.787 376.828 146.272 377.198 145.597C377.584 144.905 377.777 144.1 377.777 143.183ZM383.37 143.135C383.37 141.8 383.643 140.617 384.19 139.588C384.753 138.558 385.509 137.761 386.459 137.198C387.424 136.619 388.494 136.33 389.668 136.33C390.537 136.33 391.39 136.523 392.227 136.909C393.079 137.279 393.755 137.778 394.254 138.405V131.985H397.029V149.844H394.254V147.841C393.803 148.485 393.176 149.016 392.371 149.434C391.583 149.852 390.674 150.061 389.644 150.061C388.486 150.061 387.424 149.772 386.459 149.193C385.509 148.597 384.753 147.777 384.19 146.731C383.643 145.669 383.37 144.471 383.37 143.135ZM394.254 143.183C394.254 142.266 394.061 141.47 393.675 140.794C393.305 140.118 392.814 139.604 392.202 139.25C391.591 138.896 390.931 138.719 390.224 138.719C389.516 138.719 388.856 138.896 388.245 139.25C387.633 139.588 387.134 140.094 386.748 140.77C386.378 141.43 386.193 142.218 386.193 143.135C386.193 144.052 386.378 144.857 386.748 145.548C387.134 146.24 387.633 146.771 388.245 147.141C388.872 147.495 389.532 147.672 390.224 147.672C390.931 147.672 391.591 147.495 392.202 147.141C392.814 146.787 393.305 146.272 393.675 145.597C394.061 144.905 394.254 144.1 394.254 143.183ZM416.86 136.33C417.906 136.33 418.839 136.547 419.66 136.981C420.497 137.416 421.148 138.059 421.615 138.912C422.097 139.765 422.339 140.794 422.339 142.001V149.844H419.612V142.411C419.612 141.221 419.314 140.312 418.719 139.684C418.123 139.041 417.311 138.719 416.281 138.719C415.252 138.719 414.431 139.041 413.82 139.684C413.224 140.312 412.927 141.221 412.927 142.411V149.844H410.2V142.411C410.2 141.221 409.902 140.312 409.307 139.684C408.711 139.041 407.899 138.719 406.869 138.719C405.84 138.719 405.019 139.041 404.408 139.684C403.812 140.312 403.515 141.221 403.515 142.411V149.844H400.763V136.547H403.515V138.067C403.965 137.52 404.536 137.094 405.228 136.788C405.92 136.482 406.66 136.33 407.448 136.33C408.51 136.33 409.46 136.555 410.296 137.005C411.133 137.456 411.776 138.107 412.227 138.96C412.629 138.156 413.257 137.52 414.109 137.054C414.962 136.571 415.879 136.33 416.86 136.33ZM427.36 134.785C426.861 134.785 426.443 134.616 426.105 134.278C425.767 133.94 425.598 133.522 425.598 133.023C425.598 132.524 425.767 132.106 426.105 131.768C426.443 131.43 426.861 131.261 427.36 131.261C427.843 131.261 428.253 131.43 428.591 131.768C428.929 132.106 429.098 132.524 429.098 133.023C429.098 133.522 428.929 133.94 428.591 134.278C428.253 134.616 427.843 134.785 427.36 134.785ZM428.711 136.547V149.844H425.96V136.547H428.711ZM439.153 136.33C440.199 136.33 441.132 136.547 441.953 136.981C442.789 137.416 443.441 138.059 443.908 138.912C444.374 139.765 444.607 140.794 444.607 142.001V149.844H441.88V142.411C441.88 141.221 441.583 140.312 440.987 139.684C440.392 139.041 439.58 138.719 438.55 138.719C437.52 138.719 436.7 139.041 436.088 139.684C435.493 140.312 435.195 141.221 435.195 142.411V149.844H432.444V136.547H435.195V138.067C435.646 137.52 436.217 137.094 436.909 136.788C437.617 136.482 438.365 136.33 439.153 136.33ZM449.637 134.785C449.138 134.785 448.72 134.616 448.382 134.278C448.044 133.94 447.875 133.522 447.875 133.023C447.875 132.524 448.044 132.106 448.382 131.768C448.72 131.43 449.138 131.261 449.637 131.261C450.12 131.261 450.53 131.43 450.868 131.768C451.206 132.106 451.375 132.524 451.375 133.023C451.375 133.522 451.206 133.94 450.868 134.278C450.53 134.616 450.12 134.785 449.637 134.785ZM450.989 136.547V149.844H448.237V136.547H450.989ZM459.548 150.061C458.502 150.061 457.561 149.876 456.725 149.506C455.904 149.12 455.252 148.605 454.77 147.962C454.287 147.302 454.03 146.57 453.997 145.766H456.845C456.893 146.329 457.159 146.803 457.642 147.19C458.14 147.56 458.76 147.745 459.5 147.745C460.272 147.745 460.867 147.6 461.286 147.31C461.72 147.005 461.937 146.618 461.937 146.152C461.937 145.653 461.696 145.283 461.213 145.042C460.747 144.8 459.999 144.535 458.969 144.245C457.971 143.972 457.159 143.706 456.531 143.449C455.904 143.191 455.357 142.797 454.89 142.266C454.44 141.735 454.215 141.036 454.215 140.167C454.215 139.459 454.424 138.815 454.842 138.236C455.26 137.641 455.856 137.174 456.628 136.836C457.416 136.498 458.317 136.33 459.331 136.33C460.843 136.33 462.058 136.716 462.975 137.488C463.908 138.244 464.407 139.282 464.471 140.601H461.72C461.672 140.006 461.431 139.531 460.996 139.177C460.562 138.823 459.975 138.646 459.234 138.646C458.51 138.646 457.955 138.783 457.569 139.057C457.183 139.33 456.99 139.692 456.99 140.143C456.99 140.497 457.119 140.794 457.376 141.036C457.634 141.277 457.947 141.47 458.317 141.615C458.687 141.743 459.234 141.912 459.958 142.122C460.924 142.379 461.712 142.644 462.323 142.918C462.951 143.175 463.49 143.562 463.94 144.076C464.391 144.591 464.624 145.275 464.64 146.128C464.64 146.884 464.431 147.56 464.013 148.155C463.595 148.75 462.999 149.217 462.227 149.555C461.471 149.893 460.578 150.061 459.548 150.061ZM470.943 138.791V146.152C470.943 146.651 471.056 147.013 471.281 147.238C471.523 147.447 471.925 147.552 472.488 147.552H474.177V149.844H472.005C470.766 149.844 469.817 149.555 469.158 148.975C468.498 148.396 468.168 147.455 468.168 146.152V138.791H466.599V136.547H468.168V133.24H470.943V136.547H474.177V138.791H470.943ZM479.585 138.477C479.987 137.802 480.518 137.279 481.178 136.909C481.853 136.523 482.65 136.33 483.567 136.33V139.177H482.867C481.789 139.177 480.969 139.451 480.405 139.998C479.858 140.545 479.585 141.494 479.585 142.846V149.844H476.834V136.547H479.585V138.477ZM485.299 143.135C485.299 141.8 485.573 140.617 486.12 139.588C486.683 138.558 487.439 137.761 488.389 137.198C489.354 136.619 490.416 136.33 491.574 136.33C492.62 136.33 493.529 136.539 494.301 136.957C495.09 137.359 495.717 137.866 496.184 138.477V136.547H498.959V149.844H496.184V147.865C495.717 148.493 495.082 149.016 494.277 149.434C493.473 149.852 492.556 150.061 491.526 150.061C490.384 150.061 489.338 149.772 488.389 149.193C487.439 148.597 486.683 147.777 486.12 146.731C485.573 145.669 485.299 144.471 485.299 143.135ZM496.184 143.183C496.184 142.266 495.991 141.47 495.604 140.794C495.234 140.118 494.744 139.604 494.132 139.25C493.521 138.896 492.861 138.719 492.153 138.719C491.445 138.719 490.786 138.896 490.174 139.25C489.563 139.588 489.064 140.094 488.678 140.77C488.308 141.43 488.123 142.218 488.123 143.135C488.123 144.052 488.308 144.857 488.678 145.548C489.064 146.24 489.563 146.771 490.174 147.141C490.802 147.495 491.462 147.672 492.153 147.672C492.861 147.672 493.521 147.495 494.132 147.141C494.744 146.787 495.234 146.272 495.604 145.597C495.991 144.905 496.184 144.1 496.184 143.183ZM505.903 138.791V146.152C505.903 146.651 506.016 147.013 506.241 147.238C506.482 147.447 506.884 147.552 507.448 147.552H509.137V149.844H506.965C505.726 149.844 504.777 149.555 504.117 148.975C503.457 148.396 503.128 147.455 503.128 146.152V138.791H501.559V136.547H503.128V133.24H505.903V136.547H509.137V138.791H505.903ZM513.193 134.785C512.694 134.785 512.276 134.616 511.938 134.278C511.6 133.94 511.431 133.522 511.431 133.023C511.431 132.524 511.6 132.106 511.938 131.768C512.276 131.43 512.694 131.261 513.193 131.261C513.676 131.261 514.086 131.43 514.424 131.768C514.762 132.106 514.931 132.524 514.931 133.023C514.931 133.522 514.762 133.94 514.424 134.278C514.086 134.616 513.676 134.785 513.193 134.785ZM514.544 136.547V149.844H511.793V136.547H514.544ZM524.045 150.061C522.79 150.061 521.656 149.78 520.642 149.217C519.629 148.638 518.832 147.833 518.253 146.803C517.674 145.758 517.384 144.551 517.384 143.183C517.384 141.832 517.682 140.633 518.277 139.588C518.873 138.542 519.685 137.737 520.715 137.174C521.744 136.611 522.895 136.33 524.166 136.33C525.437 136.33 526.587 136.611 527.617 137.174C528.647 137.737 529.459 138.542 530.054 139.588C530.65 140.633 530.947 141.832 530.947 143.183C530.947 144.535 530.642 145.734 530.03 146.779C529.419 147.825 528.582 148.638 527.52 149.217C526.475 149.78 525.316 150.061 524.045 150.061ZM524.045 147.672C524.753 147.672 525.413 147.503 526.024 147.165C526.652 146.828 527.158 146.321 527.544 145.645C527.931 144.969 528.124 144.149 528.124 143.183C528.124 142.218 527.939 141.406 527.569 140.746C527.199 140.07 526.708 139.563 526.096 139.226C525.485 138.888 524.825 138.719 524.118 138.719C523.41 138.719 522.75 138.888 522.139 139.226C521.543 139.563 521.069 140.07 520.715 140.746C520.361 141.406 520.184 142.218 520.184 143.183C520.184 144.615 520.546 145.725 521.27 146.514C522.01 147.286 522.935 147.672 524.045 147.672ZM540.497 136.33C541.543 136.33 542.476 136.547 543.296 136.981C544.133 137.416 544.784 138.059 545.251 138.912C545.718 139.765 545.951 140.794 545.951 142.001V149.844H543.224V142.411C543.224 141.221 542.926 140.312 542.331 139.684C541.736 139.041 540.923 138.719 539.893 138.719C538.864 138.719 538.043 139.041 537.432 139.684C536.837 140.312 536.539 141.221 536.539 142.411V149.844H533.788V136.547H536.539V138.067C536.989 137.52 537.561 137.094 538.252 136.788C538.96 136.482 539.708 136.33 540.497 136.33ZM559.18 138.791V146.152C559.18 146.651 559.293 147.013 559.518 147.238C559.76 147.447 560.162 147.552 560.725 147.552H562.414V149.844H560.242C559.003 149.844 558.054 149.555 557.395 148.975C556.735 148.396 556.405 147.455 556.405 146.152V138.791H554.836V136.547H556.405V133.24H559.18V136.547H562.414V138.791H559.18ZM566.47 134.785C565.972 134.785 565.553 134.616 565.215 134.278C564.878 133.94 564.709 133.522 564.709 133.023C564.709 132.524 564.878 132.106 565.215 131.768C565.553 131.43 565.972 131.261 566.47 131.261C566.953 131.261 567.363 131.43 567.701 131.768C568.039 132.106 568.208 132.524 568.208 133.023C568.208 133.522 568.039 133.94 567.701 134.278C567.363 134.616 566.953 134.785 566.47 134.785ZM567.822 136.547V149.844H565.071V136.547H567.822ZM587.652 136.33C588.697 136.33 589.631 136.547 590.451 136.981C591.288 137.416 591.939 138.059 592.406 138.912C592.889 139.765 593.13 140.794 593.13 142.001V149.844H590.403V142.411C590.403 141.221 590.105 140.312 589.51 139.684C588.915 139.041 588.102 138.719 587.072 138.719C586.043 138.719 585.222 139.041 584.611 139.684C584.016 140.312 583.718 141.221 583.718 142.411V149.844H580.991V142.411C580.991 141.221 580.693 140.312 580.098 139.684C579.503 139.041 578.69 138.719 577.66 138.719C576.631 138.719 575.81 139.041 575.199 139.684C574.603 140.312 574.306 141.221 574.306 142.411V149.844H571.555V136.547H574.306V138.067C574.756 137.52 575.327 137.094 576.019 136.788C576.711 136.482 577.451 136.33 578.24 136.33C579.301 136.33 580.251 136.555 581.087 137.005C581.924 137.456 582.567 138.107 583.018 138.96C583.42 138.156 584.048 137.52 584.9 137.054C585.753 136.571 586.67 136.33 587.652 136.33ZM608.939 142.87C608.939 143.368 608.907 143.819 608.842 144.221H598.682C598.763 145.283 599.157 146.136 599.865 146.779C600.573 147.423 601.441 147.745 602.471 147.745C603.951 147.745 604.997 147.125 605.608 145.886H608.577C608.175 147.109 607.443 148.115 606.381 148.903C605.335 149.675 604.032 150.061 602.471 150.061C601.2 150.061 600.058 149.78 599.044 149.217C598.047 148.638 597.258 147.833 596.679 146.803C596.116 145.758 595.834 144.551 595.834 143.183C595.834 141.816 596.108 140.617 596.655 139.588C597.218 138.542 597.998 137.737 598.996 137.174C600.009 136.611 601.168 136.33 602.471 136.33C603.726 136.33 604.844 136.603 605.826 137.15C606.807 137.697 607.571 138.469 608.118 139.467C608.665 140.448 608.939 141.583 608.939 142.87ZM606.067 142.001C606.051 140.987 605.689 140.175 604.981 139.563C604.273 138.952 603.396 138.646 602.35 138.646C601.401 138.646 600.589 138.952 599.913 139.563C599.237 140.159 598.835 140.971 598.706 142.001H606.067Z" fill="white"/>
<path d="M367.188 75.2351V70.1154L382.407 48.3332H389.994V69.5569H394.089V75.2351H389.994V81.8442H383.478V75.2351H367.188ZM383.896 55.3147L374.355 69.5569H383.896V55.3147ZM398.471 64.4371C398.471 59.0692 399.433 54.8648 401.356 51.824C403.311 48.7832 406.538 47.2628 411.037 47.2628C415.536 47.2628 418.748 48.7832 420.672 51.824C422.626 54.8648 423.604 59.0692 423.604 64.4371C423.604 69.8361 422.626 74.0715 420.672 77.1434C418.748 80.2152 415.536 81.7512 411.037 81.7512C406.538 81.7512 403.311 80.2152 401.356 77.1434C399.433 74.0715 398.471 69.8361 398.471 64.4371ZM417.181 64.4371C417.181 62.141 417.026 60.2172 416.716 58.6658C416.436 57.0833 415.847 55.7956 414.947 54.8027C414.078 53.8098 412.775 53.3134 411.037 53.3134C409.3 53.3134 407.981 53.8098 407.081 54.8027C406.212 55.7956 405.623 57.0833 405.312 58.6658C405.033 60.2172 404.894 62.141 404.894 64.4371C404.894 66.7953 405.033 68.7812 405.312 70.3946C405.592 71.9771 406.181 73.2648 407.081 74.2577C407.981 75.2196 409.3 75.7006 411.037 75.7006C412.775 75.7006 414.094 75.2196 414.993 74.2577C415.893 73.2648 416.483 71.9771 416.762 70.3946C417.041 68.7812 417.181 66.7953 417.181 64.4371ZM428.048 56.2456C428.048 53.8874 428.731 52.0412 430.096 50.7069C431.492 49.3727 433.276 48.7056 435.448 48.7056C437.62 48.7056 439.389 49.3727 440.754 50.7069C442.151 52.0412 442.849 53.8874 442.849 56.2456C442.849 58.6348 442.151 60.4965 440.754 61.8307C439.389 63.165 437.62 63.8321 435.448 63.8321C433.276 63.8321 431.492 63.165 430.096 61.8307C428.731 60.4965 428.048 58.6348 428.048 56.2456ZM457.929 49.2641L439.637 81.8442H433.307L451.552 49.2641H457.929ZM435.402 52.6152C433.695 52.6152 432.842 53.8253 432.842 56.2456C432.842 58.6968 433.695 59.9225 435.402 59.9225C436.24 59.9225 436.891 59.6277 437.357 59.0381C437.822 58.4176 438.055 57.4867 438.055 56.2456C438.055 53.8253 437.17 52.6152 435.402 52.6152ZM448.48 74.8162C448.48 72.427 449.163 70.5808 450.528 69.2776C451.925 67.9434 453.709 67.2763 455.881 67.2763C458.053 67.2763 459.806 67.9434 461.14 69.2776C462.505 70.5808 463.188 72.427 463.188 74.8162C463.188 77.2054 462.505 79.0672 461.14 80.4014C459.806 81.7356 458.053 82.4028 455.881 82.4028C453.678 82.4028 451.894 81.7356 450.528 80.4014C449.163 79.0672 448.48 77.2054 448.48 74.8162ZM455.834 71.1859C454.066 71.1859 453.181 72.396 453.181 74.8162C453.181 77.2675 454.066 78.4931 455.834 78.4931C457.572 78.4931 458.441 77.2675 458.441 74.8162C458.441 72.396 457.572 71.1859 455.834 71.1859Z" fill="white"/>
<rect width="2" height="153.52" transform="translate(716 25.5842)" fill="white"/>
<path d="M753.337 116.013C752.21 116.013 751.197 115.82 750.296 115.434C749.395 115.032 748.687 114.469 748.172 113.745C747.657 113.021 747.4 112.176 747.4 111.211H750.344C750.408 111.935 750.69 112.53 751.189 112.996C751.704 113.463 752.419 113.696 753.337 113.696C754.286 113.696 755.026 113.471 755.557 113.021C756.088 112.554 756.353 111.959 756.353 111.235C756.353 110.672 756.184 110.213 755.846 109.859C755.525 109.505 755.114 109.232 754.616 109.039C754.133 108.846 753.457 108.636 752.588 108.411C751.494 108.122 750.601 107.832 749.91 107.542C749.234 107.237 748.655 106.77 748.172 106.143C747.689 105.515 747.448 104.679 747.448 103.633C747.448 102.667 747.689 101.823 748.172 101.099C748.655 100.375 749.33 99.8196 750.199 99.4335C751.068 99.0474 752.074 98.8543 753.216 98.8543C754.841 98.8543 756.168 99.2646 757.198 100.085C758.244 100.89 758.823 102 758.936 103.416H755.895C755.846 102.804 755.557 102.281 755.026 101.847C754.495 101.412 753.795 101.195 752.926 101.195C752.138 101.195 751.494 101.396 750.996 101.799C750.497 102.201 750.247 102.78 750.247 103.536C750.247 104.051 750.4 104.477 750.706 104.815C751.028 105.137 751.43 105.394 751.913 105.588C752.395 105.781 753.055 105.99 753.892 106.215C755.002 106.521 755.903 106.826 756.595 107.132C757.302 107.438 757.898 107.912 758.38 108.556C758.879 109.183 759.129 110.028 759.129 111.09C759.129 111.943 758.895 112.747 758.429 113.503C757.978 114.259 757.311 114.871 756.426 115.337C755.557 115.788 754.527 116.013 753.337 116.013ZM768.263 116.061C767.009 116.061 765.874 115.78 764.861 115.217C763.847 114.638 763.051 113.833 762.471 112.803C761.892 111.758 761.603 110.551 761.603 109.183C761.603 107.832 761.9 106.633 762.496 105.588C763.091 104.542 763.903 103.737 764.933 103.174C765.963 102.611 767.113 102.33 768.384 102.33C769.655 102.33 770.806 102.611 771.835 103.174C772.865 103.737 773.677 104.542 774.273 105.588C774.868 106.633 775.166 107.832 775.166 109.183C775.166 110.535 774.86 111.734 774.249 112.779C773.637 113.825 772.801 114.638 771.739 115.217C770.693 115.78 769.534 116.061 768.263 116.061ZM768.263 113.672C768.971 113.672 769.631 113.503 770.242 113.165C770.87 112.828 771.377 112.321 771.763 111.645C772.149 110.969 772.342 110.149 772.342 109.183C772.342 108.218 772.157 107.406 771.787 106.746C771.417 106.07 770.926 105.563 770.315 105.226C769.703 104.888 769.044 104.719 768.336 104.719C767.628 104.719 766.968 104.888 766.357 105.226C765.762 105.563 765.287 106.07 764.933 106.746C764.579 107.406 764.402 108.218 764.402 109.183C764.402 110.615 764.764 111.725 765.488 112.514C766.228 113.286 767.153 113.672 768.263 113.672ZM783.581 104.791H781.119V115.844H778.344V104.791H776.775V102.547H778.344V101.606C778.344 100.077 778.746 98.9669 779.551 98.2751C780.371 97.5672 781.65 97.2132 783.388 97.2132V99.5059C782.551 99.5059 781.964 99.6668 781.626 99.9886C781.288 100.294 781.119 100.833 781.119 101.606V102.547H783.581V104.791ZM789.349 104.791V112.152C789.349 112.651 789.462 113.013 789.687 113.238C789.929 113.447 790.331 113.552 790.894 113.552H792.583V115.844H790.411C789.173 115.844 788.223 115.555 787.564 114.975C786.904 114.396 786.574 113.455 786.574 112.152V104.791H785.005V102.547H786.574V99.2404H789.349V102.547H792.583V104.791H789.349ZM813.098 102.547L808.972 115.844H806.076L803.397 106.022L800.718 115.844H797.822L793.671 102.547H796.471L799.246 113.238L802.07 102.547H804.941L807.644 113.19L810.396 102.547H813.098ZM814.358 109.135C814.358 107.8 814.632 106.617 815.179 105.588C815.742 104.558 816.498 103.761 817.447 103.198C818.413 102.619 819.474 102.33 820.633 102.33C821.679 102.33 822.588 102.539 823.36 102.957C824.148 103.359 824.776 103.866 825.242 104.477V102.547H828.018V115.844H825.242V113.865C824.776 114.493 824.14 115.016 823.336 115.434C822.531 115.852 821.614 116.061 820.585 116.061C819.442 116.061 818.396 115.772 817.447 115.193C816.498 114.597 815.742 113.777 815.179 112.731C814.632 111.669 814.358 110.471 814.358 109.135ZM825.242 109.183C825.242 108.266 825.049 107.47 824.663 106.794C824.293 106.118 823.802 105.604 823.191 105.25C822.58 104.896 821.92 104.719 821.212 104.719C820.504 104.719 819.844 104.896 819.233 105.25C818.622 105.588 818.123 106.094 817.737 106.77C817.367 107.43 817.182 108.218 817.182 109.135C817.182 110.052 817.367 110.857 817.737 111.548C818.123 112.24 818.622 112.771 819.233 113.141C819.861 113.495 820.52 113.672 821.212 113.672C821.92 113.672 822.58 113.495 823.191 113.141C823.802 112.787 824.293 112.272 824.663 111.597C825.049 110.905 825.242 110.1 825.242 109.183ZM834.503 104.477C834.905 103.802 835.436 103.279 836.096 102.909C836.772 102.523 837.568 102.33 838.485 102.33V105.177H837.785C836.707 105.177 835.887 105.451 835.324 105.998C834.777 106.545 834.503 107.494 834.503 108.846V115.844H831.752V102.547H834.503V104.477ZM853.322 108.87C853.322 109.368 853.29 109.819 853.226 110.221H843.065C843.146 111.283 843.54 112.136 844.248 112.779C844.956 113.423 845.825 113.745 846.854 113.745C848.335 113.745 849.38 113.125 849.992 111.886H852.96C852.558 113.109 851.826 114.115 850.764 114.903C849.718 115.675 848.415 116.061 846.854 116.061C845.583 116.061 844.441 115.78 843.427 115.217C842.43 114.638 841.642 113.833 841.062 112.803C840.499 111.758 840.218 110.551 840.218 109.183C840.218 107.816 840.491 106.617 841.038 105.588C841.601 104.542 842.382 103.737 843.379 103.174C844.393 102.611 845.551 102.33 846.854 102.33C848.109 102.33 849.227 102.603 850.209 103.15C851.19 103.697 851.955 104.469 852.502 105.467C853.049 106.448 853.322 107.583 853.322 108.87ZM850.45 108.001C850.434 106.987 850.072 106.175 849.364 105.563C848.656 104.952 847.779 104.646 846.734 104.646C845.784 104.646 844.972 104.952 844.296 105.563C843.62 106.159 843.218 106.971 843.09 108.001H850.45ZM868.018 99.0715C869.804 99.0715 871.365 99.4174 872.7 100.109C874.052 100.785 875.089 101.766 875.813 103.054C876.553 104.325 876.923 105.813 876.923 107.518C876.923 109.224 876.553 110.704 875.813 111.959C875.089 113.214 874.052 114.179 872.7 114.855C871.365 115.514 869.804 115.844 868.018 115.844H862.54V99.0715H868.018ZM868.018 113.6C869.981 113.6 871.485 113.069 872.531 112.007C873.577 110.945 874.1 109.449 874.1 107.518C874.1 105.571 873.577 104.051 872.531 102.957C871.485 101.863 869.981 101.316 868.018 101.316H865.291V113.6H868.018ZM891.958 108.87C891.958 109.368 891.926 109.819 891.862 110.221H881.702C881.782 111.283 882.176 112.136 882.884 112.779C883.592 113.423 884.461 113.745 885.49 113.745C886.971 113.745 888.016 113.125 888.628 111.886H891.596C891.194 113.109 890.462 114.115 889.4 114.903C888.354 115.675 887.051 116.061 885.49 116.061C884.219 116.061 883.077 115.78 882.064 115.217C881.066 114.638 880.278 113.833 879.698 112.803C879.135 111.758 878.854 110.551 878.854 109.183C878.854 107.816 879.127 106.617 879.674 105.588C880.237 104.542 881.018 103.737 882.015 103.174C883.029 102.611 884.187 102.33 885.49 102.33C886.745 102.33 887.864 102.603 888.845 103.15C889.826 103.697 890.591 104.469 891.138 105.467C891.685 106.448 891.958 107.583 891.958 108.87ZM889.086 108.001C889.07 106.987 888.708 106.175 888 105.563C887.292 104.952 886.416 104.646 885.37 104.646C884.421 104.646 883.608 104.952 882.932 105.563C882.257 106.159 881.854 106.971 881.726 108.001H889.086ZM899.927 113.383L903.692 102.547H906.612L901.544 115.844H898.262L893.218 102.547H896.162L899.927 113.383ZM920.999 108.87C920.999 109.368 920.967 109.819 920.903 110.221H910.743C910.823 111.283 911.217 112.136 911.925 112.779C912.633 113.423 913.502 113.745 914.532 113.745C916.012 113.745 917.058 113.125 917.669 111.886H920.637C920.235 113.109 919.503 114.115 918.441 114.903C917.395 115.675 916.092 116.061 914.532 116.061C913.261 116.061 912.118 115.78 911.105 115.217C910.107 114.638 909.319 113.833 908.74 112.803C908.177 111.758 907.895 110.551 907.895 109.183C907.895 107.816 908.168 106.617 908.716 105.588C909.279 104.542 910.059 103.737 911.056 103.174C912.07 102.611 913.228 102.33 914.532 102.33C915.787 102.33 916.905 102.603 917.886 103.15C918.868 103.697 919.632 104.469 920.179 105.467C920.726 106.448 920.999 107.583 920.999 108.87ZM918.128 108.001C918.111 106.987 917.749 106.175 917.042 105.563C916.334 104.952 915.457 104.646 914.411 104.646C913.462 104.646 912.649 104.952 911.974 105.563C911.298 106.159 910.896 106.971 910.767 108.001H918.128ZM926.579 97.9855V115.844H923.828V97.9855H926.579ZM936.079 116.061C934.824 116.061 933.69 115.78 932.677 115.217C931.663 114.638 930.867 113.833 930.287 112.803C929.708 111.758 929.419 110.551 929.419 109.183C929.419 107.832 929.716 106.633 930.312 105.588C930.907 104.542 931.719 103.737 932.749 103.174C933.779 102.611 934.929 102.33 936.2 102.33C937.471 102.33 938.621 102.611 939.651 103.174C940.681 103.737 941.493 104.542 942.089 105.588C942.684 106.633 942.982 107.832 942.982 109.183C942.982 110.535 942.676 111.734 942.065 112.779C941.453 113.825 940.617 114.638 939.555 115.217C938.509 115.78 937.35 116.061 936.079 116.061ZM936.079 113.672C936.787 113.672 937.447 113.503 938.058 113.165C938.686 112.828 939.193 112.321 939.579 111.645C939.965 110.969 940.158 110.149 940.158 109.183C940.158 108.218 939.973 107.406 939.603 106.746C939.233 106.07 938.742 105.563 938.131 105.226C937.519 104.888 936.86 104.719 936.152 104.719C935.444 104.719 934.784 104.888 934.173 105.226C933.578 105.563 933.103 106.07 932.749 106.746C932.395 107.406 932.218 108.218 932.218 109.183C932.218 110.615 932.58 111.725 933.304 112.514C934.044 113.286 934.969 113.672 936.079 113.672ZM948.573 104.502C949.04 103.89 949.675 103.375 950.48 102.957C951.284 102.539 952.193 102.33 953.207 102.33C954.365 102.33 955.419 102.619 956.368 103.198C957.334 103.761 958.09 104.558 958.637 105.588C959.184 106.617 959.457 107.8 959.457 109.135C959.457 110.471 959.184 111.669 958.637 112.731C958.09 113.777 957.334 114.597 956.368 115.193C955.419 115.772 954.365 116.061 953.207 116.061C952.193 116.061 951.292 115.86 950.504 115.458C949.715 115.04 949.072 114.525 948.573 113.914V122.167H945.822V102.547H948.573V104.502ZM956.658 109.135C956.658 108.218 956.465 107.43 956.079 106.77C955.709 106.094 955.21 105.588 954.582 105.25C953.971 104.896 953.311 104.719 952.603 104.719C951.912 104.719 951.252 104.896 950.625 105.25C950.013 105.604 949.514 106.118 949.128 106.794C948.758 107.47 948.573 108.266 948.573 109.183C948.573 110.1 948.758 110.905 949.128 111.597C949.514 112.272 950.013 112.787 950.625 113.141C951.252 113.495 951.912 113.672 952.603 113.672C953.311 113.672 953.971 113.495 954.582 113.141C955.21 112.771 955.709 112.24 956.079 111.548C956.465 110.857 956.658 110.052 956.658 109.135ZM978.396 102.33C979.441 102.33 980.375 102.547 981.195 102.981C982.032 103.416 982.683 104.059 983.15 104.912C983.633 105.765 983.874 106.794 983.874 108.001V115.844H981.147V108.411C981.147 107.221 980.849 106.312 980.254 105.684C979.659 105.041 978.846 104.719 977.816 104.719C976.787 104.719 975.966 105.041 975.355 105.684C974.76 106.312 974.462 107.221 974.462 108.411V115.844H971.735V108.411C971.735 107.221 971.437 106.312 970.842 105.684C970.247 105.041 969.434 104.719 968.404 104.719C967.375 104.719 966.554 105.041 965.943 105.684C965.348 106.312 965.05 107.221 965.05 108.411V115.844H962.299V102.547H965.05V104.067C965.5 103.52 966.072 103.094 966.763 102.788C967.455 102.482 968.195 102.33 968.984 102.33C970.046 102.33 970.995 102.555 971.831 103.005C972.668 103.456 973.312 104.107 973.762 104.96C974.164 104.156 974.792 103.52 975.644 103.054C976.497 102.571 977.414 102.33 978.396 102.33ZM999.683 108.87C999.683 109.368 999.651 109.819 999.586 110.221H989.426C989.507 111.283 989.901 112.136 990.609 112.779C991.317 113.423 992.185 113.745 993.215 113.745C994.695 113.745 995.741 113.125 996.352 111.886H999.321C998.919 113.109 998.187 114.115 997.125 114.903C996.079 115.675 994.776 116.061 993.215 116.061C991.944 116.061 990.802 115.78 989.788 115.217C988.791 114.638 988.002 113.833 987.423 112.803C986.86 111.758 986.578 110.551 986.578 109.183C986.578 107.816 986.852 106.617 987.399 105.588C987.962 104.542 988.742 103.737 989.74 103.174C990.754 102.611 991.912 102.33 993.215 102.33C994.47 102.33 995.588 102.603 996.57 103.15C997.551 103.697 998.315 104.469 998.862 105.467C999.409 106.448 999.683 107.583 999.683 108.87ZM996.811 108.001C996.795 106.987 996.433 106.175 995.725 105.563C995.017 104.952 994.14 104.646 993.094 104.646C992.145 104.646 991.333 104.952 990.657 105.563C989.981 106.159 989.579 106.971 989.45 108.001H996.811ZM1009.22 102.33C1010.27 102.33 1011.2 102.547 1012.02 102.981C1012.86 103.416 1013.51 104.059 1013.97 104.912C1014.44 105.765 1014.67 106.794 1014.67 108.001V115.844H1011.95V108.411C1011.95 107.221 1011.65 106.312 1011.05 105.684C1010.46 105.041 1009.65 104.719 1008.62 104.719C1007.59 104.719 1006.77 105.041 1006.16 105.684C1005.56 106.312 1005.26 107.221 1005.26 108.411V115.844H1002.51V102.547H1005.26V104.067C1005.71 103.52 1006.28 103.094 1006.98 102.788C1007.68 102.482 1008.43 102.33 1009.22 102.33ZM1021.51 104.791V112.152C1021.51 112.651 1021.63 113.013 1021.85 113.238C1022.09 113.447 1022.5 113.552 1023.06 113.552H1024.75V115.844H1022.58C1021.34 115.844 1020.39 115.555 1019.73 114.975C1019.07 114.396 1018.74 113.455 1018.74 112.152V104.791H1017.17V102.547H1018.74V99.2404H1021.51V102.547H1024.75V104.791H1021.51ZM756.522 146.844L752.661 140.135H750.561V146.844H747.81V130.072H753.602C754.889 130.072 755.975 130.297 756.86 130.747C757.761 131.198 758.429 131.801 758.863 132.557C759.314 133.313 759.539 134.158 759.539 135.091C759.539 136.185 759.217 137.183 758.574 138.084C757.946 138.969 756.973 139.572 755.653 139.894L759.804 146.844H756.522ZM750.561 137.939H753.602C754.632 137.939 755.404 137.682 755.919 137.167C756.45 136.652 756.715 135.96 756.715 135.091C756.715 134.222 756.458 133.547 755.943 133.064C755.428 132.565 754.648 132.316 753.602 132.316H750.561V137.939ZM775.366 139.87C775.366 140.368 775.334 140.819 775.27 141.221H765.11C765.19 142.283 765.584 143.136 766.292 143.779C767 144.423 767.869 144.745 768.899 144.745C770.379 144.745 771.425 144.125 772.036 142.886H775.004C774.602 144.109 773.87 145.115 772.808 145.903C771.763 146.675 770.459 147.061 768.899 147.061C767.628 147.061 766.485 146.78 765.472 146.217C764.474 145.638 763.686 144.833 763.107 143.803C762.544 142.758 762.262 141.551 762.262 140.183C762.262 138.816 762.535 137.617 763.083 136.588C763.646 135.542 764.426 134.737 765.423 134.174C766.437 133.611 767.595 133.33 768.899 133.33C770.154 133.33 771.272 133.603 772.253 134.15C773.235 134.697 773.999 135.469 774.546 136.467C775.093 137.448 775.366 138.583 775.366 139.87ZM772.495 139.001C772.478 137.987 772.116 137.175 771.409 136.563C770.701 135.952 769.824 135.646 768.778 135.646C767.829 135.646 767.016 135.952 766.341 136.563C765.665 137.159 765.263 137.971 765.134 139.001H772.495ZM790.237 133.547V146.844H787.486V145.276C787.052 145.823 786.48 146.257 785.772 146.579C785.081 146.884 784.341 147.037 783.552 147.037C782.506 147.037 781.565 146.82 780.729 146.386C779.908 145.951 779.256 145.308 778.774 144.455C778.307 143.602 778.074 142.573 778.074 141.366V133.547H780.801V140.956C780.801 142.146 781.099 143.063 781.694 143.707C782.289 144.334 783.102 144.648 784.131 144.648C785.161 144.648 785.974 144.334 786.569 143.707C787.18 143.063 787.486 142.146 787.486 140.956V133.547H790.237ZM798.815 147.061C797.769 147.061 796.828 146.876 795.991 146.506C795.17 146.12 794.519 145.605 794.036 144.962C793.553 144.302 793.296 143.57 793.264 142.766H796.112C796.16 143.329 796.425 143.803 796.908 144.19C797.407 144.56 798.026 144.745 798.766 144.745C799.539 144.745 800.134 144.6 800.552 144.31C800.987 144.005 801.204 143.618 801.204 143.152C801.204 142.653 800.962 142.283 800.48 142.042C800.013 141.8 799.265 141.535 798.235 141.245C797.238 140.972 796.425 140.706 795.798 140.449C795.17 140.191 794.623 139.797 794.157 139.266C793.706 138.735 793.481 138.036 793.481 137.167C793.481 136.459 793.69 135.815 794.108 135.236C794.527 134.641 795.122 134.174 795.894 133.836C796.683 133.498 797.584 133.33 798.597 133.33C800.11 133.33 801.324 133.716 802.241 134.488C803.175 135.244 803.673 136.282 803.738 137.601H800.987C800.938 137.006 800.697 136.531 800.263 136.177C799.828 135.823 799.241 135.646 798.501 135.646C797.777 135.646 797.222 135.783 796.836 136.057C796.449 136.33 796.256 136.692 796.256 137.143C796.256 137.497 796.385 137.794 796.642 138.036C796.9 138.277 797.214 138.47 797.584 138.615C797.954 138.743 798.501 138.912 799.225 139.122C800.19 139.379 800.978 139.644 801.59 139.918C802.217 140.175 802.756 140.562 803.207 141.076C803.657 141.591 803.891 142.275 803.907 143.128C803.907 143.884 803.698 144.56 803.279 145.155C802.861 145.75 802.266 146.217 801.493 146.555C800.737 146.893 799.844 147.061 798.815 147.061ZM806.083 140.135C806.083 138.8 806.357 137.617 806.904 136.588C807.467 135.558 808.223 134.761 809.172 134.198C810.137 133.619 811.199 133.33 812.358 133.33C813.403 133.33 814.313 133.539 815.085 133.957C815.873 134.359 816.501 134.866 816.967 135.477V133.547H819.743V146.844H816.967V144.865C816.501 145.493 815.865 146.016 815.061 146.434C814.256 146.852 813.339 147.061 812.309 147.061C811.167 147.061 810.121 146.772 809.172 146.193C808.223 145.597 807.467 144.777 806.904 143.731C806.357 142.669 806.083 141.471 806.083 140.135ZM816.967 140.183C816.967 139.266 816.774 138.47 816.388 137.794C816.018 137.118 815.527 136.604 814.916 136.25C814.304 135.896 813.645 135.719 812.937 135.719C812.229 135.719 811.569 135.896 810.958 136.25C810.347 136.588 809.848 137.094 809.462 137.77C809.092 138.43 808.907 139.218 808.907 140.135C808.907 141.052 809.092 141.857 809.462 142.548C809.848 143.24 810.347 143.771 810.958 144.141C811.585 144.495 812.245 144.672 812.937 144.672C813.645 144.672 814.304 144.495 814.916 144.141C815.527 143.787 816.018 143.272 816.388 142.597C816.774 141.905 816.967 141.1 816.967 140.183ZM826.228 135.526C826.695 134.882 827.33 134.359 828.135 133.957C828.955 133.539 829.864 133.33 830.862 133.33C832.036 133.33 833.098 133.611 834.047 134.174C834.996 134.737 835.745 135.542 836.292 136.588C836.839 137.617 837.112 138.8 837.112 140.135C837.112 141.471 836.839 142.669 836.292 143.731C835.745 144.777 834.988 145.597 834.023 146.193C833.074 146.772 832.02 147.061 830.862 147.061C829.832 147.061 828.915 146.86 828.11 146.458C827.322 146.056 826.695 145.541 826.228 144.914V146.844H823.477V128.985H826.228V135.526ZM834.313 140.135C834.313 139.218 834.12 138.43 833.734 137.77C833.363 137.094 832.865 136.588 832.237 136.25C831.626 135.896 830.966 135.719 830.258 135.719C829.566 135.719 828.907 135.896 828.279 136.25C827.668 136.604 827.169 137.118 826.783 137.794C826.413 138.47 826.228 139.266 826.228 140.183C826.228 141.1 826.413 141.905 826.783 142.597C827.169 143.272 827.668 143.787 828.279 144.141C828.907 144.495 829.566 144.672 830.258 144.672C830.966 144.672 831.626 144.495 832.237 144.141C832.865 143.771 833.363 143.24 833.734 142.548C834.12 141.857 834.313 141.052 834.313 140.135ZM841.353 131.785C840.855 131.785 840.436 131.616 840.098 131.278C839.76 130.94 839.592 130.522 839.592 130.023C839.592 129.524 839.76 129.106 840.098 128.768C840.436 128.43 840.855 128.261 841.353 128.261C841.836 128.261 842.246 128.43 842.584 128.768C842.922 129.106 843.091 129.524 843.091 130.023C843.091 130.522 842.922 130.94 842.584 131.278C842.246 131.616 841.836 131.785 841.353 131.785ZM842.705 133.547V146.844H839.954V133.547H842.705ZM849.189 128.985V146.844H846.437V128.985H849.189ZM854.321 131.785C853.822 131.785 853.404 131.616 853.066 131.278C852.728 130.94 852.559 130.522 852.559 130.023C852.559 129.524 852.728 129.106 853.066 128.768C853.404 128.43 853.822 128.261 854.321 128.261C854.804 128.261 855.214 128.43 855.552 128.768C855.89 129.106 856.059 129.524 856.059 130.023C856.059 130.522 855.89 130.94 855.552 131.278C855.214 131.616 854.804 131.785 854.321 131.785ZM855.673 133.547V146.844H852.921V133.547H855.673ZM862.615 135.791V143.152C862.615 143.651 862.728 144.013 862.953 144.238C863.194 144.447 863.597 144.552 864.16 144.552H865.849V146.844H863.677C862.438 146.844 861.489 146.555 860.829 145.975C860.17 145.396 859.84 144.455 859.84 143.152V135.791H858.271V133.547H859.84V130.24H862.615V133.547H865.849V135.791H862.615ZM880.476 133.547L872.319 153.095H869.471L872.174 146.627L866.937 133.547H870.002L873.742 143.683L877.628 133.547H880.476Z" fill="white"/>
<path d="M765.06 53.3852C764.75 52.082 764.207 51.1046 763.431 50.453C762.686 49.8014 761.6 49.4756 760.173 49.4756C758.032 49.4756 756.45 50.3444 755.426 52.082C754.433 53.7886 753.921 56.5811 753.89 60.4597C754.634 59.2186 755.72 58.2567 757.148 57.5741C758.575 56.8604 760.126 56.5036 761.802 56.5036C763.819 56.5036 765.603 56.938 767.154 57.8068C768.706 58.6756 769.916 59.9478 770.785 61.6233C771.654 63.2678 772.088 65.2537 772.088 67.5808C772.088 69.7839 771.638 71.7542 770.738 73.4918C769.87 75.1984 768.582 76.5326 766.875 77.4945C765.169 78.4564 763.136 78.9373 760.778 78.9373C757.551 78.9373 755.007 78.2237 753.145 76.7963C751.314 75.369 750.027 73.3832 749.282 70.8388C748.568 68.2635 748.211 65.0985 748.211 61.3441C748.211 55.6658 749.189 51.3838 751.144 48.4982C753.098 45.5815 756.186 44.1231 760.406 44.1231C763.664 44.1231 766.193 45.0074 767.992 46.7761C769.792 48.5447 770.831 50.7478 771.111 53.3852H765.06ZM760.313 61.856C758.668 61.856 757.287 62.337 756.17 63.2989C755.053 64.2608 754.495 65.657 754.495 67.4877C754.495 69.3184 755.007 70.7613 756.031 71.8162C757.086 72.8712 758.56 73.3987 760.452 73.3987C762.128 73.3987 763.447 72.8867 764.408 71.8628C765.401 70.8388 765.898 69.4581 765.898 67.7205C765.898 65.9208 765.417 64.4935 764.455 63.4385C763.524 62.3835 762.143 61.856 760.313 61.856ZM777.471 61.4371C777.471 56.0692 778.433 51.8648 780.356 48.824C782.311 45.7832 785.538 44.2628 790.037 44.2628C794.536 44.2628 797.748 45.7832 799.672 48.824C801.627 51.8648 802.604 56.0692 802.604 61.4371C802.604 66.8361 801.627 71.0715 799.672 74.1434C797.748 77.2152 794.536 78.7512 790.037 78.7512C785.538 78.7512 782.311 77.2152 780.356 74.1434C778.433 71.0715 777.471 66.8361 777.471 61.4371ZM796.181 61.4371C796.181 59.141 796.026 57.2172 795.716 55.6658C795.436 54.0833 794.847 52.7956 793.947 51.8027C793.078 50.8098 791.775 50.3134 790.037 50.3134C788.3 50.3134 786.981 50.8098 786.081 51.8027C785.212 52.7956 784.623 54.0833 784.313 55.6658C784.033 57.2172 783.894 59.141 783.894 61.4371C783.894 63.7953 784.033 65.7812 784.313 67.3946C784.592 68.9771 785.181 70.2648 786.081 71.2577C786.981 72.2196 788.3 72.7006 790.037 72.7006C791.775 72.7006 793.094 72.2196 793.993 71.2577C794.893 70.2648 795.483 68.9771 795.762 67.3946C796.041 65.7812 796.181 63.7953 796.181 61.4371ZM807.048 53.2456C807.048 50.8874 807.731 49.0412 809.096 47.7069C810.492 46.3727 812.276 45.7056 814.448 45.7056C816.62 45.7056 818.389 46.3727 819.754 47.7069C821.151 49.0412 821.849 50.8874 821.849 53.2456C821.849 55.6348 821.151 57.4965 819.754 58.8307C818.389 60.165 816.62 60.8321 814.448 60.8321C812.276 60.8321 810.492 60.165 809.096 58.8307C807.731 57.4965 807.048 55.6348 807.048 53.2456ZM836.929 46.2641L818.637 78.8442H812.307L830.552 46.2641H836.929ZM814.402 49.6152C812.695 49.6152 811.842 50.8253 811.842 53.2456C811.842 55.6968 812.695 56.9225 814.402 56.9225C815.24 56.9225 815.891 56.6277 816.357 56.0381C816.822 55.4176 817.055 54.4867 817.055 53.2456C817.055 50.8253 816.17 49.6152 814.402 49.6152ZM827.48 71.8162C827.48 69.427 828.163 67.5808 829.528 66.2776C830.925 64.9434 832.709 64.2763 834.881 64.2763C837.053 64.2763 838.806 64.9434 840.14 66.2776C841.505 67.5808 842.188 69.427 842.188 71.8162C842.188 74.2054 841.505 76.0672 840.14 77.4014C838.806 78.7356 837.053 79.4028 834.881 79.4028C832.678 79.4028 830.894 78.7356 829.528 77.4014C828.163 76.0672 827.48 74.2054 827.48 71.8162ZM834.834 68.1859C833.066 68.1859 832.181 69.396 832.181 71.8162C832.181 74.2675 833.066 75.4931 834.834 75.4931C836.572 75.4931 837.441 74.2675 837.441 71.8162C837.441 69.396 836.572 68.1859 834.834 68.1859Z" fill="white"/>
<rect width="2" height="153.52" transform="translate(1096 25.5842)" fill="white"/>
<path d="M1126.89 122.422C1126.89 120.781 1127.27 119.308 1128.03 118.005C1128.8 116.702 1129.84 115.688 1131.14 114.964C1132.46 114.224 1133.9 113.854 1135.46 113.854C1137.25 113.854 1138.83 114.297 1140.21 115.182C1141.61 116.05 1142.63 117.289 1143.26 118.898H1139.95C1139.51 118.013 1138.91 117.354 1138.14 116.919C1137.37 116.485 1136.47 116.268 1135.46 116.268C1134.35 116.268 1133.36 116.517 1132.49 117.016C1131.62 117.515 1130.94 118.23 1130.44 119.164C1129.96 120.097 1129.72 121.183 1129.72 122.422C1129.72 123.661 1129.96 124.747 1130.44 125.68C1130.94 126.613 1131.62 127.337 1132.49 127.852C1133.36 128.35 1134.35 128.6 1135.46 128.6C1136.47 128.6 1137.37 128.383 1138.14 127.948C1138.91 127.514 1139.51 126.854 1139.95 125.969H1143.26C1142.63 127.578 1141.61 128.817 1140.21 129.686C1138.83 130.555 1137.25 130.989 1135.46 130.989C1133.88 130.989 1132.44 130.627 1131.14 129.903C1129.84 129.163 1128.8 128.141 1128.03 126.838C1127.27 125.535 1126.89 124.063 1126.89 122.422ZM1152.36 131.061C1151.11 131.061 1149.98 130.78 1148.96 130.217C1147.95 129.638 1147.15 128.833 1146.57 127.803C1145.99 126.758 1145.7 125.551 1145.7 124.183C1145.7 122.832 1146 121.633 1146.6 120.588C1147.19 119.542 1148 118.737 1149.03 118.174C1150.06 117.611 1151.21 117.33 1152.48 117.33C1153.76 117.33 1154.91 117.611 1155.94 118.174C1156.97 118.737 1157.78 119.542 1158.37 120.588C1158.97 121.633 1159.27 122.832 1159.27 124.183C1159.27 125.535 1158.96 126.734 1158.35 127.779C1157.74 128.825 1156.9 129.638 1155.84 130.217C1154.79 130.78 1153.64 131.061 1152.36 131.061ZM1152.36 128.672C1153.07 128.672 1153.73 128.503 1154.34 128.165C1154.97 127.828 1155.48 127.321 1155.86 126.645C1156.25 125.969 1156.44 125.149 1156.44 124.183C1156.44 123.218 1156.26 122.406 1155.89 121.746C1155.52 121.07 1155.03 120.563 1154.42 120.226C1153.8 119.888 1153.14 119.719 1152.44 119.719C1151.73 119.719 1151.07 119.888 1150.46 120.226C1149.86 120.563 1149.39 121.07 1149.03 121.746C1148.68 122.406 1148.5 123.218 1148.5 124.183C1148.5 125.615 1148.86 126.725 1149.59 127.514C1150.33 128.286 1151.25 128.672 1152.36 128.672ZM1166.93 131.061C1165.89 131.061 1164.95 130.876 1164.11 130.506C1163.29 130.12 1162.64 129.605 1162.16 128.962C1161.67 128.302 1161.41 127.57 1161.38 126.766H1164.23C1164.28 127.329 1164.54 127.803 1165.03 128.19C1165.53 128.56 1166.15 128.745 1166.89 128.745C1167.66 128.745 1168.25 128.6 1168.67 128.31C1169.11 128.005 1169.32 127.618 1169.32 127.152C1169.32 126.653 1169.08 126.283 1168.6 126.042C1168.13 125.8 1167.38 125.535 1166.35 125.245C1165.36 124.972 1164.54 124.706 1163.92 124.449C1163.29 124.191 1162.74 123.797 1162.28 123.266C1161.83 122.735 1161.6 122.036 1161.6 121.167C1161.6 120.459 1161.81 119.815 1162.23 119.236C1162.65 118.641 1163.24 118.174 1164.01 117.836C1164.8 117.498 1165.7 117.33 1166.72 117.33C1168.23 117.33 1169.44 117.716 1170.36 118.488C1171.29 119.244 1171.79 120.282 1171.86 121.601H1169.11C1169.06 121.006 1168.82 120.531 1168.38 120.177C1167.95 119.823 1167.36 119.646 1166.62 119.646C1165.9 119.646 1165.34 119.783 1164.95 120.057C1164.57 120.33 1164.38 120.692 1164.38 121.143C1164.38 121.497 1164.5 121.794 1164.76 122.036C1165.02 122.277 1165.33 122.47 1165.7 122.615C1166.07 122.743 1166.62 122.912 1167.34 123.122C1168.31 123.379 1169.1 123.644 1169.71 123.918C1170.34 124.175 1170.88 124.562 1171.33 125.076C1171.78 125.591 1172.01 126.275 1172.03 127.128C1172.03 127.884 1171.82 128.56 1171.4 129.155C1170.98 129.75 1170.38 130.217 1169.61 130.555C1168.86 130.893 1167.96 131.061 1166.93 131.061ZM1178.33 119.791V127.152C1178.33 127.651 1178.44 128.013 1178.67 128.238C1178.91 128.447 1179.31 128.552 1179.87 128.552H1181.56V130.844H1179.39C1178.15 130.844 1177.2 130.555 1176.54 129.975C1175.88 129.396 1175.55 128.455 1175.55 127.152V119.791H1173.98V117.547H1175.55V114.24H1178.33V117.547H1181.56V119.791H1178.33ZM1198.26 131.013C1196.7 131.013 1195.26 130.651 1193.94 129.927C1192.64 129.187 1191.6 128.165 1190.83 126.862C1190.07 125.543 1189.69 124.063 1189.69 122.422C1189.69 120.781 1190.07 119.308 1190.83 118.005C1191.6 116.702 1192.64 115.688 1193.94 114.964C1195.26 114.224 1196.7 113.854 1198.26 113.854C1199.84 113.854 1201.28 114.224 1202.58 114.964C1203.9 115.688 1204.94 116.702 1205.69 118.005C1206.45 119.308 1206.83 120.781 1206.83 122.422C1206.83 124.063 1206.45 125.543 1205.69 126.862C1204.94 128.165 1203.9 129.187 1202.58 129.927C1201.28 130.651 1199.84 131.013 1198.26 131.013ZM1198.26 128.624C1199.37 128.624 1200.36 128.375 1201.23 127.876C1202.1 127.361 1202.77 126.637 1203.25 125.704C1203.75 124.755 1204 123.661 1204 122.422C1204 121.183 1203.75 120.097 1203.25 119.164C1202.77 118.23 1202.1 117.515 1201.23 117.016C1200.36 116.517 1199.37 116.268 1198.26 116.268C1197.15 116.268 1196.16 116.517 1195.29 117.016C1194.42 117.515 1193.74 118.23 1193.24 119.164C1192.76 120.097 1192.52 121.183 1192.52 122.422C1192.52 123.661 1192.76 124.755 1193.24 125.704C1193.74 126.637 1194.42 127.361 1195.29 127.876C1196.16 128.375 1197.15 128.624 1198.26 128.624ZM1212.41 119.502C1212.87 118.89 1213.51 118.375 1214.31 117.957C1215.12 117.539 1216.03 117.33 1217.04 117.33C1218.2 117.33 1219.25 117.619 1220.2 118.198C1221.17 118.761 1221.92 119.558 1222.47 120.588C1223.02 121.617 1223.29 122.8 1223.29 124.135C1223.29 125.471 1223.02 126.669 1222.47 127.731C1221.92 128.777 1221.17 129.597 1220.2 130.193C1219.25 130.772 1218.2 131.061 1217.04 131.061C1216.03 131.061 1215.12 130.86 1214.34 130.458C1213.55 130.04 1212.9 129.525 1212.41 128.914V137.167H1209.65V117.547H1212.41V119.502ZM1220.49 124.135C1220.49 123.218 1220.3 122.43 1219.91 121.77C1219.54 121.094 1219.04 120.588 1218.41 120.25C1217.8 119.896 1217.14 119.719 1216.44 119.719C1215.74 119.719 1215.08 119.896 1214.46 120.25C1213.85 120.604 1213.35 121.118 1212.96 121.794C1212.59 122.47 1212.41 123.266 1212.41 124.183C1212.41 125.1 1212.59 125.905 1212.96 126.597C1213.35 127.272 1213.85 127.787 1214.46 128.141C1215.08 128.495 1215.74 128.672 1216.44 128.672C1217.14 128.672 1217.8 128.495 1218.41 128.141C1219.04 127.771 1219.54 127.24 1219.91 126.548C1220.3 125.857 1220.49 125.052 1220.49 124.135ZM1229.34 119.791V127.152C1229.34 127.651 1229.45 128.013 1229.68 128.238C1229.92 128.447 1230.32 128.552 1230.89 128.552H1232.57V130.844H1230.4C1229.16 130.844 1228.21 130.555 1227.55 129.975C1226.9 129.396 1226.57 128.455 1226.57 127.152V119.791H1225V117.547H1226.57V114.24H1229.34V117.547H1232.57V119.791H1229.34ZM1236.63 115.785C1236.13 115.785 1235.71 115.616 1235.38 115.278C1235.04 114.94 1234.87 114.522 1234.87 114.023C1234.87 113.524 1235.04 113.106 1235.38 112.768C1235.71 112.43 1236.13 112.261 1236.63 112.261C1237.11 112.261 1237.52 112.43 1237.86 112.768C1238.2 113.106 1238.37 113.524 1238.37 114.023C1238.37 114.522 1238.2 114.94 1237.86 115.278C1237.52 115.616 1237.11 115.785 1236.63 115.785ZM1237.98 117.547V130.844H1235.23V117.547H1237.98ZM1257.81 117.33C1258.86 117.33 1259.79 117.547 1260.61 117.981C1261.45 118.416 1262.1 119.059 1262.57 119.912C1263.05 120.765 1263.29 121.794 1263.29 123.001V130.844H1260.56V123.411C1260.56 122.221 1260.27 121.312 1259.67 120.684C1259.08 120.041 1258.26 119.719 1257.23 119.719C1256.2 119.719 1255.38 120.041 1254.77 120.684C1254.18 121.312 1253.88 122.221 1253.88 123.411V130.844H1251.15V123.411C1251.15 122.221 1250.85 121.312 1250.26 120.684C1249.66 120.041 1248.85 119.719 1247.82 119.719C1246.79 119.719 1245.97 120.041 1245.36 120.684C1244.76 121.312 1244.47 122.221 1244.47 123.411V130.844H1241.72V117.547H1244.47V119.067C1244.92 118.52 1245.49 118.094 1246.18 117.788C1246.87 117.482 1247.61 117.33 1248.4 117.33C1249.46 117.33 1250.41 117.555 1251.25 118.005C1252.08 118.456 1252.73 119.107 1253.18 119.96C1253.58 119.156 1254.21 118.52 1255.06 118.054C1255.91 117.571 1256.83 117.33 1257.81 117.33ZM1268.31 115.785C1267.81 115.785 1267.39 115.616 1267.06 115.278C1266.72 114.94 1266.55 114.522 1266.55 114.023C1266.55 113.524 1266.72 113.106 1267.06 112.768C1267.39 112.43 1267.81 112.261 1268.31 112.261C1268.79 112.261 1269.2 112.43 1269.54 112.768C1269.88 113.106 1270.05 113.524 1270.05 114.023C1270.05 114.522 1269.88 114.94 1269.54 115.278C1269.2 115.616 1268.79 115.785 1268.31 115.785ZM1269.66 117.547V130.844H1266.91V117.547H1269.66ZM1275.83 128.6H1281.87V130.844H1272.65V128.6L1278.71 119.791H1272.65V117.547H1281.87V119.791L1275.83 128.6ZM1283.96 124.135C1283.96 122.8 1284.23 121.617 1284.78 120.588C1285.34 119.558 1286.1 118.761 1287.05 118.198C1288.01 117.619 1289.08 117.33 1290.23 117.33C1291.28 117.33 1292.19 117.539 1292.96 117.957C1293.75 118.359 1294.38 118.866 1294.84 119.477V117.547H1297.62V130.844H1294.84V128.865C1294.38 129.493 1293.74 130.016 1292.94 130.434C1292.13 130.852 1291.22 131.061 1290.19 131.061C1289.04 131.061 1288 130.772 1287.05 130.193C1286.1 129.597 1285.34 128.777 1284.78 127.731C1284.23 126.669 1283.96 125.471 1283.96 124.135ZM1294.84 124.183C1294.84 123.266 1294.65 122.47 1294.26 121.794C1293.89 121.118 1293.4 120.604 1292.79 120.25C1292.18 119.896 1291.52 119.719 1290.81 119.719C1290.11 119.719 1289.45 119.896 1288.83 120.25C1288.22 120.588 1287.72 121.094 1287.34 121.77C1286.97 122.43 1286.78 123.218 1286.78 124.135C1286.78 125.052 1286.97 125.857 1287.34 126.548C1287.72 127.24 1288.22 127.771 1288.83 128.141C1289.46 128.495 1290.12 128.672 1290.81 128.672C1291.52 128.672 1292.18 128.495 1292.79 128.141C1293.4 127.787 1293.89 127.272 1294.26 126.597C1294.65 125.905 1294.84 125.1 1294.84 124.183ZM1304.56 119.791V127.152C1304.56 127.651 1304.68 128.013 1304.9 128.238C1305.14 128.447 1305.54 128.552 1306.11 128.552H1307.8V130.844H1305.62C1304.39 130.844 1303.44 130.555 1302.78 129.975C1302.12 129.396 1301.79 128.455 1301.79 127.152V119.791H1300.22V117.547H1301.79V114.24H1304.56V117.547H1307.8V119.791H1304.56ZM1311.85 115.785C1311.35 115.785 1310.94 115.616 1310.6 115.278C1310.26 114.94 1310.09 114.522 1310.09 114.023C1310.09 113.524 1310.26 113.106 1310.6 112.768C1310.94 112.43 1311.35 112.261 1311.85 112.261C1312.34 112.261 1312.75 112.43 1313.08 112.768C1313.42 113.106 1313.59 113.524 1313.59 114.023C1313.59 114.522 1313.42 114.94 1313.08 115.278C1312.75 115.616 1312.34 115.785 1311.85 115.785ZM1313.2 117.547V130.844H1310.45V117.547H1313.2ZM1322.7 131.061C1321.45 131.061 1320.32 130.78 1319.3 130.217C1318.29 129.638 1317.49 128.833 1316.91 127.803C1316.33 126.758 1316.04 125.551 1316.04 124.183C1316.04 122.832 1316.34 121.633 1316.94 120.588C1317.53 119.542 1318.34 118.737 1319.37 118.174C1320.4 117.611 1321.55 117.33 1322.83 117.33C1324.1 117.33 1325.25 117.611 1326.28 118.174C1327.31 118.737 1328.12 119.542 1328.71 120.588C1329.31 121.633 1329.61 122.832 1329.61 124.183C1329.61 125.535 1329.3 126.734 1328.69 127.779C1328.08 128.825 1327.24 129.638 1326.18 130.217C1325.13 130.78 1323.98 131.061 1322.7 131.061ZM1322.7 128.672C1323.41 128.672 1324.07 128.503 1324.68 128.165C1325.31 127.828 1325.82 127.321 1326.2 126.645C1326.59 125.969 1326.78 125.149 1326.78 124.183C1326.78 123.218 1326.6 122.406 1326.23 121.746C1325.86 121.07 1325.37 120.563 1324.76 120.226C1324.14 119.888 1323.49 119.719 1322.78 119.719C1322.07 119.719 1321.41 119.888 1320.8 120.226C1320.2 120.563 1319.73 121.07 1319.37 121.746C1319.02 122.406 1318.84 123.218 1318.84 124.183C1318.84 125.615 1319.21 126.725 1319.93 127.514C1320.67 128.286 1321.59 128.672 1322.7 128.672ZM1339.16 117.33C1340.2 117.33 1341.14 117.547 1341.96 117.981C1342.79 118.416 1343.44 119.059 1343.91 119.912C1344.38 120.765 1344.61 121.794 1344.61 123.001V130.844H1341.88V123.411C1341.88 122.221 1341.59 121.312 1340.99 120.684C1340.4 120.041 1339.58 119.719 1338.55 119.719C1337.52 119.719 1336.7 120.041 1336.09 120.684C1335.5 121.312 1335.2 122.221 1335.2 123.411V130.844H1332.45V117.547H1335.2V119.067C1335.65 118.52 1336.22 118.094 1336.91 117.788C1337.62 117.482 1338.37 117.33 1339.16 117.33Z" fill="white"/>
<path d="M1127.19 72.2351V67.1154L1142.41 45.3332H1149.99V66.5569H1154.09V72.2351H1149.99V78.8442H1143.48V72.2351H1127.19ZM1143.9 52.3147L1134.36 66.5569H1143.9V52.3147ZM1158.47 61.4371C1158.47 56.0692 1159.43 51.8648 1161.36 48.824C1163.31 45.7832 1166.54 44.2628 1171.04 44.2628C1175.54 44.2628 1178.75 45.7832 1180.67 48.824C1182.63 51.8648 1183.6 56.0692 1183.6 61.4371C1183.6 66.8361 1182.63 71.0715 1180.67 74.1434C1178.75 77.2152 1175.54 78.7512 1171.04 78.7512C1166.54 78.7512 1163.31 77.2152 1161.36 74.1434C1159.43 71.0715 1158.47 66.8361 1158.47 61.4371ZM1177.18 61.4371C1177.18 59.141 1177.03 57.2172 1176.72 55.6658C1176.44 54.0833 1175.85 52.7956 1174.95 51.8027C1174.08 50.8098 1172.77 50.3134 1171.04 50.3134C1169.3 50.3134 1167.98 50.8098 1167.08 51.8027C1166.21 52.7956 1165.62 54.0833 1165.31 55.6658C1165.03 57.2172 1164.89 59.141 1164.89 61.4371C1164.89 63.7953 1165.03 65.7812 1165.31 67.3946C1165.59 68.9771 1166.18 70.2648 1167.08 71.2577C1167.98 72.2196 1169.3 72.7006 1171.04 72.7006C1172.77 72.7006 1174.09 72.2196 1174.99 71.2577C1175.89 70.2648 1176.48 68.9771 1176.76 67.3946C1177.04 65.7812 1177.18 63.7953 1177.18 61.4371ZM1188.05 53.2456C1188.05 50.8874 1188.73 49.0412 1190.1 47.7069C1191.49 46.3727 1193.28 45.7056 1195.45 45.7056C1197.62 45.7056 1199.39 46.3727 1200.75 47.7069C1202.15 49.0412 1202.85 50.8874 1202.85 53.2456C1202.85 55.6348 1202.15 57.4965 1200.75 58.8307C1199.39 60.165 1197.62 60.8321 1195.45 60.8321C1193.28 60.8321 1191.49 60.165 1190.1 58.8307C1188.73 57.4965 1188.05 55.6348 1188.05 53.2456ZM1217.93 46.2641L1199.64 78.8442H1193.31L1211.55 46.2641H1217.93ZM1195.4 49.6152C1193.7 49.6152 1192.84 50.8253 1192.84 53.2456C1192.84 55.6968 1193.7 56.9225 1195.4 56.9225C1196.24 56.9225 1196.89 56.6277 1197.36 56.0381C1197.82 55.4176 1198.05 54.4867 1198.05 53.2456C1198.05 50.8253 1197.17 49.6152 1195.4 49.6152ZM1208.48 71.8162C1208.48 69.427 1209.16 67.5808 1210.53 66.2776C1211.92 64.9434 1213.71 64.2763 1215.88 64.2763C1218.05 64.2763 1219.81 64.9434 1221.14 66.2776C1222.51 67.5808 1223.19 69.427 1223.19 71.8162C1223.19 74.2054 1222.51 76.0672 1221.14 77.4014C1219.81 78.7356 1218.05 79.4028 1215.88 79.4028C1213.68 79.4028 1211.89 78.7356 1210.53 77.4014C1209.16 76.0672 1208.48 74.2054 1208.48 71.8162ZM1215.83 68.1859C1214.07 68.1859 1213.18 69.396 1213.18 71.8162C1213.18 74.2675 1214.07 75.4931 1215.83 75.4931C1217.57 75.4931 1218.44 74.2675 1218.44 71.8162C1218.44 69.396 1217.57 68.1859 1215.83 68.1859Z" fill="white"/>
</svg>
